<svg width="390" height="346" viewBox="0 0 390 346" fill="none" xmlns="http://www.w3.org/2000/svg">
<path d="M181.53 180.145C172.93 180.717 164.569 177.047 161.464 175.141H160.03L158.597 183.004V191.583L162.18 200.876C162.18 200.876 165.047 204.45 165.763 204.45C166.48 204.45 155.73 226.611 155.73 226.611V266.643L153.58 285.944L156.447 293.808C153.819 293.093 152.577 292.95 168.63 298.097C184.683 303.244 192.041 287.374 193.713 278.796C194.43 269.264 195.863 250.773 195.863 253.061C195.863 255.348 205.896 259.733 210.913 261.639C222.857 265.452 247.892 273.077 252.479 273.077C257.066 273.077 262.512 271.171 264.662 270.217C271.829 263.784 267.529 245.912 266.812 243.768C266.239 242.052 262.751 239.24 261.079 238.049C258.766 236.726 257.041 235.949 252.479 234.474L233.129 229.47L231.696 233.045C231.623 232.389 231.175 231.916 229.546 230.9L226.679 225.896L223.813 229.47L220.946 230.9V228.756L222.379 224.466L220.946 222.322C220.468 222.083 219.369 221.464 218.796 220.892C218.223 220.32 217.602 219.224 217.363 218.747L216.646 212.314C218.387 209.012 222.008 200.761 224.529 195.157C227.069 189.514 227.396 178.239 226.679 172.996L220.946 165.133C197.296 181.575 192.28 179.43 181.53 180.145Z" fill="#263238"/>
<path d="M164.63 205.766C164.499 205.765 164.37 205.733 164.253 205.674C164.136 205.614 164.035 205.528 163.957 205.423C161.707 202.278 157.593 193.099 157.163 188.867C156.733 184.635 159.155 174.569 159.256 174.112C159.31 173.903 159.444 173.724 159.629 173.612C159.814 173.5 160.036 173.464 160.246 173.513C160.457 173.561 160.641 173.69 160.758 173.871C160.876 174.052 160.918 174.272 160.875 174.484C160.875 174.598 158.424 184.749 158.811 188.781C159.198 192.813 163.211 201.648 165.304 204.508C165.368 204.596 165.414 204.696 165.439 204.802C165.465 204.908 165.469 205.018 165.451 205.125C165.434 205.233 165.396 205.336 165.339 205.429C165.281 205.522 165.206 205.602 165.118 205.666C164.969 205.747 164.799 205.781 164.63 205.766Z" fill="#263238"/>
<path d="M176.427 299.226L170.966 298.84C176.885 297.253 180.555 287.746 182.848 281.212C183.278 279.982 183.694 278.81 184.109 277.738C186.145 272.433 186.331 255.92 186.216 249.572C185.371 246.584 183.092 239.307 181.486 236.948C181.152 236.47 180.918 235.93 180.8 235.36C180.682 234.789 180.681 234.201 180.798 233.631C181.3 231.229 183.765 229.67 185.93 228.312C186.661 227.88 187.365 227.403 188.037 226.882C188.524 223.823 192.093 222.865 194.745 222.164C195.576 221.936 196.364 221.721 196.98 221.492C199.546 219.148 210.783 197.73 213.249 186.221C215.341 176.513 211.815 173.082 211.815 173.053L215.055 169.279C215.657 169.779 220.888 174.569 218.165 187.265C216.044 197.13 203.76 224.152 199.087 226.025C198.103 226.392 197.098 226.702 196.077 226.954C195.006 227.19 193.964 227.54 192.967 227.998C192.652 229.999 190.703 231.229 188.667 232.53C187.661 233.085 186.71 233.736 185.829 234.474C188.18 238.277 190.803 247.456 191.104 248.528L191.19 249.143C191.19 251.488 191.563 272.219 188.753 279.51C188.366 280.54 187.965 281.655 187.549 282.827C184.984 290.233 184.898 296.967 176.427 299.226Z" fill="white"/>
<path d="M268.804 249.644C264.891 247.728 254.7 245.726 248.594 244.439C245.985 243.896 243.735 243.41 242.044 243.01C239.237 242.345 236.284 242.699 233.716 244.011C232.954 244.343 232.168 244.62 231.366 244.84C228.27 245.612 226.163 242.581 224.643 240.365C224.471 240.122 224.285 239.836 224.084 239.578C222.149 240.708 219.483 242.252 216.918 241.523C216.323 241.344 215.772 241.045 215.298 240.644C214.825 240.243 214.439 239.749 214.166 239.192C213.513 237.787 213.031 236.309 212.733 234.789C212.26 232.802 211.93 231.543 210.941 230.757C207.558 228.069 207.573 226.797 207.501 226.468L210.038 222.336C211.186 224.025 212.533 225.571 214.051 226.94C216.001 228.705 217.252 231.11 217.577 233.717C217.794 234.769 218.11 235.798 218.523 236.79C219.58 236.436 220.591 235.956 221.533 235.361C222.236 234.898 222.997 234.533 223.798 234.274C226.048 233.717 227.424 235.704 228.743 237.605C229.283 238.44 229.897 239.225 230.577 239.95C230.936 239.836 231.366 239.664 231.839 239.464C235.402 237.735 239.46 237.31 243.305 238.263C244.896 238.663 247.103 239.121 249.655 239.693C255.731 240.846 261.656 242.688 267.313 245.183L268.804 249.644Z" fill="white"/>
<path d="M297.041 276.551C296.879 276.551 296.72 276.507 296.582 276.423C287.323 270.404 266.483 268.702 266.253 268.688C266.137 268.691 266.021 268.67 265.913 268.626C265.805 268.581 265.708 268.515 265.628 268.43C265.547 268.346 265.486 268.246 265.447 268.136C265.408 268.027 265.392 267.91 265.401 267.794C265.411 267.678 265.444 267.566 265.5 267.463C265.555 267.361 265.632 267.272 265.724 267.201C265.817 267.13 265.923 267.08 266.036 267.053C266.15 267.026 266.268 267.023 266.382 267.044C267.257 267.044 287.882 268.788 297.485 275.036C297.578 275.094 297.658 275.17 297.72 275.259C297.783 275.349 297.827 275.45 297.849 275.556C297.872 275.663 297.873 275.773 297.852 275.88C297.832 275.987 297.79 276.089 297.729 276.18C297.654 276.293 297.551 276.387 297.431 276.451C297.311 276.516 297.177 276.551 297.041 276.551Z" fill="#263238"/>
<path d="M289.586 260.281C288.939 260.267 288.297 260.161 287.68 259.967C284.713 259.123 269.047 250.731 268.416 250.373C268.223 250.27 268.079 250.095 268.014 249.886C267.95 249.678 267.971 249.452 268.072 249.258C268.178 249.065 268.356 248.92 268.568 248.856C268.78 248.792 269.008 248.813 269.205 248.915C274.78 251.918 285.903 257.737 288.124 258.38C288.719 258.621 289.371 258.686 290.002 258.566C290.053 258.374 290.172 258.206 290.337 258.095C290.502 257.983 290.701 257.933 290.899 257.956C291.097 257.978 291.281 258.071 291.416 258.217C291.551 258.363 291.629 258.553 291.636 258.752C291.628 258.971 291.57 259.186 291.465 259.379C291.361 259.573 291.213 259.74 291.034 259.867C290.61 260.16 290.101 260.305 289.586 260.281Z" fill="#263238"/>
<path d="M298.344 249.23C298.344 249.23 290.461 256.893 290.461 257.722C290.461 258.551 296.065 263.513 296.481 265.171C296.897 266.829 300.637 264.756 301.669 265.171C302.701 265.586 302.501 268.488 299.591 269.103C296.682 269.718 296.897 277.181 297.928 278.21C298.96 279.239 307.962 283.8 312.878 288.976C317.794 294.151 320.56 299.327 322.624 300.156C324.688 300.986 326.781 301.586 327.397 297.468C328.014 293.351 328.644 284.429 323.255 278.01C317.866 271.59 315.573 270.961 313.91 270.961C312.247 270.961 309.61 271.176 310.599 268.903C311.588 266.629 313.91 264.613 313.079 262.683C312.247 260.753 305.754 248.615 298.344 249.23Z" fill="#263238"/>
<path d="M327.125 303.187C326.52 303.218 325.918 303.082 325.385 302.794C324.851 302.507 324.407 302.079 324.101 301.557C324.052 301.461 324.023 301.356 324.015 301.248C324.008 301.14 324.022 301.031 324.056 300.929C324.091 300.826 324.146 300.732 324.217 300.651C324.289 300.57 324.376 300.504 324.474 300.456C324.668 300.361 324.892 300.345 325.099 300.411C325.305 300.478 325.477 300.622 325.577 300.814C325.649 300.928 326.208 301.858 327.957 301.429C330.35 300.828 332.257 300.142 332.744 297.311C333.416 291.132 332.149 284.898 329.118 279.468C327.276 276.697 325.068 274.187 322.553 272.005C320.303 269.903 318.54 268.245 318.411 266.472C318.411 265.828 318.411 265.185 318.339 264.513C318.46 261.947 317.969 259.389 316.906 257.05C315.028 253.318 310.571 248.472 306.342 246.684C302.458 245.097 300.695 245.798 299.176 249.544C299.09 249.747 298.928 249.907 298.723 249.991C298.519 250.074 298.29 250.072 298.087 249.987C297.883 249.902 297.722 249.739 297.639 249.536C297.555 249.332 297.557 249.103 297.642 248.901C299.577 244.297 302.3 243.182 307.03 245.14C311.76 247.099 316.462 252.289 318.497 256.307C319.695 258.852 320.265 261.646 320.16 264.456C320.16 265.104 320.188 265.733 320.246 266.343C320.317 267.458 321.966 269.002 323.858 270.775C326.488 273.059 328.793 275.69 330.709 278.596C333.962 284.368 335.307 291.018 334.55 297.597C333.833 301.386 331.182 302.358 328.53 303.016C328.073 303.14 327.6 303.198 327.125 303.187Z" fill="#263238"/>
<path d="M179.379 173.483C175.294 173.483 167.912 172.954 164.057 169.379C162.515 167.959 161.165 166.344 160.044 164.575C159.301 163.352 158.4 162.232 157.363 161.244C156.441 160.451 155.776 159.402 155.452 158.232C155.128 157.061 155.159 155.82 155.543 154.667C155.626 154.465 155.785 154.304 155.986 154.218C156.187 154.133 156.414 154.13 156.618 154.21C156.721 154.248 156.815 154.306 156.895 154.381C156.974 154.456 157.038 154.546 157.082 154.646C157.126 154.746 157.15 154.854 157.151 154.963C157.153 155.072 157.132 155.181 157.091 155.282C156.834 156.126 156.833 157.027 157.088 157.872C157.343 158.716 157.843 159.467 158.524 160.029C159.631 161.112 160.594 162.333 161.391 163.66C162.437 165.321 163.7 166.835 165.146 168.164C169.131 171.853 178.046 171.896 180.597 171.81C180.818 171.81 181.029 171.897 181.185 172.053C181.341 172.208 181.429 172.419 181.429 172.639C181.429 172.859 181.341 173.07 181.185 173.225C181.029 173.381 180.818 173.468 180.597 173.468L179.379 173.483Z" fill="#263238"/>
<path d="M185.485 180.86C178.58 180.936 171.711 179.864 165.161 177.686C156.374 174.255 156.561 170.537 156.919 169.522C157.028 169.148 157.157 168.781 157.306 168.421C157.65 167.563 157.779 167.249 157.306 166.477C156.131 164.704 157.091 160.858 157.206 160.429C157.26 160.217 157.396 160.035 157.584 159.923C157.771 159.811 157.996 159.777 158.209 159.829C158.422 159.886 158.605 160.024 158.717 160.214C158.83 160.403 158.864 160.63 158.811 160.844C158.424 162.273 158.137 164.733 158.696 165.562C159.064 166.059 159.28 166.651 159.318 167.267C159.357 167.884 159.215 168.498 158.911 169.036C158.775 169.336 158.665 169.647 158.582 169.965C158.195 171.395 159.857 173.811 165.748 176.142C172.915 179.001 191.204 181.375 202.025 176.142C219.584 167.706 220.831 164.59 220.788 163.832C220.745 163.074 220.673 162.402 220.587 161.544C220.151 159.257 220.239 156.901 220.845 154.653C221.819 152.137 222.794 149.635 221.791 146.504C221.125 143.639 220.784 140.709 220.773 137.768C220.673 135.824 220.587 133.979 220.386 132.578C220.142 130.053 219.344 127.613 218.05 125.429C217.965 125.362 217.895 125.278 217.843 125.182C217.792 125.087 217.759 124.982 217.749 124.874C217.738 124.767 217.749 124.658 217.781 124.554C217.813 124.451 217.865 124.354 217.935 124.271C218.077 124.103 218.28 123.997 218.5 123.976C218.719 123.954 218.938 124.019 219.111 124.157C220.315 125.172 221.547 129.147 221.977 132.407C222.206 133.836 222.292 135.766 222.393 137.754C222.396 140.554 222.713 143.345 223.339 146.075C224.514 149.763 223.339 152.666 222.393 155.225C221.869 157.258 221.8 159.382 222.192 161.444C222.278 162.273 222.364 163.074 222.407 163.818C222.493 165.676 220.558 169.136 202.699 177.7C197.912 179.988 191.648 180.86 185.485 180.86Z" fill="#263238"/>
<path d="M260.175 182.29C256.452 182.194 252.749 181.715 249.124 180.86C245.785 180.088 245.125 175.728 244.638 172.539C244.553 171.431 244.287 170.345 243.85 169.323C241.872 168.007 241.556 166.849 241.556 163.818C241.391 162.257 240.704 160.797 239.607 159.672C238.908 158.778 238.293 157.82 237.772 156.812C236.611 154.496 232.584 143.173 233.558 139.913C234.246 137.64 231.466 132.493 226.879 130.72C221.891 128.776 211.93 122.628 211.514 122.37C211.421 122.313 211.34 122.238 211.275 122.15C211.211 122.062 211.165 121.961 211.14 121.855C211.114 121.749 211.11 121.638 211.128 121.531C211.145 121.423 211.184 121.32 211.242 121.227C211.36 121.041 211.546 120.909 211.76 120.859C211.974 120.808 212.199 120.843 212.388 120.955C212.489 120.955 222.637 127.289 227.481 129.176C232.713 131.206 236.081 137.139 235.149 140.385C234.447 142.758 237.801 153.167 239.249 156.112C239.758 157.025 240.348 157.891 241.012 158.7C242.33 160.111 243.133 161.924 243.291 163.847C243.291 166.706 243.563 167.121 244.853 167.979C245.77 168.593 246.014 170.152 246.286 172.268C246.731 175.127 247.275 178.702 249.497 179.216C257.179 180.975 265.865 181.432 266.783 178.316C267.557 175.699 267.227 171.553 266.926 167.893C266.649 165.621 266.591 163.327 266.754 161.044C267.112 158.514 262.454 140.914 259.587 130.405C258.226 125.287 257.151 121.255 256.807 119.654C255.803 114.936 226.822 94.0047 219.397 91.0595C213.005 88.4717 203.459 85.0689 194.286 85.3406C194.164 85.3515 194.042 85.3324 193.929 85.285C193.817 85.2376 193.718 85.1634 193.641 85.0689C192.271 83.4674 190.744 82.0065 189.083 80.7083L188.581 81.2516C186.603 83.3819 181.973 88.4002 175.337 87.5424C171.689 87.1531 168.116 86.238 164.731 84.8259C164.755 85.5861 164.488 86.3271 163.985 86.899L163.856 86.9991C163.713 87.0991 160.316 89.2151 150.957 88.4288C141.927 87.6138 136.967 87.1706 128.31 78.5351C125.888 76.1189 123.079 73.1736 120.083 70.0425C113.174 62.6509 105.291 54.4014 102.281 52.9002C98.8413 51.1845 92.6494 50.4982 90.4134 50.2981C90.1698 52.9144 88.8941 60.5492 82.4155 63.1656C82.4155 64.195 82.8742 67.226 86.8445 72.4159L89.0375 75.2753C95.731 84.111 111.426 104.799 116.399 106.929C118.005 107.616 120.699 108.574 123.767 109.674C132.152 112.677 142.6 116.408 145.711 119.525C148.348 122.142 150.613 132.135 152.619 140.971C153.795 146.118 155.013 151.451 155.73 152.309C157.201 153.701 158.909 154.819 160.775 155.612C162.023 156.082 163.153 156.818 164.086 157.77C164.205 157.954 164.246 158.178 164.2 158.392C164.155 158.607 164.026 158.794 163.842 158.914C163.658 159.031 163.436 159.072 163.223 159.029C163.009 158.987 162.82 158.864 162.695 158.685C161.882 158.036 160.985 157.498 160.029 157.084C157.956 156.2 156.065 154.94 154.454 153.367C153.522 152.266 152.591 148.277 151 141.343C149.28 133.537 146.829 122.957 144.535 120.655C141.669 117.795 131.005 113.978 123.208 111.19C120.097 110.075 117.474 109.117 115.74 108.331C110.365 106.029 95.0574 85.8553 87.7188 76.1618L85.5258 73.3023C80.0506 66.1537 80.7242 62.6223 80.8246 62.2505C80.8533 62.1149 80.9175 61.9892 81.0106 61.8862C81.1038 61.7833 81.2225 61.7067 81.3549 61.6644C88.5215 59.2624 88.8081 49.4116 88.8225 49.3115C88.8261 49.2014 88.8518 49.093 88.8979 48.9929C88.944 48.8927 89.0097 48.8027 89.0911 48.7281C89.1725 48.6536 89.268 48.596 89.372 48.5587C89.476 48.5214 89.5864 48.5051 89.6968 48.5109C90.0551 48.5109 98.4973 49.0971 103.027 51.3703C106.28 53.0574 113.934 61.0496 121.33 68.7844C124.311 71.9012 127.063 74.8464 129.529 77.2483C137.756 85.455 142.228 85.8267 151.143 86.6702C158.997 87.3851 162.294 85.8982 162.853 85.5979C163.024 85.2065 163.098 84.7799 163.068 84.3541C163.068 83.8823 163.068 82.7957 164.086 82.7957C164.443 82.8406 164.788 82.9522 165.103 83.1245C168.419 84.5497 171.933 85.4656 175.524 85.841C181.257 86.5701 185.557 82.0093 187.348 80.1221C187.667 79.7208 188.044 79.3691 188.466 79.0784C188.954 78.8496 189.9 78.4064 194.601 83.6821C203.946 83.5105 213.564 86.9276 220.014 89.544C227.481 92.5893 257.179 113.563 258.412 119.397C258.742 120.955 259.845 124.973 261.178 130.062C265.349 145.618 268.761 158.657 268.345 161.359C268.204 163.524 268.267 165.697 268.531 167.85C268.832 171.653 269.176 175.956 268.316 178.859C267.571 181.49 264.059 182.29 260.175 182.29Z" fill="#263238"/>
<path d="M175.209 94.462C172.651 94.4747 170.108 94.0641 167.684 93.2467C159.4 90.3873 159.486 87.5993 159.586 87.0703C159.62 86.8523 159.74 86.6567 159.919 86.5267C160.097 86.3967 160.321 86.3428 160.539 86.3769C160.758 86.411 160.954 86.5304 161.084 86.7087C161.214 86.887 161.268 87.1096 161.234 87.3277C161.234 87.4706 161.564 89.3865 168.229 91.6168C172.744 93.06 177.593 93.0926 182.127 91.7102C186.661 90.3278 190.664 87.5965 193.598 83.882C193.665 83.7965 193.749 83.7252 193.844 83.6724C193.939 83.6195 194.044 83.5861 194.152 83.5741C194.26 83.5621 194.369 83.5718 194.474 83.6026C194.578 83.6333 194.675 83.6846 194.759 83.7534C194.93 83.8932 195.039 84.0942 195.063 84.3133C195.088 84.5324 195.025 84.7522 194.888 84.9257C192.537 87.8877 189.547 90.2832 186.14 91.9341C182.733 93.5851 178.997 94.4491 175.209 94.462Z" fill="#263238"/>
<path d="M102.654 28.9801L0 11.0371L94.8997 14.3541L102.654 28.9801Z" fill="#E8E8E8"/>
<path d="M85.7551 14.0258V9.37915L0 11.0376L85.7551 14.0258Z" fill="#D9D9D9"/>
<path d="M91.3164 9.27891L73.6007 0L0 11.0375L91.3164 9.27891Z" fill="#E8E8E8"/>
<path d="M81.6271 63.3367C81.5069 63.3412 81.3873 63.3177 81.2779 63.2681C81.1684 63.2184 81.072 63.1441 80.9964 63.0508C80.8674 62.9078 68.2686 48.3103 64.5133 45.3651C63.7393 44.7646 62.9366 44.107 62.1053 43.435C58.7608 40.4384 55.0239 37.9085 50.9971 35.9146C45.8372 33.7415 39.244 23.1615 38.9716 22.704C38.9152 22.6101 38.8778 22.5061 38.8616 22.3978C38.8455 22.2895 38.8509 22.1791 38.8775 22.0729C38.9041 21.9667 38.9514 21.8667 39.0168 21.7788C39.0821 21.6908 39.1642 21.6165 39.2583 21.5602C39.3524 21.5039 39.4567 21.4666 39.5653 21.4505C39.6738 21.4344 39.7845 21.4397 39.891 21.4663C39.9975 21.4929 40.0977 21.5401 40.1859 21.6052C40.274 21.6704 40.3485 21.7523 40.405 21.8462C40.405 21.9462 46.9982 32.4118 51.6851 34.3991C55.7844 36.1291 59.7117 39.3317 63.1516 42.1482L65.5309 44.0641C69.4296 47.1094 81.7274 61.3637 82.2577 61.9785C82.3291 62.0598 82.3835 62.1545 82.4179 62.257C82.4522 62.3595 82.4658 62.4677 82.4578 62.5755C82.4498 62.6833 82.4203 62.7884 82.3712 62.8847C82.3221 62.981 82.2543 63.0667 82.1717 63.1366C82.0216 63.2687 81.8273 63.3401 81.6271 63.3367Z" fill="#263238"/>
<path d="M56.4733 20.7878L2.20801 11.0371L58.4512 27.9078L56.4733 20.7878Z" fill="#9E9E9E"/>
<path d="M66.7209 30.3814L86.8877 36.4291L88.321 26.4925L64.356 22.2034C64.356 22.2034 64.8863 25.3059 65.1873 26.4925C65.6058 27.8233 66.1183 29.1229 66.7209 30.3814Z" fill="#9E9E9E"/>
<path d="M167.913 85.9122H167.684C167.578 85.8826 167.479 85.8324 167.393 85.7645C167.307 85.6966 167.235 85.6124 167.182 85.5167C167.129 85.421 167.095 85.3157 167.083 85.2069C167.07 85.0981 167.08 84.988 167.11 84.8828C167.11 84.8828 168.673 79.3784 167.11 75.5896C167.055 75.4869 167.023 75.3738 167.014 75.2576C167.006 75.1414 167.022 75.0248 167.062 74.9153C167.102 74.8058 167.165 74.706 167.246 74.6223C167.327 74.5386 167.425 74.4729 167.534 74.4294C167.642 74.386 167.758 74.3658 167.875 74.3702C167.992 74.3746 168.106 74.4035 168.211 74.4549C168.316 74.5064 168.409 74.5793 168.483 74.6689C168.558 74.7584 168.613 74.8627 168.644 74.9749C170.408 79.264 168.745 85.0973 168.644 85.3404C168.593 85.4974 168.497 85.6358 168.366 85.7377C168.236 85.8395 168.078 85.9003 167.913 85.9122Z" fill="#263238"/>
<path d="M186.431 83.0242C186.299 83.0243 186.169 82.9932 186.052 82.9335C185.935 82.8739 185.834 82.7874 185.757 82.6811C183.492 79.5643 179.708 74.1028 179.852 72.5729C179.877 72.3568 179.985 72.1587 180.153 72.0201C180.322 71.8816 180.537 71.8133 180.755 71.8295C180.973 71.8547 181.173 71.962 181.314 72.1294C181.455 72.2968 181.527 72.5118 181.514 72.7302C181.514 73.6024 184.381 78.0774 187.104 81.7089C187.168 81.7971 187.214 81.8971 187.239 82.003C187.265 82.109 187.269 82.2189 187.252 82.3264C187.234 82.434 187.196 82.5371 187.139 82.6298C187.081 82.7226 187.006 82.8031 186.918 82.867C186.775 82.9675 186.605 83.0224 186.431 83.0242Z" fill="#263238"/>
<path d="M279.181 211.814C278.983 211.81 278.786 211.786 278.593 211.742C276.3 211.242 267.327 202.077 265.693 199.847C264.43 198.254 262.817 196.972 260.978 196.101C260.064 197.365 259.492 198.842 259.315 200.39C259.143 202.506 258.814 204.579 257.581 205.423C257.286 205.617 256.95 205.74 256.599 205.782C256.248 205.824 255.893 205.784 255.56 205.666C253.009 204.894 253.396 202.535 253.94 199.275L254.127 198.117C254.695 195.565 255.662 193.119 256.993 190.868C257.223 190.439 257.466 189.967 257.595 189.681C256.936 188.581 254.241 184.148 252.392 181.103C252.28 180.915 252.245 180.69 252.296 180.476C252.347 180.263 252.479 180.077 252.665 179.959C252.758 179.902 252.861 179.863 252.969 179.846C253.078 179.828 253.188 179.832 253.295 179.857C253.401 179.883 253.502 179.929 253.59 179.993C253.679 180.057 253.754 180.138 253.811 180.231C254.686 181.661 259.014 188.709 259.215 189.124C259.416 189.538 259.215 190.11 258.455 191.583C257.215 193.68 256.311 195.956 255.775 198.331L255.574 199.489C255.015 202.892 254.987 203.707 256.033 204.022C256.434 204.15 256.578 204.022 256.649 204.022C257.395 203.521 257.595 201.048 257.667 200.233C257.819 198.09 258.716 196.067 260.204 194.514C260.353 194.412 260.522 194.343 260.701 194.313C260.879 194.284 261.062 194.294 261.236 194.342C263.486 195.323 265.456 196.846 266.969 198.774C269.176 201.634 277.547 209.755 278.937 210.055C279.095 210.055 279.367 210.126 279.439 209.983C279.511 209.841 279.439 208.697 278.206 207.539C276.558 206.109 271.126 198.96 271.599 197.316C271.648 197.137 271.747 196.975 271.884 196.849C272.021 196.723 272.19 196.637 272.373 196.601C273.147 196.444 273.921 197.002 278.35 200.89C280.629 202.906 284.083 205.937 284.943 206.109C285.275 206.174 285.609 206.222 285.946 206.252C285.766 205.934 285.565 205.628 285.344 205.337C284.656 204.379 283.295 202.892 281.976 201.448C280.365 199.828 278.901 198.067 277.604 196.187C277.503 195.993 277.482 195.767 277.546 195.559C277.611 195.35 277.755 195.175 277.948 195.071C278.143 194.968 278.37 194.945 278.581 195.007C278.793 195.068 278.972 195.209 279.081 195.4C280.315 197.153 281.691 198.803 283.194 200.333C284.628 201.877 285.946 203.335 286.691 204.365C287.437 205.394 288.125 206.466 287.537 207.224C286.95 207.982 285.789 207.91 284.671 207.667C283.553 207.424 281.073 205.394 277.303 202.077C276.3 201.191 275.096 200.118 274.121 199.318C275.605 201.817 277.364 204.143 279.367 206.252C280.958 207.682 281.603 209.454 280.973 210.67C280.823 211.018 280.573 211.313 280.253 211.517C279.934 211.721 279.56 211.824 279.181 211.814Z" fill="#263238"/>
<path d="M287.58 204.894C286.406 204.83 285.26 204.508 284.226 203.95C284.064 203.829 283.951 203.653 283.91 203.455C283.869 203.257 283.901 203.051 284.002 202.876C284.102 202.7 284.263 202.567 284.455 202.502C284.647 202.436 284.856 202.443 285.043 202.521C285.913 203.021 286.907 203.264 287.91 203.221L287.981 203.135C287.981 203.135 287.981 202.649 286.39 201.205C283.813 198.508 281.419 195.642 279.224 192.627C279.106 192.462 279.042 192.265 279.042 192.062C279.042 191.86 279.106 191.662 279.224 191.497C280.213 190.296 288.669 194.242 288.755 194.357C288.812 194.368 288.871 194.368 288.927 194.357C288.927 194.357 288.927 193.685 287.867 192.798C286.548 191.726 279.166 189.024 268.101 185.564L267.901 185.493C265.55 184.763 264.561 181.432 264.461 181.06C264.428 180.859 264.471 180.653 264.582 180.482C264.692 180.311 264.861 180.186 265.058 180.131C265.255 180.076 265.464 180.095 265.648 180.185C265.831 180.275 265.975 180.429 266.052 180.617C266.281 181.389 267.127 183.477 268.388 183.92H268.589C276.787 186.493 286.978 189.882 288.913 191.454C290.848 193.027 290.805 194.428 290.346 195.229C290.104 195.584 289.735 195.835 289.315 195.93C288.895 196.026 288.454 195.959 288.082 195.744C287.222 195.315 284.04 194.057 281.918 193.327C283.684 195.664 285.599 197.885 287.652 199.976C289.157 201.405 289.787 202.363 289.759 203.221C289.739 203.484 289.663 203.739 289.534 203.968C289.405 204.198 289.227 204.397 289.013 204.551C288.595 204.838 288.084 204.961 287.58 204.894Z" fill="#263238"/>
<path d="M156.074 14.0397C156.074 14.0397 145.811 16.6704 144.435 22.2749C143.059 27.8794 144.435 33.7127 148.864 33.1265C153.293 32.5403 159.098 28.7087 162.968 28.9803C166.838 29.252 166.021 30.7103 164.631 33.1551C163.24 35.5999 165.734 39.7461 172.657 37.816C179.58 35.8859 179.824 32.2973 184.826 33.6698C189.828 35.0424 185.27 46.3658 186.431 47.9671C187.592 49.5683 187.865 51.8273 190.473 47.9671C193.082 44.1068 197.009 38.8597 201.151 40.2465C205.294 41.6334 197.282 49.6255 193.139 51.284L188.983 52.9425C188.983 52.9425 187.32 64.5233 184.826 66.1817C184.826 66.1817 201.438 63.98 207.759 58.1753C214.08 52.3706 208.59 52.4564 209.694 49.3539C210.798 46.2514 217.162 46.0941 217.162 42.3339C217.162 38.5738 216.33 39.1314 210.525 36.372C204.72 33.6126 206.369 32.2401 207.2 30.8533C208.031 29.4664 208.863 26.993 204.161 25.6062C199.46 24.2193 188.395 20.9167 190.43 17.8857C192.466 14.8547 193.526 8.77833 186.388 9.30733C179.25 9.83632 172.428 14.4686 168.372 13.9682C164.315 13.4678 160.574 12.3955 156.074 14.0397Z" fill="#263238"/>
<path d="M169.618 76.4474H169.418L167.554 76.0328C162.724 74.9748 152.677 72.7873 147.316 68.9985C140.766 64.3662 141.955 52.8427 143.131 49.1683C144.306 45.4939 146.958 33.0696 146.986 32.8837C147.008 32.7746 147.053 32.6711 147.117 32.58C147.181 32.489 147.263 32.4122 147.359 32.3547C147.451 32.2934 147.554 32.2527 147.663 32.2354C147.772 32.2181 147.884 32.2247 147.99 32.2546C148.156 32.27 148.324 32.27 148.491 32.2546C148.577 32.2111 148.669 32.1821 148.764 32.1689C150.94 31.7494 153.058 31.0676 155.07 30.1387C157.937 28.9663 160.717 27.8511 163.025 28.0227C164.301 28.1227 165.892 28.3515 166.408 29.4524C166.924 30.5533 166.279 31.84 165.361 33.4556C165.155 33.8531 165.07 34.3025 165.119 34.7476C165.167 35.1928 165.346 35.6137 165.634 35.9576C166.78 37.3874 169.332 37.802 172.428 36.9298C174.528 36.3456 176.514 35.4128 178.304 34.1705C180.282 32.898 181.83 31.8972 185.055 32.7408C189.04 33.8559 188.122 39.5319 187.463 43.6924C187.173 44.9189 187.058 46.1798 187.119 47.4383C187.334 47.7386 187.52 48.0674 187.707 48.3819C187.852 48.6915 188.046 48.9762 188.28 49.2255C188.84 48.6951 189.323 48.0886 189.713 47.424C192.05 44.0356 196.393 37.7305 201.352 39.389C201.837 39.5139 202.268 39.794 202.579 40.1865C202.89 40.579 203.063 41.0622 203.072 41.5621C203.172 44.8362 197.009 50.5265 193.368 51.9705L189.613 53.4717C189.111 55.4734 186.961 63.8515 185.485 66.5108L185.198 67.0541C184.281 68.8556 182.332 72.63 178.648 74.5745C178.454 74.6757 178.228 74.6965 178.018 74.6322C177.809 74.568 177.634 74.4239 177.53 74.2313C177.428 74.0356 177.407 73.8077 177.471 73.5966C177.535 73.3854 177.68 73.2078 177.874 73.1018C181.113 71.4005 182.876 67.9548 183.722 66.2964L184.037 65.7102C185.557 62.9365 188.079 52.8427 188.108 52.6711C188.137 52.5438 188.197 52.4254 188.282 52.3259C188.367 52.2263 188.474 52.1486 188.595 52.0992L192.752 50.4407C195.948 49.1683 201.481 43.8497 201.352 41.605C201.352 41.3906 201.352 41.1332 200.764 40.9474C197.453 39.8465 194.128 43.8068 191.032 48.3676C189.756 50.212 188.868 50.8982 188.008 50.8696C187.148 50.8411 186.574 49.9689 186.13 49.1969C185.972 48.9252 185.815 48.6393 185.628 48.3676C185.055 47.567 185.256 46.123 185.628 43.4208C186.202 39.8894 186.976 35.0569 184.424 34.342C181.873 33.6272 180.898 34.342 179.021 35.5144C177.162 36.8755 175.088 37.9191 172.886 38.6026C167.454 40.1181 165.089 38.0307 164.286 37.0585C163.799 36.4649 163.5 35.7405 163.426 34.9769C163.352 34.2133 163.507 33.445 163.871 32.7693C164.372 31.8686 165.06 30.6534 164.888 30.3388C164.888 30.3388 164.63 29.9528 162.867 29.8241C161.104 29.6954 158.252 30.7677 155.701 31.8257C153.597 32.7695 151.396 33.4791 149.136 33.9417C148.916 34.0227 148.683 34.0615 148.448 34.0561C147.832 36.9155 145.711 46.5519 144.707 49.6687C143.704 52.7855 142.557 63.5942 148.276 67.6546C153.35 71.2432 163.183 73.3735 167.898 74.4172L169.805 74.8318C169.911 74.857 170.011 74.9029 170.1 74.9669C170.189 75.0308 170.264 75.1116 170.321 75.2046C170.378 75.2976 170.417 75.4009 170.434 75.5087C170.451 75.6164 170.447 75.7265 170.421 75.8326C170.376 76.0102 170.272 76.1674 170.127 76.2789C169.981 76.3904 169.802 76.4498 169.618 76.4474Z" fill="#263238"/>
<path d="M145.224 45.3081C145.088 45.3105 144.954 45.2759 144.837 45.208C142.943 44.1104 141.29 42.6432 139.978 40.8942C138.665 39.1452 137.72 37.1501 137.197 35.0283C136.767 33.7921 136.767 32.4472 137.197 31.211C137.418 30.89 137.724 30.6369 138.081 30.4803C138.438 30.3237 138.832 30.2697 139.218 30.3245C140.652 30.4532 142.515 31.7543 143.833 34.8282C144.579 36.7554 145.541 38.5924 146.7 40.304C146.835 40.4784 146.895 40.6992 146.867 40.9177C146.839 41.1362 146.724 41.3346 146.55 41.4692C146.375 41.6039 146.153 41.6637 145.934 41.6355C145.715 41.6074 145.516 41.4935 145.381 41.3191C144.106 39.5061 143.053 37.5478 142.243 35.4858C141.125 32.8409 139.677 32.0259 138.989 31.9687C138.659 31.9687 138.545 32.0831 138.516 32.126C138.043 33.1697 139.72 40.7043 145.568 43.7497C145.73 43.8371 145.858 43.9758 145.932 44.1439C146.007 44.3119 146.023 44.4999 145.979 44.6782C145.935 44.8566 145.832 45.0152 145.688 45.1292C145.543 45.2432 145.365 45.3061 145.181 45.3081H145.224Z" fill="#263238"/>
<path d="M179.064 43.0203H178.634C178.277 42.958 177.947 42.7873 177.691 42.5314C177.434 42.2756 177.263 41.947 177.201 41.5905C176.971 40.6183 174.907 39.2315 173.503 38.5595C173.403 38.5122 173.314 38.4456 173.241 38.3638C173.168 38.2819 173.112 38.1863 173.076 38.0826C173.04 37.9788 173.025 37.869 173.031 37.7594C173.038 37.6499 173.067 37.5428 173.116 37.4443C173.162 37.3458 173.227 37.2574 173.308 37.1844C173.388 37.1114 173.483 37.0553 173.586 37.0193C173.689 36.9834 173.798 36.9683 173.907 36.975C174.015 36.9817 174.122 37.01 174.219 37.0583C174.907 37.3871 178.333 39.1457 178.82 41.2188C178.82 41.3475 178.82 41.3475 178.935 41.3618C179.116 41.3676 179.296 41.3289 179.458 41.2491C179.621 41.1694 179.761 41.0509 179.867 40.9043C179.958 40.7693 180.007 40.6099 180.007 40.4468C180.007 40.2836 179.958 40.1242 179.867 39.9892C178.777 37.9733 178.032 36.8438 177.115 36.6008C177.002 36.5803 176.895 36.5369 176.8 36.4734C176.706 36.4098 176.625 36.3275 176.563 36.2314C176.502 36.1354 176.461 36.0277 176.443 35.9151C176.425 35.8026 176.431 35.6875 176.459 35.5772C176.488 35.4669 176.539 35.3636 176.609 35.2739C176.68 35.1841 176.768 35.1098 176.869 35.0556C176.969 35.0014 177.08 34.9684 177.194 34.9588C177.307 34.9491 177.422 34.963 177.53 34.9995C179.193 35.4284 180.196 37.0869 181.329 39.2172C181.569 39.633 181.679 40.1107 181.646 40.5894C181.613 41.0681 181.437 41.5261 181.142 41.9051C180.9 42.2331 180.588 42.5033 180.229 42.6962C179.87 42.889 179.472 42.9997 179.064 43.0203Z" fill="#263238"/>
<path d="M149.28 37.2587C149.189 37.2724 149.098 37.2724 149.007 37.2587C148.578 37.1647 148.181 36.9611 147.854 36.6679C147.527 36.3747 147.283 36.0018 147.144 35.5859C147.078 35.1687 147.105 34.742 147.224 34.3366C147.343 33.9311 147.551 33.557 147.832 33.2412C147.99 33.0892 148.2 33.0042 148.42 33.0042C148.639 33.0042 148.85 33.0892 149.007 33.2412C149.159 33.396 149.244 33.6038 149.244 33.8202C149.244 34.0366 149.159 34.2444 149.007 34.3992C148.864 34.5708 148.62 34.9854 148.692 35.2142C148.764 35.4429 148.907 35.5001 149.179 35.6288C150.706 34.9335 152.349 34.5263 154.024 34.4278C154.269 34.4185 154.505 34.3338 154.7 34.1854C154.895 34.0369 155.039 33.832 155.113 33.5986C155.329 33.1075 155.369 32.5575 155.228 32.0402C155.039 32.0687 154.847 32.0317 154.682 31.9353C154.518 31.839 154.392 31.6893 154.325 31.5112C154.249 31.3137 154.252 31.0944 154.335 30.8996C154.418 30.7048 154.574 30.5499 154.769 30.4675C155.03 30.358 155.318 30.3281 155.596 30.3815C155.874 30.435 156.13 30.5694 156.332 30.7677C156.686 31.245 156.906 31.8082 156.969 32.399C157.032 32.9897 156.936 33.5866 156.69 34.1276C156.507 34.6779 156.162 35.1599 155.698 35.5097C155.235 35.8595 154.676 36.0606 154.096 36.0863C152.537 36.179 151.013 36.5774 149.609 37.2587C149.501 37.2832 149.388 37.2832 149.28 37.2587Z" fill="#263238"/>
<path d="M151.358 42.1913C150.52 41.846 149.658 41.564 148.778 41.3477C148.395 41.2458 148.008 41.1647 147.617 41.1047C147.172 41.0189 146.699 40.976 146.083 40.8044C146.409 40.2949 146.888 39.9014 147.452 39.6805C148.016 39.4596 148.636 39.4226 149.222 39.5749C149.824 39.7022 150.364 40.0312 150.753 40.5072C151.141 40.9832 151.355 41.5775 151.358 42.1913Z" fill="#263238"/>
<path d="M166.479 44.4788C166.997 43.782 167.733 43.2786 168.572 43.0491C169.416 42.8059 170.307 42.7765 171.166 42.9633C172.013 43.1581 172.8 43.5555 173.459 44.1213C174.121 44.6656 174.618 45.3836 174.893 46.1944C174.076 45.9085 173.459 45.5797 172.743 45.3366C172.111 45.0846 171.459 44.8884 170.793 44.7504C170.136 44.5883 169.463 44.4925 168.787 44.4645C168.013 44.4645 167.282 44.4645 166.479 44.4788Z" fill="#263238"/>
<path d="M156.203 54.3294H156.045C154.575 54.0348 153.135 53.604 151.745 53.0426C151.488 52.9324 151.26 52.766 151.076 52.5556C150.893 52.3452 150.759 52.0963 150.685 51.8273C150.552 50.818 150.808 49.7961 151.401 48.9679L155.501 40.9185L155.644 40.7184C155.915 40.4004 156.258 40.1506 156.644 39.9891C157.03 39.8277 157.448 39.7591 157.866 39.7891C158.309 39.8801 158.729 40.0634 159.097 40.327C159.465 40.5906 159.773 40.9286 160.001 41.3189C160.091 41.485 160.126 41.6751 160.102 41.8622C160.102 41.8622 159.17 47.9528 159.07 50.4405C159.111 51.2841 158.878 52.1186 158.405 52.8194C157.933 53.5202 157.246 54.0498 156.447 54.3294H156.203ZM156.877 41.7478L152.792 49.7685C152.439 50.2285 152.248 50.791 152.247 51.3698C152.247 51.3698 152.247 51.4699 152.405 51.5271C153.608 52.0184 154.856 52.3918 156.131 52.6423C156.534 52.4176 156.864 52.083 157.082 51.6777C157.3 51.2725 157.398 50.8135 157.364 50.3547C157.464 48.0672 158.167 43.2061 158.367 41.9051C158.181 41.6576 157.92 41.477 157.622 41.3904C157.479 41.3972 157.338 41.4338 157.21 41.4978C157.082 41.5618 156.968 41.6518 156.877 41.7621V41.7478Z" fill="#263238"/>
<path d="M146.083 44.4356C146.406 44.3305 146.748 44.294 147.086 44.3285C147.424 44.363 147.751 44.4677 148.047 44.6358C148.958 45.1358 149.686 45.9129 150.124 46.8541C150.562 47.7952 150.688 48.8513 150.483 49.8686C150.025 51.041 148.534 49.7113 146.384 48.8678C145.682 48.5961 145.61 48.8678 144.951 48.639L146.083 44.4356Z" fill="#263238"/>
<path d="M163.068 52.4278C162.824 53.8575 165.476 53.5144 168.586 54.0148C171.696 54.5152 174.061 55.7304 174.319 54.2435C174.577 52.7566 172.571 49.0965 169.475 48.5961C166.379 48.0957 163.311 50.9409 163.068 52.4278Z" fill="#263238"/>
<path d="M155.314 60.5776C157.192 60.0057 158.783 59.7197 160.302 59.2479C161.064 59.0302 161.811 58.7627 162.538 58.4473C163.298 58.147 163.971 57.7181 164.917 57.2749C164.727 58.2592 164.224 59.1564 163.484 59.8341C162.746 60.5028 161.863 60.9921 160.904 61.2638C159.974 61.5323 159 61.615 158.037 61.5069C157.065 61.4331 156.128 61.1133 155.314 60.5776Z" fill="#263238"/>
<path d="M191.749 129.747C191.749 137.668 188.423 144.044 176.513 144.044C168.113 144.044 163.054 137.639 163.054 129.747C163.054 121.855 166.436 115.45 176.513 115.45C186.589 115.45 191.749 121.841 191.749 129.747Z" fill="#E8E8E8"/>
<path d="M175.079 131.535H174.807C174.348 131.535 173.474 131.535 173.216 130.748C172.958 129.962 173.546 129.59 173.947 129.319C174.15 129.156 174.338 128.974 174.506 128.775L174.377 128.69C173.302 127.946 166.107 128.175 159.771 128.832C159.663 128.846 159.553 128.838 159.447 128.809C159.342 128.78 159.244 128.73 159.158 128.662C159.073 128.594 159.002 128.509 158.949 128.413C158.897 128.317 158.865 128.212 158.854 128.103C158.834 127.884 158.901 127.665 159.04 127.494C159.179 127.323 159.38 127.214 159.599 127.188C161.85 126.96 173.202 125.859 175.366 127.331C175.616 127.48 175.824 127.689 175.972 127.938C176.12 128.188 176.202 128.471 176.212 128.761C176.218 128.987 176.179 129.212 176.098 129.423C176.017 129.634 175.895 129.827 175.739 129.991C176.427 129.991 177.373 129.833 178.462 129.705C183.263 129.133 191.362 128.175 198.385 130.048C198.592 130.11 198.767 130.25 198.872 130.438C198.977 130.626 199.005 130.848 198.949 131.057C198.893 131.265 198.758 131.443 198.572 131.554C198.387 131.664 198.165 131.699 197.955 131.649C191.175 129.862 183.349 130.791 178.663 131.349C177.029 131.377 175.839 131.535 175.079 131.535Z" fill="#263238"/>
<path d="M59.2106 34.7707C59.0485 34.7719 58.8897 34.7249 58.7544 34.6358C58.6191 34.5467 58.5135 34.4195 58.4509 34.2703C57.8424 32.245 57.5617 30.1359 57.6196 28.0224L55.6559 21.1311C55.6212 20.9961 55.6205 20.8546 55.654 20.7193C55.6875 20.584 55.7541 20.4591 55.8478 20.3557C55.9415 20.2523 56.0594 20.1737 56.191 20.1269C56.3226 20.0801 56.4638 20.0665 56.6019 20.0874L63.5392 21.3027C63.8832 21.3027 65.5458 21.846 65.8468 25.5919C65.9846 27.1792 66.5274 28.705 67.4235 30.024C67.4822 30.1161 67.5215 30.2191 67.5388 30.3268C67.5562 30.4346 67.5513 30.5447 67.5245 30.6505C67.4976 30.7562 67.4494 30.8554 67.3827 30.9419C67.3161 31.0284 67.2324 31.1004 67.1368 31.1535C67.0439 31.2101 66.9407 31.2476 66.8331 31.2638C66.7256 31.2801 66.6158 31.2747 66.5103 31.2481C66.4049 31.2215 66.3058 31.1741 66.2189 31.1087C66.1321 31.0434 66.0591 30.9614 66.0045 30.8676C64.9737 29.3382 64.352 27.5713 64.1985 25.7348C63.9978 23.2614 63.1952 22.8754 63.1808 22.8754L57.6196 21.9032L59.2536 27.6221C59.2605 27.7029 59.2605 27.7843 59.2536 27.8651C59.1895 29.7953 59.4215 31.7238 59.9416 33.584C60.0281 33.7851 60.0315 34.0121 59.9509 34.2157C59.8704 34.4192 59.7125 34.5827 59.5116 34.6706C59.4181 34.7217 59.3161 34.7556 59.2106 34.7707Z" fill="#263238"/>
<path d="M89.654 50.2263C89.5023 50.2328 89.3523 50.1929 89.224 50.112C87.332 48.9968 70.6769 39.0173 68.4409 34.8997C68.3667 34.7715 68.3276 34.626 68.3276 34.4779C68.3276 34.3299 68.3667 34.1844 68.4409 34.0562C68.9051 33.2195 69.1838 32.2931 69.2579 31.3397C69.2673 31.2308 69.2982 31.1248 69.3486 31.0278C69.3991 30.9308 69.4682 30.8446 69.5521 30.7743C69.6359 30.7039 69.7329 30.6507 69.8373 30.6177C69.9418 30.5847 70.0517 30.5725 70.1609 30.5819C70.2701 30.5913 70.3763 30.6221 70.4736 30.6724C70.5708 30.7228 70.6572 30.7917 70.7278 30.8754C70.7983 30.959 70.8516 31.0557 70.8847 31.1599C70.9178 31.2641 70.93 31.3738 70.9206 31.4827C70.8221 32.5181 70.5457 33.5289 70.1036 34.4708C72.5402 37.8592 85.1964 45.8085 90.041 48.768C90.1365 48.8211 90.2202 48.8931 90.2869 48.9796C90.3535 49.0661 90.4018 49.1653 90.4286 49.2711C90.4555 49.3768 90.4604 49.487 90.443 49.5947C90.4256 49.7024 90.3864 49.8055 90.3276 49.8975C90.249 50.0011 90.1471 50.0849 90.0301 50.142C89.9131 50.1991 89.7842 50.228 89.654 50.2263Z" fill="#263238"/>
<path d="M173.962 333.669C173.962 333.669 173.173 321.573 172.528 320.987C171.883 320.401 163.642 321.516 161.95 320.673C160.259 319.829 159.327 324.447 158.238 324.962C157.149 325.476 154.855 323.275 156.418 320.401C157.98 317.527 151.559 312.366 149.954 312.495C148.348 312.623 138.114 316.784 130.202 317.27C122.291 317.756 115.998 316.269 113.82 317.413C111.641 318.557 109.62 319.843 112.659 323.332C115.697 326.82 122.692 333.726 131.98 333.812C141.268 333.898 143.446 332.382 144.593 331.038C145.74 329.694 147.46 327.249 148.707 329.751C149.954 332.253 149.982 335.642 152.146 336.285C154.311 336.929 169.131 340.36 173.962 333.669Z" fill="#263238"/>
<path d="M160.115 345.993C157.945 346.01 155.781 345.775 153.665 345.292C150.682 344.465 147.937 342.946 145.653 340.86C145.109 340.417 144.564 339.974 144.019 339.574C142.987 338.816 140.493 339.087 137.627 339.402C133.828 339.964 129.97 340.003 126.16 339.516C119.008 338.109 112.486 334.481 107.527 329.151C104.876 325.877 105.965 323.003 107.298 320.329C107.607 319.503 108.191 318.808 108.953 318.36C109.715 317.912 110.609 317.739 111.483 317.87C111.674 317.941 111.833 318.079 111.929 318.258C112.025 318.437 112.051 318.645 112.004 318.843C111.956 319.04 111.837 319.213 111.67 319.329C111.502 319.445 111.298 319.496 111.096 319.472C110.953 319.472 109.663 319.243 108.774 321.073C107.556 323.518 106.782 325.591 108.774 328.107C113.494 333.116 119.661 336.534 126.418 337.886C130.077 338.337 133.779 338.293 137.426 337.758C140.766 337.386 143.417 337.1 144.965 338.244C145.539 338.659 146.098 339.116 146.671 339.574C148.765 341.509 151.29 342.92 154.038 343.691C158.539 344.806 165.892 344.578 170.392 342.261C174.563 340.117 175.237 338.115 173.259 334.041C173.219 333.861 173.24 333.674 173.319 333.508C173.398 333.342 173.529 333.207 173.693 333.123C173.857 333.04 174.044 333.013 174.225 333.047C174.406 333.081 174.57 333.174 174.692 333.311C177.129 338.172 176.126 341.189 171.166 343.72C167.704 345.305 163.924 346.082 160.115 345.993Z" fill="#263238"/>
<path d="M152.935 318.199C152.782 318.2 152.632 318.158 152.503 318.077C152.373 317.995 152.27 317.879 152.204 317.741C152.155 317.648 152.124 317.545 152.115 317.439C152.105 317.334 152.117 317.228 152.149 317.126C152.181 317.025 152.232 316.932 152.301 316.851C152.37 316.77 152.454 316.703 152.548 316.655C152.663 316.569 156.404 314.024 160.489 297.268C160.503 297.152 160.541 297.04 160.602 296.939C160.662 296.839 160.743 296.753 160.84 296.686C160.936 296.619 161.046 296.573 161.161 296.552C161.276 296.53 161.395 296.533 161.509 296.561C161.623 296.588 161.73 296.639 161.823 296.711C161.916 296.783 161.992 296.873 162.048 296.976C162.103 297.08 162.136 297.193 162.144 297.31C162.152 297.427 162.135 297.544 162.094 297.654C157.794 315.44 153.752 317.899 153.308 318.113C153.192 318.17 153.064 318.2 152.935 318.199Z" fill="#263238"/>
<path d="M169.776 323.975C169.567 323.976 169.365 323.896 169.213 323.752C169.061 323.608 168.971 323.412 168.959 323.203C168.558 316.97 176.814 299.699 177.172 298.969C177.294 298.835 177.457 298.743 177.635 298.71C177.814 298.676 177.999 298.702 178.162 298.783C178.324 298.864 178.456 298.996 178.536 299.159C178.616 299.322 178.641 299.506 178.606 299.684C178.52 299.856 170.192 317.298 170.55 323.089C170.558 323.198 170.544 323.307 170.51 323.411C170.475 323.514 170.42 323.61 170.348 323.693C170.276 323.775 170.189 323.842 170.091 323.891C169.992 323.939 169.886 323.968 169.776 323.975Z" fill="#263238"/>
<path d="M176.255 300.242C170.808 300.242 161.018 297.382 156.331 294.623C151.43 291.763 152.92 281.212 154.225 271.89C154.382 270.747 154.54 269.617 154.683 268.545C155.257 264.113 155.113 255.591 154.956 247.342C154.784 237.606 154.626 228.398 155.529 224.581C157.191 217.432 171.596 191.125 172.213 190.01C172.262 189.913 172.331 189.827 172.415 189.758C172.499 189.688 172.596 189.636 172.701 189.606C172.805 189.575 172.915 189.566 173.023 189.579C173.132 189.592 173.236 189.627 173.331 189.681C173.426 189.732 173.511 189.802 173.58 189.885C173.648 189.969 173.699 190.066 173.73 190.17C173.761 190.274 173.77 190.382 173.758 190.49C173.746 190.598 173.713 190.702 173.66 190.796C173.517 191.068 158.754 218.104 157.134 224.952C156.289 228.57 156.461 238.106 156.618 247.313C156.761 255.62 156.919 264.213 156.331 268.759C156.188 269.846 156.03 270.975 155.859 272.119C154.698 280.483 153.236 290.906 157.163 293.193C162.05 296.053 173.531 299.241 177.76 298.469C179.838 298.097 186.89 296.067 190.831 285.744C194.042 277.352 194.931 249.587 194.931 246.699C194.372 245.017 193.576 243.423 192.566 241.966C190.573 238.621 189.699 236.976 190.502 236.047C191.304 235.118 192.351 235.818 192.781 236.047C194.582 236.949 196.262 238.073 197.783 239.393L198.758 240.15C198.758 240.15 198.758 239.993 198.758 239.907C198.399 238.606 197.998 237.448 197.668 236.519C196.98 234.503 196.593 233.388 197.238 232.644C197.452 232.437 197.719 232.292 198.009 232.224C198.299 232.156 198.603 232.168 198.887 232.258C201.065 232.687 202.255 232.53 203.187 231.658C204.305 230.457 223.984 198.774 225.374 191.912C226.951 184.305 226.808 175.841 225.073 173.068C223.038 169.822 220.573 166.534 220.544 166.505C220.413 166.329 220.358 166.108 220.39 165.891C220.422 165.674 220.54 165.478 220.716 165.347C220.802 165.28 220.901 165.231 221.006 165.202C221.111 165.174 221.222 165.167 221.33 165.181C221.438 165.196 221.542 165.232 221.636 165.288C221.73 165.343 221.812 165.417 221.877 165.505C221.877 165.505 224.414 168.879 226.478 172.181C228.757 175.827 228.456 185.235 227.008 192.197C225.561 199.16 205.466 231.615 204.233 232.845C202.628 234.446 200.549 234.274 198.5 233.903C198.669 234.612 198.884 235.309 199.145 235.99C199.474 236.948 199.89 238.135 200.263 239.493C200.549 240.565 200.764 241.652 200.005 242.138C199.245 242.624 198.299 241.98 196.708 240.708C195.29 239.477 193.726 238.425 192.05 237.577H191.964C192.548 238.834 193.213 240.052 193.956 241.223C195.561 243.939 196.55 245.669 196.55 246.799C196.55 247.085 195.905 277.109 192.351 286.431C188.051 297.568 180.311 299.784 178.018 300.199C177.432 300.266 176.842 300.281 176.255 300.242Z" fill="#263238"/>
<path d="M251.646 274.15C250.915 274.15 250.213 274.15 249.654 274.064C246.214 273.806 234.26 269.889 223.711 266.443C217.375 264.37 211.399 262.412 208.417 261.625C203.239 260.122 198.616 257.14 195.116 253.047C195.033 252.964 194.968 252.865 194.926 252.756C194.884 252.647 194.866 252.531 194.872 252.414C194.879 252.297 194.91 252.183 194.963 252.08C195.017 251.976 195.092 251.884 195.183 251.811C195.275 251.738 195.38 251.686 195.494 251.656C195.607 251.627 195.725 251.622 195.841 251.641C195.956 251.661 196.066 251.704 196.164 251.769C196.261 251.834 196.344 251.919 196.406 252.017C199.705 255.802 204.015 258.574 208.833 260.01C211.872 260.81 217.877 262.769 224.227 264.856C234.174 268.102 246.543 272.162 249.783 272.405C254.627 272.777 262.84 271.748 265.549 267.401C268.258 263.055 268.688 252.461 267.943 249.859L267.842 249.501C266.954 246.37 264.876 239.007 258.096 236.762C249.611 233.903 234.805 229.885 233.228 230.157C232.898 230.157 232.54 231.043 232.325 231.515C231.995 232.259 231.651 233.016 230.892 233.031C230.132 233.045 229.63 232.159 229.458 231.787C229.157 231.186 228.856 230.486 228.555 229.757C228.097 228.656 227.122 226.368 226.592 226.239C225.908 226.868 225.289 227.562 224.743 228.313C223.424 230 222.535 231.172 221.532 230.757C220.529 230.343 220.643 229.328 220.643 228.927C220.672 227.926 220.797 226.931 221.016 225.954C221.475 223.637 221.489 222.837 219.941 222.251C216.272 220.821 215.455 214.802 215.455 212.586C215.455 212.366 215.542 212.155 215.698 211.999C215.854 211.844 216.066 211.756 216.286 211.756C216.507 211.756 216.718 211.844 216.874 211.999C217.03 212.155 217.118 212.366 217.118 212.586C217.118 214.015 217.705 219.648 220.529 220.706C223.352 221.764 223.051 224.181 222.65 226.268C222.497 227.089 222.406 227.921 222.378 228.756C222.736 228.355 223.166 227.798 223.496 227.326C224.105 226.466 224.812 225.679 225.603 224.981C225.803 224.825 226.035 224.715 226.283 224.661C226.532 224.606 226.789 224.608 227.036 224.667C228.355 225.024 229.157 226.94 230.089 229.142C230.347 229.757 230.605 230.371 230.849 230.9C231.236 230.043 231.766 228.884 232.884 228.599C235.005 228.084 253.079 233.388 258.684 235.247C266.28 237.777 268.616 246.013 269.491 249.115L269.591 249.458C270.451 252.432 270.136 263.441 267.011 268.345C264.044 272.963 256.519 274.15 251.646 274.15Z" fill="#263238"/>
<path d="M362.428 328.25C362.137 328.271 361.845 328.271 361.554 328.25C361.335 328.218 361.138 328.101 361.006 327.924C360.875 327.747 360.819 327.525 360.851 327.307C360.883 327.089 361.001 326.892 361.179 326.761C361.356 326.63 361.579 326.574 361.797 326.606C361.912 326.606 371.83 327.807 380.559 311.137C388.084 296.839 388.442 292.55 388.328 291.464C388.056 291.664 387.697 291.993 387.367 292.293C386.517 293.16 385.517 293.867 384.415 294.38C382.767 295.038 364.979 310.107 361.339 325.977C361.315 326.083 361.27 326.183 361.208 326.271C361.145 326.359 361.065 326.434 360.973 326.491C360.881 326.549 360.779 326.587 360.672 326.604C360.564 326.622 360.455 326.617 360.35 326.592C360.242 326.57 360.141 326.527 360.051 326.465C359.96 326.403 359.884 326.324 359.825 326.232C359.766 326.14 359.726 326.037 359.708 325.929C359.69 325.822 359.694 325.712 359.719 325.605C363.531 308.992 381.849 293.623 383.799 292.836C384.712 292.404 385.538 291.808 386.235 291.078C386.792 290.416 387.521 289.921 388.342 289.648C388.578 289.597 388.825 289.618 389.049 289.707C389.274 289.796 389.467 289.949 389.604 290.148C391.581 292.779 385.705 304.889 382.021 311.866C374.066 326.964 365.208 328.25 362.428 328.25Z" fill="#263238"/>
<path d="M363.689 326.306C363.568 326.305 363.449 326.277 363.34 326.226C363.232 326.174 363.135 326.099 363.058 326.006C362.987 325.923 362.934 325.826 362.9 325.722C362.867 325.618 362.855 325.508 362.864 325.399C362.873 325.29 362.904 325.184 362.955 325.087C363.005 324.99 363.075 324.904 363.159 324.834C363.273 324.748 374.496 315.24 379.355 304.946C379.454 304.758 379.623 304.614 379.825 304.546C380.028 304.478 380.249 304.491 380.442 304.581C380.636 304.671 380.788 304.832 380.865 305.03C380.943 305.229 380.941 305.45 380.86 305.647C375.843 316.284 364.707 325.663 364.234 326.106C364.081 326.235 363.888 326.306 363.689 326.306Z" fill="#263238"/>
<path d="M361.726 306.332H361.654C361.545 306.325 361.439 306.296 361.342 306.247C361.245 306.199 361.158 306.131 361.087 306.049C361.016 305.966 360.963 305.87 360.93 305.767C360.897 305.663 360.885 305.554 360.894 305.446C362.027 291.849 368.677 277.823 380.66 263.784C381.161 263.183 381.505 262.783 381.649 262.583C381.937 262.121 382.201 261.643 382.437 261.153C383.412 259.323 384.2 257.893 385.304 258.208C386.407 258.522 386.737 259.637 386.436 265.356C385.834 276.794 378.022 298.926 377.693 299.855C377.666 299.968 377.615 300.074 377.544 300.166C377.474 300.257 377.385 300.334 377.283 300.389C377.181 300.445 377.068 300.478 376.953 300.488C376.837 300.497 376.721 300.482 376.611 300.444C376.501 300.406 376.401 300.345 376.316 300.266C376.232 300.187 376.164 300.091 376.119 299.984C376.074 299.878 376.052 299.763 376.054 299.647C376.055 299.531 376.082 299.417 376.131 299.312C376.217 299.083 384.2 276.508 384.73 265.27C384.861 263.629 384.861 261.98 384.73 260.338C384.429 260.81 384.071 261.482 383.842 261.911C383.612 262.34 383.211 263.097 382.953 263.469C382.695 263.841 382.408 264.141 381.849 264.799C370.096 278.581 363.589 292.278 362.485 305.517C362.483 305.723 362.403 305.92 362.263 306.071C362.123 306.221 361.931 306.314 361.726 306.332Z" fill="#263238"/>
<path d="M362.142 314.539H361.912C361.702 314.476 361.524 314.333 361.42 314.14C361.315 313.947 361.291 313.72 361.353 313.51C366.184 297.011 377.449 276.337 377.564 276.08C377.615 275.984 377.685 275.9 377.769 275.831C377.853 275.763 377.95 275.712 378.054 275.681C378.158 275.651 378.267 275.641 378.375 275.653C378.483 275.665 378.587 275.698 378.682 275.751C378.778 275.802 378.863 275.871 378.931 275.955C379 276.039 379.051 276.135 379.081 276.239C379.112 276.343 379.122 276.452 379.11 276.56C379.098 276.667 379.065 276.771 379.012 276.866C378.897 277.08 367.732 297.654 362.944 314.039C362.879 314.195 362.767 314.327 362.623 314.417C362.479 314.506 362.311 314.549 362.142 314.539Z" fill="#263238"/>
<path d="M357.11 326.577C356.896 326.578 356.69 326.496 356.536 326.348C355.963 325.805 342.547 312.694 344.109 296.324C345.471 282.027 348.954 268.573 351.706 266.815C351.89 266.682 352.103 266.594 352.327 266.559C352.551 266.525 352.78 266.543 352.996 266.614C354.644 267.186 354.988 269.603 355.418 272.676C355.653 275.119 356.202 277.522 357.052 279.825C359.36 285.244 364.935 310.064 361.94 323.503C361.88 323.705 361.747 323.876 361.565 323.983C361.384 324.09 361.168 324.124 360.963 324.079C360.757 324.034 360.576 323.912 360.457 323.739C360.338 323.565 360.289 323.353 360.32 323.146C363.187 310.035 357.783 285.773 355.519 280.468C354.618 278.046 354.031 275.519 353.77 272.948C353.498 271.047 353.168 268.659 352.552 268.273C351.004 269.245 347.277 280.626 345.758 296.524C344.324 312.051 357.554 325.019 357.683 325.119C357.811 325.23 357.902 325.378 357.942 325.542C357.982 325.707 357.969 325.88 357.906 326.037C357.843 326.194 357.733 326.328 357.59 326.42C357.447 326.511 357.279 326.556 357.11 326.548V326.577Z" fill="#263238"/>
<path d="M358.257 324.618C358.098 324.617 357.941 324.571 357.807 324.485C357.673 324.399 357.565 324.277 357.498 324.132C350.331 308.32 349.17 286.116 349.17 285.902C349.162 285.793 349.176 285.685 349.211 285.582C349.246 285.479 349.301 285.384 349.373 285.303C349.445 285.222 349.533 285.156 349.631 285.109C349.729 285.062 349.835 285.035 349.944 285.029C350.158 285.026 350.366 285.106 350.521 285.253C350.677 285.4 350.768 285.602 350.775 285.816C350.775 286.03 351.994 307.934 358.974 323.46C359.061 323.66 359.067 323.885 358.989 324.089C358.911 324.292 358.757 324.456 358.558 324.547C358.464 324.592 358.362 324.616 358.257 324.618Z" fill="#263238"/>
<path d="M357.282 283.7C357.071 283.7 356.868 283.621 356.713 283.477C356.559 283.334 356.465 283.138 356.45 282.928C355.175 261.11 364.248 242.281 368.605 233.245C369.404 231.683 370.117 230.08 370.74 228.441C371.701 225.224 372.933 224.681 373.779 224.795C375.026 224.952 376.717 226.468 377.018 237.548C377.405 251.531 373.32 275.979 373.292 276.151C373.274 276.259 373.235 276.362 373.177 276.455C373.119 276.548 373.043 276.629 372.954 276.692C372.865 276.756 372.764 276.802 372.657 276.826C372.55 276.851 372.44 276.855 372.331 276.837C372.223 276.819 372.12 276.78 372.026 276.722C371.933 276.665 371.852 276.589 371.789 276.5C371.725 276.411 371.679 276.311 371.654 276.204C371.629 276.097 371.626 275.987 371.643 275.879C371.643 275.636 375.728 251.331 375.356 237.52C375.083 227.211 373.55 226.368 373.535 226.353C372.936 227.072 372.523 227.926 372.331 228.841C371.688 230.567 370.942 232.252 370.095 233.888C365.796 242.81 356.866 261.367 358.113 282.756C358.119 282.865 358.103 282.974 358.066 283.077C358.03 283.18 357.973 283.274 357.9 283.355C357.827 283.436 357.738 283.502 357.64 283.549C357.541 283.596 357.434 283.623 357.325 283.628L357.282 283.7Z" fill="#263238"/>
<path d="M361.41 302.801C361.205 302.799 361.007 302.722 360.854 302.586C360.701 302.449 360.603 302.261 360.579 302.058C360.307 299.584 361.195 295.81 362.829 288.947C363.646 285.487 364.649 281.184 365.796 275.865C368.191 263.572 369.957 251.165 371.085 238.692C371.11 238.475 371.218 238.275 371.386 238.135C371.554 237.994 371.769 237.922 371.988 237.934C372.097 237.943 372.203 237.974 372.299 238.024C372.396 238.075 372.482 238.144 372.551 238.228C372.621 238.312 372.673 238.409 372.704 238.513C372.735 238.617 372.745 238.727 372.733 238.835C371.603 251.375 369.833 263.848 367.43 276.208C366.269 281.541 365.251 285.845 364.434 289.304C362.858 295.996 361.984 299.67 362.227 301.872C362.251 302.09 362.188 302.308 362.051 302.48C361.914 302.651 361.715 302.762 361.496 302.787L361.41 302.801Z" fill="#263238"/>
<path d="M374.195 332.396C374.016 332.396 373.842 332.339 373.698 332.233C373.554 332.128 373.447 331.98 373.392 331.81C373.33 331.6 373.354 331.373 373.459 331.18C373.563 330.987 373.741 330.844 373.951 330.781L375.643 330.252C375.561 330.208 375.484 330.155 375.413 330.094C375.251 329.945 375.133 329.754 375.072 329.542C375.012 329.33 375.011 329.106 375.069 328.893C375.353 328.04 375.774 327.238 376.316 326.52L376.503 326.248C373.392 327.421 369.078 328.693 366.111 327.407C366.01 327.364 365.919 327.303 365.842 327.225C365.765 327.148 365.704 327.056 365.663 326.955C365.622 326.854 365.601 326.746 365.602 326.637C365.602 326.528 365.624 326.42 365.667 326.32C365.758 326.119 365.924 325.961 366.131 325.881C366.337 325.8 366.567 325.804 366.77 325.891C369.637 327.121 374.596 325.205 376.245 324.576C376.832 324.347 377.907 323.932 378.481 324.661C379.054 325.391 378.481 326.248 377.707 327.435C377.434 327.835 377.133 328.293 376.918 328.693C377.391 328.579 378.036 328.379 378.552 328.222C379.935 327.715 381.383 327.407 382.852 327.306C383.77 327.306 384.042 327.75 384.085 328.121C384.2 328.893 384.286 329.394 374.453 332.411L374.195 332.396Z" fill="#263238"/>
<path d="M354.386 326.091C354.251 326.094 354.117 326.059 353.999 325.991C351.735 324.755 349.676 323.178 347.893 321.316C346.532 319.886 345.528 319.5 345.027 319.629C344.934 319.667 344.854 319.729 344.796 319.81C344.738 319.891 344.703 319.987 344.697 320.087C344.673 320.301 344.591 320.505 344.46 320.676C344.328 320.847 344.153 320.98 343.952 321.059C343.164 321.359 342.39 320.73 341.487 320.001L341.257 319.829C341.257 319.929 341.257 320.029 341.257 320.115C341.401 321.788 341.63 324.304 339.824 325.134C339.724 325.179 339.616 325.204 339.507 325.207C339.398 325.211 339.288 325.193 339.186 325.154C339.083 325.116 338.99 325.057 338.91 324.983C338.83 324.908 338.765 324.818 338.72 324.719C338.675 324.619 338.65 324.512 338.646 324.403C338.643 324.294 338.661 324.185 338.7 324.083C338.738 323.98 338.797 323.887 338.871 323.807C338.946 323.727 339.036 323.663 339.136 323.618C339.867 323.289 339.695 321.388 339.595 320.258C339.494 319.129 339.423 318.214 340.111 317.828C340.799 317.442 341.616 318.014 342.504 318.714L343.192 319.257C343.312 318.967 343.495 318.708 343.728 318.497C343.961 318.287 344.238 318.132 344.539 318.042C345.27 317.828 346.818 317.828 349.026 320.187C350.684 321.889 352.587 323.334 354.673 324.476C354.772 324.526 354.859 324.595 354.931 324.679C355.003 324.763 355.057 324.86 355.09 324.965C355.123 325.071 355.135 325.181 355.125 325.291C355.115 325.401 355.083 325.508 355.031 325.605C354.973 325.734 354.883 325.845 354.771 325.93C354.658 326.015 354.526 326.071 354.386 326.091Z" fill="#263238"/>
<path d="M66.8932 325.076C65.4118 325.075 63.9322 324.975 62.4643 324.776C55.9571 323.904 46.4685 320.487 38.27 309.563C24.6678 291.363 24.1375 276.551 23.9368 270.217C23.9368 269.26 23.9368 268.516 23.8078 267.973C23.4495 265.113 23.8078 261.739 25.4848 261.039C25.9148 260.838 26.7891 260.695 27.7208 261.825C28.3242 262.664 28.6816 263.654 28.7528 264.684C29.0538 266.514 29.3978 268.602 33.454 270.961C41.9393 275.865 70.2042 293.965 78.0301 320.844C78.0721 320.951 78.0911 321.066 78.086 321.181C78.081 321.297 78.0519 321.409 78.0007 321.513C77.9495 321.616 77.8773 321.708 77.7886 321.781C77.6999 321.855 77.5968 321.91 77.4858 321.942C77.3748 321.974 77.2583 321.982 77.1438 321.967C77.0293 321.951 76.9193 321.912 76.8209 321.852C76.7224 321.792 76.6376 321.712 76.5718 321.617C76.5061 321.522 76.4609 321.415 76.4391 321.301C68.7852 295.023 40.9646 277.223 32.6227 272.391C27.8785 269.646 27.4341 266.929 27.1188 264.956C27.0754 264.232 26.8432 263.532 26.4451 262.926C26.3492 262.788 26.2214 262.675 26.0725 262.597C25.8001 262.769 25.0548 264.627 25.4562 267.816C25.4562 268.387 25.5565 269.245 25.5995 270.203C25.8145 276.38 26.3305 290.834 39.6173 308.62C47.4432 319.114 56.4444 322.317 62.622 323.174C66.5265 323.749 70.5077 323.515 74.3178 322.488C74.5269 322.42 74.7544 322.438 74.9505 322.537C75.1465 322.636 75.2953 322.809 75.3641 323.017C75.3998 323.12 75.4142 323.23 75.4067 323.338C75.3992 323.447 75.3699 323.554 75.3204 323.651C75.2709 323.748 75.2024 323.835 75.1188 323.905C75.0352 323.976 74.9383 324.029 74.8338 324.061C72.2523 324.791 69.576 325.133 66.8932 325.076Z" fill="#263238"/>
<path d="M74.7471 322.159H74.6038C74.0735 322.059 61.403 319.8 47.7435 307.648C39.2791 299.833 33.1224 289.855 29.9417 278.796C29.9163 278.69 29.9121 278.58 29.9293 278.472C29.9466 278.364 29.9849 278.261 30.0421 278.168C30.0993 278.075 30.1744 277.995 30.2629 277.931C30.3514 277.867 30.4517 277.821 30.5581 277.795C30.6644 277.77 30.7747 277.766 30.8827 277.783C30.9907 277.8 31.0942 277.838 31.1874 277.895C31.2805 277.952 31.3615 278.027 31.4257 278.116C31.4899 278.204 31.536 278.304 31.5614 278.41C34.6458 289.152 40.6245 298.844 48.8471 306.433C62.1196 318.256 74.7614 320.53 74.8904 320.544C75.1051 320.586 75.2952 320.709 75.4209 320.887C75.5465 321.066 75.5978 321.286 75.5641 321.502C75.5271 321.69 75.4249 321.859 75.2755 321.979C75.1261 322.099 74.9391 322.163 74.7471 322.159Z" fill="#263238"/>
<path d="M82.86 321.874C82.6433 321.893 82.428 321.825 82.2613 321.686C82.0946 321.546 81.9903 321.347 81.9713 321.13C81.9523 320.914 82.0202 320.7 82.1599 320.533C82.2997 320.367 82.5 320.263 82.7167 320.244C82.8743 320.244 98.4831 316.97 99.0708 288.104C99.7874 256.264 93.3375 241.009 89.3386 237.02C88.5072 236.176 87.7762 235.776 87.4179 235.919C85.8843 236.519 85.7553 243.539 85.6836 247.728C85.5689 253.333 82.817 258.723 79.119 266.201C77.8434 268.745 76.4101 271.633 74.9051 274.779C69.3008 286.803 72.3108 307.548 72.3395 307.748C72.3697 307.861 72.3757 307.979 72.357 308.094C72.3384 308.21 72.2955 308.32 72.2313 308.417C72.167 308.515 72.0828 308.598 71.9842 308.661C71.8856 308.724 71.7747 308.765 71.6589 308.782C71.5431 308.8 71.425 308.792 71.3122 308.761C71.1995 308.729 71.0947 308.674 71.0047 308.6C70.9147 308.525 70.8415 308.432 70.7899 308.327C70.7384 308.223 70.7096 308.108 70.7055 307.991C70.5765 307.133 67.5809 286.545 73.4001 274.078C74.8334 270.861 76.3671 267.973 77.7001 265.414C81.3407 258.137 83.978 252.89 84.0783 247.657C84.2073 240.222 84.4796 235.276 86.8589 234.332C88.4786 233.689 90.0552 235.29 90.5712 235.762C96.1181 241.352 101.421 259.695 100.791 288.047C100.103 318.357 83.763 321.645 83.075 321.774L82.86 321.874Z" fill="#263238"/>
<path d="M63.4958 329.252C58.6082 329.08 58.4362 328.222 58.3502 327.822C58.2642 327.422 58.6082 326.735 59.4539 326.392C60.6402 325.864 61.9467 325.661 63.2378 325.806C64.202 325.91 65.1772 325.817 66.1045 325.534C68.2974 324.862 68.6414 324.033 68.6414 324.033C68.6666 323.929 68.7122 323.831 68.7756 323.744C68.839 323.657 68.919 323.584 69.0109 323.528C69.1028 323.472 69.2048 323.435 69.3111 323.419C69.4174 323.402 69.5259 323.407 69.6304 323.433C69.8445 323.49 70.0281 323.628 70.1429 323.817C70.2578 324.006 70.295 324.232 70.2467 324.448C70.2467 324.719 69.7164 326.163 66.5918 327.121C65.4642 327.46 64.2811 327.577 63.1088 327.464C62.495 327.386 61.8737 327.386 61.2599 327.464C61.9335 327.55 62.6932 327.607 63.5102 327.636C63.7306 327.636 63.9421 327.723 64.098 327.879C64.2539 328.034 64.3415 328.245 64.3415 328.465C64.3415 328.685 64.2539 328.896 64.098 329.052C63.9421 329.207 63.7306 329.295 63.5102 329.295L63.4958 329.252Z" fill="#263238"/>
<path d="M88.6213 324.548C88.5088 324.548 88.3974 324.525 88.2939 324.481C88.1904 324.437 88.097 324.372 88.0194 324.29C87.8636 324.135 87.776 323.924 87.776 323.704C87.776 323.484 87.8636 323.274 88.0194 323.118C88.5443 322.639 89.0241 322.112 89.4527 321.545L89.3667 321.631C88.779 322.332 87.9334 323.375 86.7437 322.789C86.2777 322.51 85.8717 322.141 85.5494 321.704C85.2272 321.267 84.9949 320.771 84.8661 320.244C84.8147 320.03 84.8508 319.804 84.9664 319.617C85.082 319.429 85.2676 319.295 85.4824 319.244C85.6972 319.192 85.9235 319.228 86.1117 319.344C86.2998 319.459 86.4344 319.644 86.4857 319.858C86.6409 320.446 87.0085 320.955 87.5177 321.288C87.6899 321.018 87.8866 320.764 88.1054 320.53C88.7073 319.83 89.725 318.643 90.972 319.472C91.1486 319.594 91.2957 319.753 91.4023 319.939C91.509 320.124 91.5725 320.331 91.5883 320.545C91.6743 321.874 89.9543 323.618 89.209 324.305C89.0499 324.455 88.8406 324.542 88.6213 324.548Z" fill="#263238"/>
<path d="M82.7608 318.257C82.652 318.278 82.54 318.278 82.4312 318.257C82.3299 318.213 82.2384 318.15 82.1623 318.071C82.0861 317.991 82.0268 317.897 81.988 317.795C81.9491 317.692 81.9316 317.582 81.9363 317.472C81.941 317.362 81.968 317.255 82.0155 317.156C90.0614 297.064 93.0819 275.321 90.816 253.805C90.7917 253.585 90.8546 253.365 90.9912 253.191C91.1279 253.017 91.3275 252.904 91.547 252.875C91.6555 252.861 91.7657 252.869 91.8711 252.899C91.9764 252.928 92.0748 252.978 92.1604 253.046C92.2459 253.114 92.3169 253.199 92.3691 253.295C92.4214 253.39 92.4537 253.496 92.4644 253.604C96.5923 288.461 83.6495 317.542 83.5205 317.842C83.4443 317.974 83.3331 318.083 83.1991 318.156C83.0651 318.229 82.9134 318.264 82.7608 318.257Z" fill="#263238"/>
<path d="M71.0065 304.617C70.8534 304.619 70.7028 304.578 70.5712 304.5C70.4397 304.422 70.3324 304.309 70.2611 304.174C70.1608 303.959 59.3106 282.456 62.8079 250.245C64.2141 236.241 67.4622 222.483 72.4684 209.326C74.1311 204.736 75.2204 201.705 74.9194 199.818C74.7617 198.846 73.4861 190.268 75.8511 189.21C76.3241 188.995 77.098 188.967 77.9867 190.053C80.4807 193.113 88.0199 216.274 87.5756 235.39C87.5756 235.499 87.5541 235.606 87.5123 235.707C87.4705 235.808 87.4093 235.899 87.3321 235.976C87.2549 236.053 87.1632 236.114 87.0624 236.156C86.9615 236.198 86.8534 236.219 86.7442 236.219C86.6351 236.219 86.527 236.198 86.4261 236.156C86.3252 236.114 86.2336 236.053 86.1564 235.976C86.0792 235.899 86.018 235.808 85.9762 235.707C85.9344 235.606 85.9129 235.499 85.9129 235.39C86.3573 216.117 78.6174 193.485 76.6967 191.068L76.4674 190.825C76.0374 191.74 75.8797 195.229 76.5677 199.532C76.9261 201.834 75.7794 205.022 74.0308 209.855C69.0782 222.891 65.8593 236.517 64.4562 250.388C61.0163 282.085 71.6228 303.173 71.7375 303.387C71.7891 303.484 71.8209 303.589 71.8308 303.698C71.8407 303.807 71.8286 303.917 71.7952 304.021C71.7617 304.125 71.7077 304.221 71.6362 304.304C71.5647 304.387 71.4773 304.454 71.3791 304.503C71.2658 304.57 71.138 304.609 71.0065 304.617Z" fill="#263238"/>
<path d="M71.2789 286.03C71.0633 286.03 70.8561 285.947 70.7009 285.797C70.5458 285.648 70.455 285.444 70.4475 285.229C70.4475 284.929 70.2612 277.966 72.9702 262.897C75.6791 247.828 78.7034 212.156 78.7034 211.785C78.7287 211.567 78.8362 211.368 79.0041 211.227C79.172 211.086 79.3874 211.014 79.6064 211.027C79.7152 211.036 79.8211 211.066 79.9178 211.117C80.0146 211.167 80.1002 211.236 80.1697 211.32C80.2392 211.404 80.2911 211.501 80.3223 211.605C80.3536 211.71 80.3636 211.819 80.3518 211.927C80.3518 212.285 77.2701 248.185 74.6185 263.197C71.9669 278.209 72.1102 285.101 72.1245 285.172C72.1248 285.392 72.0401 285.604 71.888 285.764C71.7359 285.924 71.5281 286.019 71.3075 286.03H71.2789Z" fill="#263238"/>
<path d="M50.7827 284.929C50.6634 284.928 50.5458 284.902 50.4372 284.853C50.3286 284.803 50.2315 284.732 50.152 284.644C50.0373 284.501 38.1409 270.732 35.2312 252.246C32.3216 233.76 31.0889 227.598 29.2113 224.938C28.122 223.38 28.079 221.707 29.111 220.749C29.67 220.22 31.9776 218.819 37.0659 222.994C43.8168 228.498 59.7265 248.729 63.7398 261.925C63.7883 262.131 63.756 262.348 63.6496 262.531C63.5431 262.714 63.3707 262.849 63.1674 262.91C62.9641 262.97 62.7454 262.95 62.5561 262.855C62.3667 262.76 62.2211 262.596 62.1488 262.397C58.2932 249.715 42.4695 229.513 36.0052 224.281C32.7803 221.65 30.788 221.421 30.272 221.964C29.9566 222.265 29.9566 223.051 30.616 223.98C32.7086 226.94 33.8982 232.93 36.9082 251.989C39.7748 270.003 51.3417 283.443 51.4563 283.557C51.5281 283.639 51.5828 283.735 51.6174 283.839C51.6519 283.943 51.6656 284.052 51.6576 284.161C51.6496 284.27 51.6201 284.376 51.5708 284.474C51.5215 284.571 51.4534 284.658 51.3703 284.729C51.207 284.868 50.9969 284.94 50.7827 284.929Z" fill="#263238"/>
<path d="M69.0145 300.057C68.8914 300.057 68.7697 300.031 68.6582 299.979C68.5467 299.927 68.4481 299.851 68.3695 299.756C68.3695 299.671 61.375 291.321 52.1731 277.982C42.9712 264.642 37.969 240.423 37.754 239.379C37.7332 239.272 37.7337 239.162 37.7556 239.055C37.7775 238.948 37.8203 238.847 37.8815 238.757C37.9428 238.666 38.0212 238.589 38.1125 238.529C38.2037 238.469 38.306 238.427 38.4133 238.407C38.6275 238.368 38.8484 238.414 39.03 238.534C39.2115 238.653 39.3397 238.839 39.3879 239.05C39.3879 239.308 44.4762 263.87 53.5491 277.038C62.622 290.206 69.5879 298.598 69.6595 298.684C69.7975 298.856 69.8627 299.074 69.8413 299.294C69.8199 299.513 69.7135 299.715 69.5449 299.856C69.3971 299.983 69.2094 300.054 69.0145 300.057Z" fill="#263238"/>
<path d="M44.8205 233.259C44.6424 233.255 44.4703 233.194 44.3288 233.087C44.1872 232.979 44.0834 232.829 44.0321 232.659C44.0321 232.487 38.7576 214.959 37.1236 203.55C36.7366 200.79 36.3639 198.531 36.0629 196.673C35.2603 191.826 34.9593 189.996 35.9196 189.081C36.1767 188.868 36.4825 188.721 36.81 188.654C37.1375 188.586 37.4765 188.6 37.7972 188.695C40.4919 189.224 63.1812 206.495 68.6565 226.44C68.6884 226.546 68.6987 226.658 68.6867 226.768C68.6746 226.878 68.6405 226.985 68.5863 227.082C68.5321 227.179 68.4589 227.264 68.3712 227.332C68.2834 227.4 68.1828 227.45 68.0753 227.479C67.9678 227.508 67.8557 227.515 67.7455 227.499C67.6353 227.484 67.5293 227.447 67.4338 227.39C67.3383 227.333 67.2552 227.257 67.1895 227.168C67.1238 227.078 67.0767 226.977 67.0512 226.869C61.8482 207.968 39.9615 190.797 37.4819 190.311C37.335 190.284 37.1845 190.284 37.0376 190.311C36.7509 190.725 37.1952 193.37 37.6969 196.444C37.9979 198.288 38.3706 200.576 38.7719 203.35C40.3772 214.644 45.5658 232.044 45.6231 232.216C45.6854 232.426 45.6616 232.653 45.5568 232.846C45.4521 233.039 45.2749 233.182 45.0641 233.245C44.9845 233.265 44.9019 233.269 44.8205 233.259Z" fill="#263238"/>
<path d="M63.0948 257.98C62.9008 257.983 62.7121 257.917 62.5624 257.794C62.4127 257.67 62.3119 257.498 62.2778 257.308C60.7498 250.934 58.021 244.908 54.237 239.55C47.5864 229.886 43.5444 208.325 43.3868 207.41C43.366 207.303 43.3665 207.193 43.3884 207.086C43.4103 206.98 43.4531 206.878 43.5143 206.788C43.5756 206.697 43.6541 206.62 43.7453 206.56C43.8366 206.5 43.9388 206.459 44.0461 206.438C44.264 206.404 44.4866 206.455 44.6679 206.58C44.8493 206.705 44.9756 206.895 45.0208 207.11C45.0208 207.324 49.1487 229.242 55.5986 238.564C59.5389 244.102 62.3623 250.352 63.9118 256.964C63.9324 257.072 63.9312 257.182 63.9082 257.289C63.8853 257.395 63.8411 257.496 63.7782 257.586C63.7154 257.675 63.6352 257.751 63.5424 257.809C63.4497 257.867 63.3462 257.905 63.2382 257.922L63.0948 257.98Z" fill="#263238"/>
<path d="M72.8834 211.428C72.7743 211.424 72.6669 211.399 72.5674 211.354C72.468 211.309 72.3784 211.244 72.3039 211.165C72.2293 211.085 72.1712 210.991 72.133 210.889C72.0947 210.787 72.077 210.679 72.0808 210.57C72.3818 202.663 71.4071 197.445 68.5978 191.983L68.2682 191.369C62.7356 180.517 56.2427 167.478 55.2967 162.96C54.6804 160.1 53.72 158.942 53.2614 158.928C53.1611 158.928 51.9714 159.028 50.5238 163.818C48.0585 171.91 53.849 202.063 53.9207 202.42C53.9625 202.636 53.9166 202.86 53.7929 203.043C53.6693 203.225 53.4781 203.351 53.2614 203.393C53.0447 203.434 52.8203 203.388 52.6375 203.265C52.4547 203.142 52.3286 202.951 52.2867 202.735C52.0431 201.477 46.3528 171.867 48.9328 163.389C50.1654 159.3 51.5844 157.312 53.2327 157.312H53.2471C55.397 157.398 56.4147 160.701 56.8303 162.66C57.8623 167.535 66.4335 184.334 69.7302 190.654L70.0455 191.283C72.9981 197.002 74.0301 202.506 73.7148 210.713C73.6869 210.912 73.5872 211.095 73.4342 211.226C73.2812 211.358 73.0854 211.43 72.8834 211.428Z" fill="#263238"/>
<path d="M66.9499 224.667C66.7423 224.664 66.5427 224.586 66.3894 224.446C66.2361 224.306 66.1397 224.115 66.1186 223.909C66.1186 223.809 65.316 213.315 64.5276 206.623C63.7393 199.932 55.9278 187.608 55.8131 187.494C55.6953 187.304 55.6577 187.076 55.7088 186.858C55.7599 186.641 55.8954 186.453 56.0854 186.336C56.2755 186.218 56.5046 186.181 56.7223 186.232C56.94 186.283 57.1286 186.418 57.2464 186.607C57.5761 187.122 65.3876 199.475 66.2046 206.423C67.0216 213.372 67.7956 223.68 67.8099 223.78C67.8258 223.998 67.7549 224.213 67.6127 224.379C67.4705 224.545 67.2684 224.648 67.0503 224.667H66.9499Z" fill="#263238"/>
<ellipse cx="221.662" cy="230.901" rx="0.716829" ry="0.71484" fill="#263238"/>
<ellipse cx="230.979" cy="233.045" rx="1.43367" ry="1.42972" fill="#263238"/>
<ellipse cx="220.946" cy="230.186" rx="1.43364" ry="1.42972" fill="#263238"/>
<ellipse rx="1.07791" ry="5.3807" transform="matrix(0.895434 0.445195 -0.446986 0.894541 161.505 215.713)" fill="#263238"/>
</svg>
