<svg width="280" height="283" viewBox="0 0 280 283" fill="none" xmlns="http://www.w3.org/2000/svg">
<path d="M235.369 255.822C245.338 248.806 253.503 239.538 259.196 228.774C294.811 162.218 286.767 64.0759 218.179 21.9814C186.477 2.52836 140.849 -9.78364 106.58 10.1977C78.7905 26.4003 61.7557 56.91 47.6617 84.6663C38.8078 102.149 31.5116 120.912 20.5953 137.246C6.43906 158.426 -9.14405 186.717 6.5886 211.329C28.0286 244.853 68.5223 260.16 105.24 270.241C145.079 281.173 189.879 282.727 226.677 261.397C229.656 259.669 232.553 257.811 235.369 255.822Z" fill="#C8C8C8"/>
<path opacity="0.7" d="M235.369 255.822C245.338 248.806 253.503 239.538 259.196 228.774C294.811 162.218 286.767 64.0759 218.179 21.9814C186.477 2.52836 140.849 -9.78364 106.58 10.1977C78.7905 26.4003 61.7557 56.91 47.6617 84.6663C38.8078 102.149 31.5116 120.912 20.5953 137.246C6.43906 158.426 -9.14405 186.717 6.5886 211.329C28.0286 244.853 68.5223 260.16 105.24 270.241C145.079 281.173 189.879 282.727 226.677 261.397C229.656 259.669 232.553 257.811 235.369 255.822Z" fill="white"/>
<g opacity="0.3">
<path opacity="0.3" d="M266.71 35.9402H202.533V120.011H266.71V35.9402Z" stroke="black" stroke-miterlimit="10"/>
<path opacity="0.3" d="M254.934 51.3657H214.31V104.585H254.934V51.3657Z" stroke="black" stroke-miterlimit="10"/>
</g>
<path d="M187.498 26.5186H17.5859V177.382H187.498V26.5186Z" fill="#263238" stroke="#263238" stroke-miterlimit="10"/>
<path d="M184.277 22.8455H14.3647V173.709H184.277V22.8455Z" fill="white" stroke="#263238" stroke-linecap="round" stroke-linejoin="round"/>
<path d="M151.192 83.728H159.641V75.3004H151.192V83.728Z" fill="white" stroke="#263238" stroke-linecap="round" stroke-linejoin="round"/>
<path d="M162.251 83.728H170.7V75.3004H162.251V83.728Z" fill="white" stroke="#263238" stroke-linecap="round" stroke-linejoin="round"/>
<path d="M147.815 80.0239H104.892" stroke="#263238" stroke-linecap="round" stroke-linejoin="round"/>
<path d="M151.192 103.622H159.641V95.1947H151.192V103.622Z" fill="white" stroke="#263238" stroke-linecap="round" stroke-linejoin="round"/>
<path d="M162.251 103.622H170.7V95.1947H162.251V103.622Z" fill="white" stroke="#263238" stroke-linecap="round" stroke-linejoin="round"/>
<path d="M147.815 99.9119H104.892" stroke="#263238" stroke-linecap="round" stroke-linejoin="round"/>
<path d="M151.192 123.517H159.641V115.089H151.192V123.517Z" fill="white" stroke="#263238" stroke-linecap="round" stroke-linejoin="round"/>
<path d="M162.251 123.517H170.7V115.089H162.251V123.517Z" fill="white" stroke="#263238" stroke-linecap="round" stroke-linejoin="round"/>
<path d="M147.815 119.806H104.892" stroke="#263238" stroke-linecap="round" stroke-linejoin="round"/>
<path d="M70.4168 83.728H78.8657V75.3004H70.4168V83.728Z" fill="white" stroke="#263238" stroke-linecap="round" stroke-linejoin="round"/>
<path d="M81.4823 83.728H89.9312V75.3004H81.4823V83.728Z" fill="white" stroke="#263238" stroke-linecap="round" stroke-linejoin="round"/>
<path d="M67.0394 80.0239H24.1157" stroke="#263238" stroke-linecap="round" stroke-linejoin="round"/>
<path d="M70.4168 103.622H78.8657V95.1947H70.4168V103.622Z" fill="white" stroke="#263238" stroke-linecap="round" stroke-linejoin="round"/>
<path d="M81.4823 103.622H89.9312V95.1947H81.4823V103.622Z" fill="white" stroke="#263238" stroke-linecap="round" stroke-linejoin="round"/>
<path d="M67.0394 99.9119H24.1157" stroke="#263238" stroke-linecap="round" stroke-linejoin="round"/>
<path d="M70.4168 123.517H78.8657V115.089H70.4168V123.517Z" fill="white" stroke="#263238" stroke-linecap="round" stroke-linejoin="round"/>
<path d="M81.4823 123.517H89.9312V115.089H81.4823V123.517Z" fill="white" stroke="#263238" stroke-linecap="round" stroke-linejoin="round"/>
<path d="M67.0394 119.806H24.1157" stroke="#263238" stroke-linecap="round" stroke-linejoin="round"/>
<path d="M36.0915 152.491H26.7827V161.777H36.0915V152.491Z" fill="white" stroke="#263238" stroke-linecap="round" stroke-linejoin="round"/>
<path d="M74.0802 152.491H64.7715V161.777H74.0802V152.491Z" fill="white" stroke="#263238" stroke-linecap="round" stroke-linejoin="round"/>
<path d="M113.577 152.491H104.269V161.777H113.577V152.491Z" fill="white" stroke="#263238" stroke-linecap="round" stroke-linejoin="round"/>
<path d="M84.2549 78.1218L85.6942 81.0056L92.6664 74.2871" stroke="#263238" stroke-width="2" stroke-linecap="round" stroke-linejoin="round"/>
<path d="M84.2549 97.7928L85.6942 100.67L92.6664 93.9519" stroke="#263238" stroke-width="2" stroke-linecap="round" stroke-linejoin="round"/>
<path d="M72.2295 118.42L73.675 121.298L80.6473 114.579" stroke="#263238" stroke-width="2" stroke-linecap="round" stroke-linejoin="round"/>
<path d="M164.563 77.8861L166.003 80.7636L172.975 74.0452" stroke="#263238" stroke-width="2" stroke-linecap="round" stroke-linejoin="round"/>
<path d="M152.924 98.0285L154.364 100.906L161.336 94.1938" stroke="#263238" stroke-width="2" stroke-linecap="round" stroke-linejoin="round"/>
<path d="M152.924 118.24L154.364 121.118L161.336 114.406" stroke="#263238" stroke-width="2" stroke-linecap="round" stroke-linejoin="round"/>
<path d="M184.277 22.8455H14.3647V46.4129H184.277V22.8455Z" fill="white" stroke="#263238" stroke-linecap="round" stroke-linejoin="round"/>
<path d="M184.277 22.8455H177.878V173.709H184.277V22.8455Z" fill="#DBDBDB" stroke="#263238" stroke-linecap="round" stroke-linejoin="round"/>
<path d="M184.277 45.5181H177.878V74.6355H184.277V45.5181Z" fill="#949494" stroke="#263238" stroke-linecap="round" stroke-linejoin="round"/>
<path d="M184.277 22.8455H14.3647V34.306H184.277V22.8455Z" fill="#DBDBDB" stroke="#263238" stroke-linecap="round" stroke-linejoin="round"/>
<path d="M89.9869 26.1829H22.9814V30.956H89.9869V26.1829Z" fill="white" stroke="#263238" stroke-linecap="round" stroke-linejoin="round"/>
<path d="M174.246 26.4065H180.127" stroke="#263238" stroke-linecap="round" stroke-linejoin="round"/>
<path d="M174.246 28.8865H180.127" stroke="#263238" stroke-linecap="round" stroke-linejoin="round"/>
<path d="M174.246 31.3726H180.127" stroke="#263238" stroke-linecap="round" stroke-linejoin="round"/>
<path d="M73.7192 55.9468C73.7192 54.4738 74.4981 53.6348 75.9187 53.6348C77.3393 53.6348 78.1119 54.4738 78.1119 55.9468V60.7199C78.1119 62.1867 77.3393 63.0257 75.9187 63.0257C74.4981 63.0257 73.7192 62.1867 73.7192 60.7199V55.9468ZM75.171 60.8131C75.171 61.4657 75.4576 61.7143 75.9187 61.7143C76.3798 61.7143 76.6664 61.4657 76.6664 60.8131V55.8411C76.6664 55.1823 76.3798 54.9337 75.9187 54.9337C75.4576 54.9337 75.171 55.1823 75.171 55.8411V60.8131Z" fill="#263238"/>
<path d="M80.3354 56.2762V62.9201H79.0332V53.7405H80.8464L82.3355 59.2346V53.7405H83.6253V62.9201H82.1361L80.3354 56.2762Z" fill="#263238"/>
<path d="M84.6597 53.7405H86.1114V61.6087H88.5103V62.9201H84.6784L84.6597 53.7405Z" fill="#263238"/>
<path d="M89.1338 53.7405H90.5793V62.9201H89.1338V53.7405Z" fill="#263238"/>
<path d="M92.9095 56.2762V62.9201H91.626V53.7405H93.4391L94.9283 59.2346V53.7405H96.2118V62.9201H94.7414L92.9095 56.2762Z" fill="#263238"/>
<path d="M98.6794 57.6124H100.667V58.9238H98.6794V61.6087H101.172V62.9201H97.2339V53.7405H101.178V55.0519H98.6857L98.6794 57.6124Z" fill="#263238"/>
<path d="M103.695 53.7405H108.163V55.0519H106.649V62.9201H105.203V55.0519H103.695V53.7405Z" fill="#263238"/>
<path d="M110.244 57.6124H112.225V58.9238H110.244V61.6087H112.736V62.9201H108.792V53.7405H112.736V55.0519H110.244V57.6124Z" fill="#263238"/>
<path d="M115.577 53.6348C116.985 53.6348 117.708 54.4738 117.708 55.9468V56.2327H116.343V55.8535C116.343 55.1947 116.082 54.9461 115.621 54.9461C115.16 54.9461 114.898 55.1947 114.898 55.8535C114.898 57.718 117.72 58.0972 117.72 60.7199C117.72 62.1867 116.985 63.0257 115.565 63.0257C114.144 63.0257 113.434 62.1867 113.434 60.7199V60.1543H114.804V60.8131C114.804 61.4657 115.091 61.7019 115.552 61.7019C116.013 61.7019 116.3 61.4657 116.3 60.8131C116.3 58.9486 113.477 58.5695 113.477 55.9468C113.434 54.4738 114.175 53.6348 115.577 53.6348Z" fill="#263238"/>
<path d="M118.132 53.7405H122.599V55.0519H121.091V62.9201H119.665V55.0519H118.151L118.132 53.7405Z" fill="#263238"/>
<path d="M34.029 150.254H32.5647L32.3155 148.588H30.5647L30.3154 150.254H28.9634L30.4338 141.074H32.5523L34.029 150.254ZM30.7267 147.339H32.1224L31.4245 142.696L30.7267 147.339Z" fill="#263238"/>
<path d="M71.4071 143.169V143.492C71.4071 144.437 71.1205 145.039 70.4725 145.356C71.2514 145.655 71.5504 146.351 71.5504 147.32V148.072C71.5504 149.489 70.8028 150.248 69.3572 150.248H67.083V141.074H69.2638C70.7654 141.074 71.4071 141.77 71.4071 143.169ZM68.5285 142.367V144.791H69.0955C69.6314 144.791 69.9616 144.555 69.9616 143.821V143.312C69.9616 142.653 69.7373 142.367 69.2264 142.367H68.5285ZM68.5285 146.096V148.918H69.3572C69.8432 148.918 70.1049 148.694 70.1049 148.01V147.215C70.1049 146.357 69.8308 146.096 69.1765 146.096H68.5285Z" fill="#263238"/>
<path d="M111.277 146.829V148.072C111.277 149.545 110.542 150.384 109.122 150.384C107.701 150.384 106.966 149.545 106.966 148.072V143.299C106.966 141.832 107.701 140.993 109.122 140.993C110.542 140.993 111.277 141.832 111.277 143.299V144.194H109.913V143.169C109.913 142.51 109.62 142.261 109.159 142.261C108.698 142.261 108.411 142.51 108.411 143.169V148.141C108.411 148.799 108.704 149.036 109.159 149.036C109.614 149.036 109.913 148.799 109.913 148.141V146.829H111.277Z" fill="#263238"/>
<path d="M24.77 136.183H135.21" stroke="#263238" stroke-linecap="round" stroke-linejoin="round"/>
<path opacity="0.3" d="M206.166 23.585H218.36V11.4221L206.166 11.4221V23.585Z" stroke="black" stroke-linecap="round" stroke-linejoin="round"/>
<path opacity="0.3" d="M222.135 23.585H234.329V11.4221L222.135 11.4221V23.585Z" stroke="black" stroke-linecap="round" stroke-linejoin="round"/>
<path opacity="0.3" d="M208.789 16.2326L210.87 20.3842L216.988 13.6658" stroke="black" stroke-width="2" stroke-linecap="round" stroke-linejoin="round"/>
<path opacity="0.3" d="M21.5799 202.031H33.7734V189.868H21.5799V202.031Z" stroke="black" stroke-linecap="round" stroke-linejoin="round"/>
<path opacity="0.3" d="M37.5432 202.031H49.7368V189.868H37.5432V202.031Z" stroke="black" stroke-linecap="round" stroke-linejoin="round"/>
<path opacity="0.3" d="M24.1899 194.679L26.271 198.831L32.3896 192.112" stroke="black" stroke-width="2" stroke-linecap="round" stroke-linejoin="round"/>
<path opacity="0.3" d="M79.3445 202.031H91.5381V189.868H79.3445V202.031Z" stroke="black" stroke-linecap="round" stroke-linejoin="round"/>
<path opacity="0.3" d="M95.3147 202.031H107.508V189.868H95.3147V202.031Z" stroke="black" stroke-linecap="round" stroke-linejoin="round"/>
<path opacity="0.3" d="M81.9619 194.679L84.043 198.831L90.1616 192.112" stroke="black" stroke-width="2" stroke-linecap="round" stroke-linejoin="round"/>
<g opacity="0.3">
<path opacity="0.3" d="M98.2558 17.5055C102.523 16.8177 105.422 12.81 104.733 8.55402C104.043 4.29805 100.026 1.40547 95.7588 2.09327C91.4921 2.78106 88.5922 6.78877 89.2817 11.0447C89.9712 15.3007 93.9891 18.1933 98.2558 17.5055Z" stroke="black" stroke-linecap="round" stroke-linejoin="round"/>
<path opacity="0.3" d="M99.1963 12.6216L97.0093 9.79995V5.3562" stroke="black" stroke-linecap="round" stroke-linejoin="round"/>
</g>
<g opacity="0.3">
<path opacity="0.3" d="M243.083 159.526H241.924L241.725 158.209H240.316L240.117 159.526H239.064L240.235 152.249H241.911L243.083 159.526ZM240.466 157.221H241.569L241.014 153.535L240.466 157.221Z" fill="black"/>
<path opacity="0.3" d="M259.402 153.92V154.181C259.446 154.472 259.399 154.768 259.267 155.031C259.135 155.294 258.926 155.509 258.666 155.648C258.959 155.781 259.2 156.005 259.354 156.286C259.508 156.567 259.566 156.891 259.52 157.208V157.83C259.549 158.064 259.523 158.302 259.445 158.525C259.367 158.749 259.239 158.951 259.071 159.117C258.903 159.284 258.698 159.409 258.474 159.484C258.249 159.559 258.01 159.582 257.775 159.551H255.975V152.249H257.707C258.891 152.249 259.402 152.795 259.402 153.92ZM257.121 153.299V155.226H257.57C257.993 155.226 258.255 155.039 258.255 154.455V154.051C258.255 153.529 258.081 153.299 257.669 153.299H257.121ZM257.121 156.263V158.501H257.775C258.162 158.501 258.398 158.327 258.398 157.786V157.165C258.398 156.493 258.174 156.282 257.657 156.282L257.121 156.263Z" fill="black"/>
<path opacity="0.3" d="M275.925 156.842V157.805C275.925 158.973 275.346 159.638 274.218 159.638C273.09 159.638 272.504 158.973 272.504 157.805V154.02C272.504 152.852 273.09 152.187 274.218 152.187C275.346 152.187 275.925 152.852 275.925 154.02V154.728H274.841V153.921C274.841 153.398 274.61 153.206 274.249 153.206C273.888 153.206 273.626 153.398 273.626 153.921V157.855C273.626 158.377 273.856 158.563 274.249 158.563C274.642 158.563 274.841 158.377 274.841 157.855V156.842H275.925Z" fill="black"/>
<path opacity="0.3" d="M245.363 163.498H236.497V172.342H245.363V163.498Z" stroke="black" stroke-miterlimit="10"/>
<path opacity="0.3" d="M261.856 163.498H252.99V172.342H261.856V163.498Z" stroke="black" stroke-miterlimit="10"/>
<path opacity="0.3" d="M278.349 163.498H269.483V172.342H278.349V163.498Z" stroke="black" stroke-miterlimit="10"/>
</g>
<path d="M35.2002 265.953H16.4395" stroke="#263238" stroke-miterlimit="10"/>
<path d="M280 265.953H41.3125" stroke="#263238" stroke-miterlimit="10"/>
<path d="M207.916 265.742L211.929 204.959L214.882 176.059L206.782 167.041L202.72 164.095C202.72 164.095 197 169.067 192.944 170.167C188.888 171.267 184.987 172.379 184.987 172.379C184.987 172.379 171.149 198.333 170.033 210.111C168.918 221.888 167.08 265.518 167.08 265.518L168.619 265.742H207.916Z" fill="#9E9E9E" stroke="#263238" stroke-miterlimit="10"/>
<path d="M188.894 215.63C188.894 215.63 188.202 215.275 189.586 211.72" stroke="#263238" stroke-miterlimit="10"/>
<path d="M187.268 171.758C187.956 176.668 188.336 181.617 188.408 186.574C188.408 186.574 192.564 184.915 195.885 179.116C197.719 176.004 199.299 172.749 200.608 169.384L187.268 171.758Z" fill="#263238" stroke="#263238" stroke-miterlimit="10"/>
<path d="M207.917 265.742L211.524 211.093C207.985 212.895 201.001 215.872 193.293 216.003C184.059 216.158 172.626 209.004 172.626 209.004L170.052 210.011C170.052 210.042 170.052 210.08 170.052 210.111C168.943 221.919 167.099 265.518 167.099 265.518L168.638 265.742H207.917Z" fill="white" stroke="#263238" stroke-miterlimit="10"/>
<path d="M201.91 235.151C201.91 249.228 202.396 262.771 202.533 265.729H229.73C230.104 261.341 232.447 234.032 233.65 224.244C234.964 213.548 243.588 197.625 243.588 191.925C243.588 186.226 245.338 187.127 237.463 182.982C229.587 178.836 212.216 169.887 209.811 168.793C207.406 167.699 204.776 165.064 204.776 165.064C204.776 165.064 205.649 170.521 205.399 185.356C205.15 200.191 201.91 219.234 201.91 235.151Z" fill="white"/>
<g opacity="0.2">
<path opacity="0.2" d="M204.776 165.12C205.101 167.702 205.288 170.299 205.337 172.901V165.648C204.988 165.331 204.776 165.12 204.776 165.12Z" fill="black"/>
<path opacity="0.2" d="M240.541 200.639V202.503C240.753 201.938 240.964 201.391 241.164 200.85V200.627H241.245C241.326 200.421 241.401 200.21 241.475 200.005H241.164V192.267H243.575C243.575 192.174 243.575 192.075 243.575 191.981C243.575 191.888 243.575 191.758 243.575 191.646H241.164V185.021C240.971 184.902 240.765 184.791 240.541 184.666V191.646H233.998V183.877H239.058L237.886 183.255H233.998V181.205L233.375 180.875V183.237H226.833V177.482L226.21 177.159V183.237H219.668V175.487H222.926L221.718 174.865H219.668V173.815L219.045 173.492V174.865H212.502V170.173C212.284 170.061 212.079 169.955 211.879 169.862V174.865H205.399C205.399 175.07 205.399 175.275 205.399 175.487H211.879V183.255H205.455C205.455 183.461 205.455 183.666 205.455 183.877H211.879V191.646H205.337V188.694C205.212 191.727 204.988 194.909 204.714 198.147V200.011H204.552L204.496 200.633H204.714V208.426H203.779L203.717 209.048H204.745V216.817H202.976L202.919 217.438H204.745V225.207H202.315L202.278 225.828H204.77V233.597H202.01C202.01 233.809 202.01 234.014 202.01 234.219H204.776V241.988H202.028C202.028 242.199 202.028 242.404 202.028 242.609H204.77V250.378H202.153C202.153 250.589 202.153 250.794 202.153 250.999H204.758V265.76H205.381V250.981H211.879V265.741H212.502V250.981H219.045V265.741H219.668V250.981H226.21V265.741H226.833V250.981H231.026C231.026 250.776 231.026 250.571 231.082 250.359H226.833V242.609H231.818C231.818 242.404 231.861 242.199 231.88 241.988H226.833V234.219H232.59C232.59 234.007 232.628 233.809 232.653 233.597H226.833V225.828H233.375V226.655L233.65 224.275C233.737 223.579 233.855 222.858 233.998 222.118V217.438H235.164L235.351 216.817H233.998V209.048H238.048C238.129 208.843 238.204 208.631 238.285 208.426H233.998V200.658L240.541 200.639ZM233.998 192.267H240.541V200.036H233.998V192.267ZM211.879 250.359H205.337V242.609H211.879V250.359ZM211.879 241.969H205.337V234.2H211.879V241.969ZM211.879 233.579H205.337V225.828H211.879V233.579ZM211.879 225.188H205.337V217.42H211.879V225.188ZM211.879 216.798H205.337V209.048H211.879V216.798ZM211.879 208.408H205.337V200.639H211.879V208.408ZM211.879 200.017H205.337V192.267H211.879V200.017ZM219.045 250.359H212.502V242.609H219.045V250.359ZM219.045 241.969H212.502V234.2H219.045V241.969ZM219.045 233.579H212.502V225.828H219.045V233.579ZM219.045 225.188H212.502V217.42H219.045V225.188ZM219.045 216.798H212.502V209.048H219.045V216.798ZM219.045 208.408H212.502V200.639H219.045V208.408ZM219.045 200.017H212.502V192.267H219.045V200.017ZM219.045 191.627H212.502V183.858H219.045V191.627ZM219.045 183.237H212.502V175.487H219.045V183.237ZM226.21 250.359H219.668V242.609H226.21V250.359ZM226.21 241.969H219.668V234.2H226.21V241.969ZM226.21 233.579H219.668V225.828H226.21V233.579ZM226.21 225.188H219.668V217.42H226.21V225.188ZM226.21 216.798H219.668V209.048H226.21V216.798ZM226.21 208.408H219.668V200.639H226.21V208.408ZM226.21 200.017H219.668V192.267H226.21V200.017ZM226.21 191.627H219.668V183.858H226.21V191.627ZM233.375 225.188H226.833V217.42H233.375V225.188ZM233.375 216.798H226.833V209.048H233.375V216.798ZM233.375 208.408H226.833V200.639H233.375V208.408ZM233.375 200.017H226.833V192.267H233.375V200.017ZM233.375 191.627H226.833V183.858H233.375V191.627Z" fill="black"/>
</g>
<path d="M201.91 235.151C201.91 249.228 202.396 262.771 202.533 265.729H229.73C230.104 261.341 232.447 234.032 233.65 224.244C234.964 213.548 243.588 197.625 243.588 191.925C243.588 186.226 245.338 187.127 237.463 182.982C229.587 178.836 212.216 169.887 209.811 168.793C207.406 167.699 204.776 165.064 204.776 165.064C204.776 165.064 205.649 170.521 205.399 185.356C205.15 200.191 201.91 219.234 201.91 235.151Z" stroke="#263238" stroke-miterlimit="10"/>
<path d="M204.776 165.12C204.776 165.12 205.649 170.577 205.399 185.412C205.35 189.141 205.094 193.169 204.776 197.32C205.524 196.295 207.935 193.019 208.515 192.833C209.169 192.615 212.671 195.891 215.512 196.326C218.353 196.761 219.45 196.761 216.39 193.486C213.331 190.21 212.029 180.614 210.92 173.411C210.709 171.869 210.369 170.347 209.904 168.862H209.829C207.4 167.743 204.776 165.12 204.776 165.12Z" fill="#263238" stroke="#263238" stroke-miterlimit="10"/>
<path d="M222.727 232.615C224.74 231.702 226.322 230.912 226.322 230.912L227.064 236.618C227.064 236.618 216.172 241.403 210.085 241.77C203.997 242.137 203.443 242.323 203.443 242.323L203.624 236.804" stroke="#263238" stroke-miterlimit="10"/>
<path d="M217.275 234.847C218.39 234.474 219.699 233.945 220.976 233.392" stroke="#263238" stroke-miterlimit="10"/>
<path d="M205.648 236.251C208.833 236.17 212.009 235.882 215.157 235.387" stroke="#263238" stroke-miterlimit="10"/>
<path d="M227.063 236.618L227.431 241.037" stroke="#263238" stroke-miterlimit="10"/>
<path d="M143.584 265.742H174.189C174.258 263.349 175.143 232.939 175.741 217.42C176.364 201.261 187.355 176.748 187.355 176.748C187.355 176.748 188.825 173.293 187.268 171.739C185.71 170.185 181.971 170.807 179.168 172.982C176.364 175.157 150.506 186.344 148.949 187.898C147.391 189.452 147.702 194.735 147.079 200.95C146.456 207.165 136.176 250.049 136.176 250.049C136.176 250.049 133.372 250.67 132.437 251.292C131.502 251.913 131.502 253.778 131.502 253.778C131.502 253.778 132.749 254.088 136.487 255.953C139.926 257.668 143.098 264.629 143.584 265.742Z" fill="white"/>
<path opacity="0.2" d="M183.218 183.858V187.034C183.43 186.462 183.635 185.909 183.841 185.375V183.858H184.426L184.669 183.237H183.841V175.487H187.766C187.81 175.294 187.86 175.083 187.891 174.865H183.841V170.962C183.635 170.993 183.43 171.024 183.218 171.074V174.865H176.675V174.443L176.052 174.76V174.865H175.841L174.594 175.487H176.052V183.256H169.51V177.911L168.887 178.203V183.237H162.345V181.254L161.722 181.546V183.237H158.102L156.781 183.858H161.722V191.646H155.179V184.623L154.556 184.921V191.646H148.014V190.08C147.664 192.343 147.456 194.627 147.391 196.916V200.024H147.167L147.111 200.645H147.391V208.426H145.715L145.584 209.048H147.391V216.817H143.895C143.852 217.022 143.802 217.233 143.758 217.438H147.391V225.207H142.001C141.951 225.418 141.908 225.623 141.858 225.829H147.391V233.597H140.849V230.179L140.226 232.864V233.566H140.064L139.92 234.188H140.226V241.988H138.095L137.945 242.609H140.226V250.378H134.936C134.301 250.547 133.676 250.755 133.066 250.999V254.38C133.253 254.455 133.459 254.542 133.689 254.648V250.999H140.226V259.701C140.444 260.011 140.649 260.322 140.849 260.639V251.006H147.391V265.766H148.014V250.981H154.556V265.742H155.179V250.981H161.722V265.742H162.345V250.981H168.887V265.742H169.51V250.981H174.626V250.359H169.51V242.609H174.887V241.988H169.51V234.219H175.155V233.597H169.51V225.829H175.436C175.436 225.623 175.436 225.412 175.436 225.207H169.51V217.438H175.741C175.741 217.233 175.741 217.028 175.772 216.817H169.51V209.048H176.052V213.641C176.214 212.317 176.42 210.956 176.675 209.576V209.048H176.775C176.813 208.843 176.856 208.638 176.894 208.426H176.675V200.658H178.763C178.819 200.453 178.881 200.247 178.937 200.036H176.675V192.267H181.349C181.423 192.062 181.492 191.851 181.56 191.646H176.675V183.877L183.218 183.858ZM176.675 175.487H183.218V183.256H176.675V175.487ZM147.391 250.378H140.849V242.609H147.391V250.378ZM147.391 241.988H140.849V234.219H147.391V241.988ZM154.556 250.378H148.014V242.609H154.556V250.378ZM154.556 241.988H148.014V234.219H154.556V241.988ZM154.556 233.597H148.014V225.829H154.556V233.597ZM154.556 225.207H148.014V217.438H154.556V225.207ZM154.556 216.817H148.014V209.048H154.556V216.817ZM154.556 208.426H148.014V200.658H154.556V208.426ZM154.556 200.036H148.014V192.267H154.556V200.036ZM161.722 250.378H155.179V242.609H161.722V250.378ZM161.722 241.988H155.179V234.219H161.722V241.988ZM161.722 233.597H155.179V225.829H161.722V233.597ZM161.722 225.207H155.179V217.438H161.722V225.207ZM161.722 216.817H155.179V209.048H161.722V216.817ZM161.722 208.426H155.179V200.658H161.722V208.426ZM161.722 200.036H155.179V192.267H161.722V200.036ZM168.887 250.378H162.345V242.609H168.887V250.378ZM168.887 241.988H162.345V234.219H168.887V241.988ZM168.887 233.597H162.345V225.829H168.887V233.597ZM168.887 225.207H162.345V217.438H168.887V225.207ZM168.887 216.817H162.345V209.048H168.887V216.817ZM168.887 208.426H162.345V200.658H168.887V208.426ZM168.887 200.036H162.345V192.267H168.887V200.036ZM168.887 191.646H162.345V183.877H168.887V191.646ZM176.052 208.426H169.51V200.658H176.052V208.426ZM176.052 200.036H169.51V192.267H176.052V200.036ZM176.052 191.646H169.51V183.877H176.052V191.646Z" fill="black"/>
<path d="M143.584 265.742H174.189C174.258 263.349 175.143 232.939 175.741 217.42C176.364 201.261 187.355 176.748 187.355 176.748C187.355 176.748 188.825 173.293 187.268 171.739C185.71 170.185 181.971 170.807 179.168 172.982C176.364 175.157 150.506 186.344 148.949 187.898C147.391 189.452 147.702 194.735 147.079 200.95C146.456 207.165 136.176 250.049 136.176 250.049C136.176 250.049 133.372 250.67 132.437 251.292C131.502 251.913 131.502 253.778 131.502 253.778C131.502 253.778 132.749 254.088 136.487 255.953C139.926 257.668 143.098 264.629 143.584 265.742Z" stroke="#263238" stroke-miterlimit="10"/>
<path d="M131.502 253.796C131.502 253.796 132.749 254.107 136.487 255.972C140.225 257.836 143.652 265.916 143.652 265.916H149.69C150.07 264.784 150.998 260.67 146.768 255.661C141.783 249.757 136.176 250.067 136.176 250.067C136.176 250.067 133.372 250.689 132.437 251.31C131.502 251.932 131.502 253.796 131.502 253.796Z" fill="#263238" stroke="#263238" stroke-miterlimit="10"/>
<path d="M183.504 170.999C182.165 174.536 178.993 182.535 176.364 186.344C172.937 191.316 166.706 195.356 168.887 197.221C171.068 199.085 177.298 193.181 177.298 193.181C177.298 193.181 178.856 197.532 179.168 198.775C179.185 198.831 179.212 198.884 179.249 198.93C181.498 191.38 184.203 183.973 187.349 176.748C187.349 176.748 188.819 173.293 187.261 171.739C186.458 170.931 185.087 170.72 183.504 170.999Z" fill="#263238" stroke="#263238" stroke-miterlimit="10"/>
<path d="M160.75 200.999C160.928 199.85 161.045 198.693 161.098 197.531" stroke="#263238" stroke-miterlimit="10"/>
<path d="M155.802 266.518C155.802 266.518 156.737 246.63 156.737 235.132C156.737 226.848 158.999 212.914 160.27 204.38" stroke="#263238" stroke-miterlimit="10"/>
<path d="M157.36 230.801C157.36 230.801 162.344 232.354 164.837 232.665L172.314 233.597L171.747 240.639C171.747 240.639 171.379 240.434 165.771 238.569C160.164 236.705 156.737 235.151 156.737 235.151" stroke="#263238" stroke-miterlimit="10"/>
<path d="M171.747 240.62C171.747 240.62 171.379 254.418 171.379 256.282C171.379 258.147 165.771 256.904 165.771 256.904" stroke="#263238" stroke-miterlimit="10"/>
<path d="M176.22 164.436C176.22 164.436 182.096 172.864 187.355 176.748C192.613 180.633 197.1 175.195 200.607 169.365C204.115 163.535 206.452 159.259 208.203 154.206C209.954 149.154 208.203 140.801 201.193 134.194C194.184 127.587 177.809 117.867 173.722 122.92C169.634 127.973 165.734 139.079 168.457 148.569C170.083 154.275 172.712 159.647 176.22 164.436Z" fill="#9E9E9E" stroke="#263238" stroke-miterlimit="10"/>
<path d="M173.747 146.307C175.964 145.644 178.328 145.644 180.545 146.307" stroke="#263238" stroke-width="2" stroke-miterlimit="10" stroke-linecap="round"/>
<path d="M178.775 151.509C178.962 152.516 178.725 153.405 178.246 153.492C177.766 153.579 177.236 152.833 177.049 151.82C176.862 150.807 177.099 149.924 177.579 149.837C178.059 149.75 178.588 150.496 178.775 151.509Z" fill="#263238"/>
<path d="M196.109 151.776C196.29 152.783 196.053 153.641 195.58 153.759C195.106 153.877 194.57 153.1 194.383 152.087C194.196 151.074 194.433 150.191 194.913 150.104C195.393 150.017 195.922 150.763 196.109 151.776Z" fill="#263238"/>
<path d="M183.268 165.481C185.519 166.254 187.9 166.584 190.277 166.45C194.371 166.257 197.879 163.343 197.879 163.343" stroke="#263238" stroke-miterlimit="10"/>
<path d="M174.327 127.215C174.327 127.215 182.981 146.904 184.065 147.444C185.149 147.985 187.312 141.509 187.312 141.509C187.312 141.509 190.284 146.898 193.81 148.52C197.337 150.142 198.408 147.444 198.408 147.444C200.175 148.437 201.891 149.518 203.549 150.683L204.901 151.758L206.253 156.612C206.253 156.612 202.197 169.831 203.549 171.453C204.901 173.075 212.471 170.912 212.471 170.912C212.471 170.912 210.602 173.61 213.013 173.61C215.425 173.61 219.774 174.151 225.992 165.785C232.21 157.42 232.752 143.939 232.752 143.939C232.752 143.939 235.724 147.171 235.999 143.125C236.273 139.079 232.484 132.336 232.484 132.336C232.484 132.336 238.429 138.271 237.893 132.068C237.357 125.866 233.837 118.849 232.484 117.233C231.132 115.617 223.014 111.018 223.014 111.018C223.014 111.018 226.26 110.477 223.83 106.699C221.4 102.92 212.471 101.845 209.225 101.845C205.979 101.845 199.218 102.926 199.218 102.926C199.218 102.926 203.549 94.5607 198.951 94.02C194.352 93.4793 186.24 102.385 186.24 102.385C186.24 102.385 178.14 95.9094 175.691 97.258C173.242 98.6067 174.881 100.496 174.881 100.496C174.881 100.496 164.339 101.304 161.36 105.891C158.382 110.477 161.903 113.175 161.903 113.175C161.903 113.175 142.973 126.121 145.946 130.975C148.918 135.829 154.332 131.248 154.332 131.248C154.332 131.248 146.756 150.67 147.84 152.019C148.924 153.367 154.07 151.478 154.07 151.478C154.07 151.478 153.803 167.121 157.859 168.743C161.915 170.366 162.725 167.395 162.725 167.395C162.725 167.395 164.887 169.551 169.759 169.819C174.632 170.086 176.246 164.424 176.246 164.424C176.246 164.424 170.837 151.745 171.112 141.229C171.386 130.714 174.327 127.215 174.327 127.215Z" fill="#263238" stroke="#263238" stroke-miterlimit="10"/>
<path d="M185.218 149.93C185.218 149.93 183.267 160.036 184.825 162.174C186.383 164.312 191.841 162.174 192.227 161.012" fill="#9E9E9E"/>
<path d="M185.218 149.93C185.218 149.93 183.267 160.036 184.825 162.174C186.383 164.312 191.841 162.174 192.227 161.012" stroke="#263238" stroke-miterlimit="10"/>
<path d="M177.13 156.152C181.38 156.152 184.825 153.628 184.825 150.514C184.825 147.401 181.38 144.877 177.13 144.877C172.88 144.877 169.435 147.401 169.435 150.514C169.435 153.628 172.88 156.152 177.13 156.152Z" stroke="#263238" stroke-miterlimit="10"/>
<path d="M195.635 155.766C199.885 155.766 203.33 153.243 203.33 150.129C203.33 147.016 199.885 144.492 195.635 144.492C191.386 144.492 187.94 147.016 187.94 150.129C187.94 153.243 191.386 155.766 195.635 155.766Z" stroke="#263238" stroke-miterlimit="10"/>
<path d="M185.218 149.931C185.218 149.931 186.775 148.768 187.941 150.129" stroke="#263238" stroke-miterlimit="10"/>
<path d="M121.103 257.469C121.103 257.469 130.885 254.716 133.895 254.219C136.904 253.722 142.929 259.222 143.932 262.224C144.936 265.226 143.652 265.897 143.652 265.897L123.608 265.232L121.103 257.469Z" fill="#9E9E9E" stroke="#263238" stroke-miterlimit="10"/>
<path d="M124.649 256.5C124.649 256.5 132.032 259.259 133.876 260.365C135.721 261.472 135.166 263.678 134.063 264.778C132.733 265.887 131.146 266.648 129.446 266.991C127.726 267.088 126.001 267.088 124.281 266.991C122.069 266.804 120.038 267.177 118.194 267.177C116.349 267.177 110.81 266.624 110.81 266.624L109.147 265.518C109.147 265.518 106.031 266.438 103.614 267.382C101.196 268.327 101.95 266.276 103.794 264.803C105.639 263.33 110.256 259.651 110.997 259.284C111.739 258.917 121.147 256.177 121.147 256.177L124.649 256.5Z" fill="#9E9E9E" stroke="#263238" stroke-miterlimit="10"/>
<path d="M127.415 257.233C127.415 257.233 122.611 255.027 121.321 255.027C120.032 255.027 110.804 258.134 109.514 259.073C108.224 260.011 106.928 268.83 107.851 269.384C108.773 269.937 109.514 268.277 109.72 267.177C109.925 266.077 112.492 260.179 112.492 260.179L110.623 269.57C110.623 269.57 111.365 271.037 112.1 269.75C112.835 268.464 117.452 259.626 117.82 259.073C118.303 258.56 118.865 258.126 119.483 257.786C119.483 257.786 118.561 261.839 117.82 265.704C117.078 269.57 117.639 270.676 118.748 270.857C119.857 271.037 120.406 268.464 120.96 267.177C121.515 265.891 123.913 258.52 123.913 258.52" fill="#9E9E9E"/>
<path d="M127.415 257.233C127.415 257.233 122.611 255.027 121.321 255.027C120.032 255.027 110.804 258.134 109.514 259.073C108.224 260.011 106.928 268.83 107.851 269.384C108.773 269.937 109.514 268.277 109.72 267.177C109.925 266.077 112.492 260.179 112.492 260.179L110.623 269.57C110.623 269.57 111.365 271.037 112.1 269.75C112.835 268.464 117.452 259.626 117.82 259.073C118.303 258.56 118.865 258.126 119.483 257.786C119.483 257.786 118.561 261.839 117.82 265.704C117.078 269.57 117.639 270.676 118.748 270.857C119.857 271.037 120.406 268.464 120.96 267.177C121.515 265.891 123.913 258.52 123.913 258.52" stroke="#263238" stroke-miterlimit="10"/>
<path d="M132.749 260.919C132.749 260.919 127.216 266.624 126.474 267.911C125.733 269.197 125.739 269.384 127.77 269.384C129.802 269.384 136.076 265.331 136.624 264.778C137.172 264.225 136.998 262.572 135.702 261.466C135.289 261.146 134.806 260.929 134.292 260.834C133.778 260.739 133.249 260.768 132.749 260.919Z" fill="#9E9E9E" stroke="#263238" stroke-miterlimit="10"/>
<path d="M167.304 260.285C167.304 260.285 159.921 262.665 158.108 264.014C156.295 265.362 153.678 266.848 154.245 267.301C154.812 267.755 156.631 267.301 157.198 266.848C157.765 266.394 160.376 265.94 160.376 265.94C160.376 265.94 163.441 264.126 165.828 262.659C168.214 261.192 170.027 259.601 167.304 260.285Z" fill="#9E9E9E" stroke="#263238" stroke-miterlimit="10"/>
<path d="M208.059 247.817C208.059 247.817 187.498 251.546 180.058 254.151C172.619 256.755 169.659 258.569 165.939 261.192C162.22 263.815 154.68 268.768 155.802 269.638C156.924 270.509 160.83 267.457 161.491 266.804C162.151 266.152 166.955 264.188 166.955 264.188L170.17 262.547C170.17 262.547 165.329 268.495 163.584 270.005C161.84 271.515 163.017 272.46 164.332 272.025C165.647 271.59 168.126 268.986 168.126 268.986L176.12 263.74C176.12 263.74 172.837 268.327 171.304 269.632C169.771 270.937 173.055 272.037 173.715 270.944C174.376 269.85 177.653 267.016 177.653 267.016C177.653 267.016 183.118 264.182 184.432 263.088C185.747 261.994 189.024 258.942 189.024 258.942L213.524 260.906C213.524 260.906 215.056 260.036 214.184 255.014C213.312 249.993 208.059 247.817 208.059 247.817Z" fill="#9E9E9E" stroke="#263238" stroke-miterlimit="10"/>
<path d="M224.683 209.197L236.715 238.88L217.244 245.642L222.714 261.571C222.714 261.571 236.696 261.609 247.637 260.95C258.578 260.291 266.255 253.709 264.504 245.86C262.753 238.01 256.192 226.655 250.94 213.125C245.687 199.595 247.313 191.528 244.908 187.382C242.503 183.237 235.718 182.143 235.718 182.143L231.979 181.521" fill="white"/>
<path opacity="0.2" d="M262.66 254.114V251.006H264.286C264.354 250.801 264.411 250.596 264.46 250.384H262.66V242.609H263.594C263.526 242.411 263.451 242.199 263.382 241.988H262.66V240.092C262.46 239.577 262.255 239.048 262.037 238.52V241.988H255.494V234.219H260.192C260.099 234.014 260.012 233.809 259.918 233.598H255.494V225.829H256.367C256.267 225.624 256.174 225.419 256.08 225.207H255.494V223.908C255.289 223.449 255.077 222.989 254.871 222.522V225.207H248.329V217.439H252.691C252.603 217.233 252.516 217.028 252.435 216.817H248.329V209.048H249.494C249.426 208.843 249.363 208.632 249.301 208.427H248.329V204.884C248.092 203.902 247.887 202.964 247.706 202.063V208.427H241.164V200.658H247.444L247.332 200.036H241.164V192.268H246.279L246.186 191.646H241.164V184.027C240.617 183.734 240.056 183.471 239.481 183.237H233.998V181.845L233.375 181.733V183.237H231.537L231.369 183.859H233.375V191.646H229.325L229.163 192.268H233.381V200.036H227.107L226.939 200.658H233.375V208.427H226.833V201.056L226.21 203.411V208.383H224.889L224.727 209.005H226.21V212.939L226.833 214.474V209.048H233.375V216.817H227.768L228.017 217.439H233.375V225.207H231.194L231.45 225.829H233.406V230.658L234.029 232.193V225.829H240.541V233.598H234.565L234.821 234.219H240.541V241.988H233.998V239.838L233.375 240.055V241.988H227.805L226.01 242.609H226.21V250.378H219.668V244.785L219.044 245.002V250.347H218.864L219.668 252.684V250.969H226.21V261.534H226.833V250.969H233.375V261.453H233.998V250.981H240.541V261.255H241.164V250.981H247.706V260.925L248.329 260.875V250.981H254.871V259.508L255.494 259.272V250.981H262.037V254.884C262.255 254.629 262.467 254.375 262.66 254.114ZM233.375 250.384H226.833V242.609H233.375V250.384ZM240.541 250.384H233.998V242.609H240.541V250.384ZM240.541 225.214H233.998V217.445H240.541V225.214ZM240.541 216.823H233.998V209.048H240.541V216.823ZM240.541 208.433H233.998V200.664H240.541V208.433ZM240.541 200.043H233.998V192.268H240.541V200.043ZM240.541 191.652H233.998V183.884H240.541V191.652ZM247.706 250.384H241.164V242.609H247.706V250.384ZM247.706 241.994H241.164V234.225H247.706V241.994ZM247.706 233.604H241.164V225.829H247.706V233.604ZM247.706 225.214H241.164V217.445H247.706V225.214ZM247.706 216.823H241.164V209.048H247.706V216.823ZM254.871 250.384H248.329V242.609H254.871V250.384ZM254.871 241.994H248.329V234.225H254.871V241.994ZM254.871 233.604H248.329V225.829H254.871V233.604ZM255.494 250.384V242.609H262.037V250.378L255.494 250.384Z" fill="#263238"/>
<path d="M224.683 209.197L236.715 238.88L217.244 245.642L222.714 261.571C222.714 261.571 236.696 261.609 247.637 260.95C258.578 260.291 266.255 253.709 264.504 245.86C262.753 238.01 256.192 226.655 250.94 213.125C245.687 199.595 247.313 191.528 244.908 187.382C242.503 183.237 235.718 182.143 235.718 182.143L231.979 181.521" stroke="#263238" stroke-miterlimit="10"/>
<path d="M248.429 235.86C244.459 236.593 240.545 237.6 236.715 238.874C236.715 238.874 245.027 233.417 249.619 232.982" stroke="#263238" stroke-miterlimit="10"/>
<path d="M253.999 235.599C253.137 235.475 252.264 235.446 251.395 235.511" stroke="#263238" stroke-miterlimit="10"/>
<path d="M222.932 243.231C222.932 243.231 227.356 247.451 228.665 250.72C229.973 253.989 229.493 262.87 228.621 263.74C227.749 264.61 211.468 264.505 208.789 261.167C208.091 260.297 212.87 258.29 210.465 253.485C208.06 248.681 206.963 248.252 206.963 248.252C206.963 248.252 204.994 247.158 208.714 244.759C212.434 242.36 220.964 240.62 222.932 243.231Z" fill="#263238" stroke="#263238" stroke-miterlimit="10"/>
<path d="M261.72 276.879H245.57L243.551 245.033H263.738L261.72 276.879Z" fill="#263238" stroke="#263238" stroke-linejoin="round"/>
<path d="M264.636 245.083H242.66V249.719H264.636V245.083Z" fill="white" stroke="#263238" stroke-linejoin="round"/>
<path d="M264.636 245.257H242.66L244.853 242.51H262.436L264.636 245.257Z" fill="white" stroke="#263238" stroke-linejoin="round"/>
<path d="M262.311 267.538L263.115 254.853H244.173L244.977 267.538H262.311Z" fill="white" stroke="#263238" stroke-linejoin="round"/>
<path d="M168.65 278.998L188.551 273.752V276.437L168.65 282V278.998Z" fill="#263238" stroke="#263238" stroke-linejoin="round"/>
<path d="M188.551 273.752H84.504L64.3911 278.998H168.65L188.551 273.752Z" fill="white" stroke="#263238" stroke-linejoin="round"/>
<path d="M168.65 219.023H64.3911V282H168.65V219.023Z" fill="white" stroke="#263238" stroke-linejoin="round"/>
<path d="M168.65 228.134C145.97 229.209 132.462 250.061 112.393 264.032C94.0993 276.773 71.5066 278.948 64.416 279.29V282H168.65V228.134Z" fill="#263238" stroke="#263238" stroke-linejoin="round"/>
<path d="M168.65 278.998H64.3911V282H168.65V278.998Z" fill="white" stroke="#263238" stroke-miterlimit="10"/>
<path d="M33.5239 258.221C33.5239 258.221 24.8383 244.362 31.8105 236.562C38.7827 228.762 50.0479 232.516 52.3719 239.738C54.696 246.96 49.7675 259.092 49.7675 259.092L33.5239 258.221Z" fill="white" stroke="#263238" stroke-linecap="round" stroke-linejoin="round"/>
<path d="M33.8108 242.336C32.3652 242.336 26.8635 240.316 25.1251 237.718C23.3867 235.12 23.0876 229.34 28.0224 229.34C32.9572 229.34 34.6831 238.004 34.6831 238.004L34.9697 241.18" fill="white"/>
<path d="M33.8108 242.336C32.3652 242.336 26.8635 240.316 25.1251 237.718C23.3867 235.12 23.0876 229.34 28.0224 229.34C32.9572 229.34 34.6831 238.004 34.6831 238.004L34.9697 241.18" stroke="#263238" stroke-linecap="round" stroke-linejoin="round"/>
<path d="M38.2657 236.941C36.9697 236.32 32.9509 232.044 32.5583 228.943C32.1658 225.841 34.4961 220.546 38.9012 222.728C43.3064 224.909 40.9823 233.448 40.9823 233.448L39.8171 236.419" fill="white"/>
<path d="M38.2657 236.941C36.9697 236.32 32.9509 232.044 32.5583 228.943C32.1658 225.841 34.4961 220.546 38.9012 222.728C43.3064 224.909 40.9823 233.448 40.9823 233.448L39.8171 236.419" stroke="#263238" stroke-linecap="round" stroke-linejoin="round"/>
<path d="M43.5246 238.396C42.8018 237.153 41.8298 231.379 43.2255 228.582C44.6212 225.785 49.5061 222.665 51.9485 226.929C54.391 231.192 47.7178 236.997 47.7178 236.997L45.0947 238.824" fill="white"/>
<path d="M43.5246 238.396C42.8018 237.153 41.8298 231.379 43.2255 228.582C44.6212 225.785 49.5061 222.665 51.9485 226.929C54.391 231.192 47.7178 236.997 47.7178 236.997L45.0947 238.824" stroke="#263238" stroke-linecap="round" stroke-linejoin="round"/>
<path d="M45.2502 248.75C45.0134 247.321 46.0976 241.578 48.3656 239.427C50.6336 237.277 56.3098 236.04 57.126 240.882C57.9422 245.723 49.6491 248.874 49.6491 248.874L46.5337 249.682" fill="white"/>
<path d="M45.2502 248.75C45.0134 247.321 46.0976 241.578 48.3656 239.427C50.6336 237.277 56.3098 236.04 57.126 240.882C57.9422 245.723 49.6491 248.874 49.6491 248.874L46.5337 249.682" stroke="#263238" stroke-linecap="round" stroke-linejoin="round"/>
<path d="M25.7603 234.232L26.7385 235.767" stroke="white" stroke-linecap="round" stroke-linejoin="round"/>
<path d="M28.5581 237.998L30.0909 239.247" stroke="white" stroke-linecap="round" stroke-linejoin="round"/>
<path d="M26.8818 231.304L28.4146 233.535" stroke="white" stroke-linecap="round" stroke-linejoin="round"/>
<path d="M30.5146 235.35L32.1907 238.414" stroke="white" stroke-linecap="round" stroke-linejoin="round"/>
<path d="M34.4214 227.961L34.9821 229.633" stroke="white" stroke-linecap="round" stroke-linejoin="round"/>
<path d="M36.3779 232.696L37.3562 234.095" stroke="white" stroke-linecap="round" stroke-linejoin="round"/>
<path d="M35.9604 224.617L37.2191 227.401" stroke="white" stroke-linecap="round" stroke-linejoin="round"/>
<path d="M31.0693 244.269L31.493 246.773" stroke="white" stroke-linecap="round" stroke-linejoin="round"/>
<path d="M32.3281 249.141L32.8889 251.236" stroke="white" stroke-linecap="round" stroke-linejoin="round"/>
<path d="M33.7231 244.406L34.2839 247.19" stroke="white" stroke-linecap="round" stroke-linejoin="round"/>
<path d="M35.543 249.141L35.9604 251.236" stroke="white" stroke-linecap="round" stroke-linejoin="round"/>
<path d="M36.521 240.782L37.3559 244.686" stroke="white" stroke-linecap="round" stroke-linejoin="round"/>
<path d="M38.4775 248.445L38.6146 250.26" stroke="white" stroke-linecap="round" stroke-linejoin="round"/>
<path d="M40.0107 239.527L40.7086 243.15" stroke="white" stroke-linecap="round" stroke-linejoin="round"/>
<path d="M40.708 246.916L40.9884 250.676" stroke="white" stroke-linecap="round" stroke-linejoin="round"/>
<path d="M44.0664 240.919V243.989" stroke="white" stroke-linecap="round" stroke-linejoin="round"/>
<path d="M43.6426 247.892L43.7859 250.26" stroke="white" stroke-linecap="round" stroke-linejoin="round"/>
<path d="M47.5558 226.425L46.8579 228.103" stroke="white" stroke-linecap="round" stroke-linejoin="round"/>
<path d="M46.5772 230.049L45.8794 232.423" stroke="white" stroke-linecap="round" stroke-linejoin="round"/>
<path d="M50.6275 229.633L49.5122 231.864" stroke="white" stroke-linecap="round" stroke-linejoin="round"/>
<path d="M47.138 234.375L45.8794 235.767" stroke="white" stroke-linecap="round" stroke-linejoin="round"/>
<path d="M44.4839 229.496L44.0664 231.304" stroke="white" stroke-linecap="round" stroke-linejoin="round"/>
<path d="M50.6275 239.527L49.0947 242.038" stroke="white" stroke-linecap="round" stroke-linejoin="round"/>
<path d="M48.1165 243.566L47.2754 245.798" stroke="white" stroke-linecap="round" stroke-linejoin="round"/>
<path d="M49.3755 246.916L51.8865 245.518" stroke="white" stroke-linecap="round" stroke-linejoin="round"/>
<path d="M53.4251 239.527L52.1665 241.621" stroke="white" stroke-linecap="round" stroke-linejoin="round"/>
<path d="M54.6839 241.895L53.0078 243.15" stroke="white" stroke-linecap="round" stroke-linejoin="round"/>
<path d="M52.8766 253.386H29.125V277.078H52.8766V253.386Z" fill="#263238" stroke="#263238" stroke-linecap="round" stroke-linejoin="round"/>
</svg>
