<svg width="390" height="390" viewBox="0 0 390 390" fill="none" xmlns="http://www.w3.org/2000/svg">
<path d="M23.0098 354.455H366.99" stroke="#263238" stroke-linecap="round" stroke-linejoin="round"/>
<path d="M329.897 126.533H260.228V284.577H329.897V126.533Z" stroke="#263238" stroke-width="0.75" stroke-linecap="round" stroke-linejoin="round"/>
<path d="M323.782 132.648H266.343V278.461H323.782V132.648Z" stroke="#263238" stroke-width="0.75" stroke-linecap="round" stroke-linejoin="round"/>
<path d="M272.872 197.029L271.304 199.751" stroke="#263238" stroke-width="0.75" stroke-linecap="round" stroke-linejoin="round"/>
<path d="M289.361 168.481L274.681 193.909" stroke="#263238" stroke-width="0.75" stroke-linecap="round" stroke-linejoin="round"/>
<path d="M302.831 145.144L291.708 164.41" stroke="#263238" stroke-width="0.75" stroke-linecap="round" stroke-linejoin="round"/>
<path d="M305.187 141.072L304.001 143.116" stroke="#263238" stroke-width="0.75" stroke-linecap="round" stroke-linejoin="round"/>
<path d="M277.544 266.332L276.21 268.641" stroke="#263238" stroke-width="0.75" stroke-linecap="round" stroke-linejoin="round"/>
<path d="M280.633 260.982L279.221 263.439" stroke="#263238" stroke-width="0.75" stroke-linecap="round" stroke-linejoin="round"/>
<path d="M299.47 228.354L283.659 255.748" stroke="#263238" stroke-width="0.75" stroke-linecap="round" stroke-linejoin="round"/>
<path d="M313.47 204.104L301.092 225.554" stroke="#263238" stroke-width="0.75" stroke-linecap="round" stroke-linejoin="round"/>
<path d="M316.536 198.8L315.312 200.922" stroke="#263238" stroke-width="0.75" stroke-linecap="round" stroke-linejoin="round"/>
<path d="M295.063 248.884L283.659 268.641" stroke="#263238" stroke-width="0.75" stroke-linecap="round" stroke-linejoin="round"/>
<path d="M309.649 223.62L296.724 246.006" stroke="#263238" stroke-width="0.75" stroke-linecap="round" stroke-linejoin="round"/>
<path d="M312.683 218.37L311.154 221.014" stroke="#263238" stroke-width="0.75" stroke-linecap="round" stroke-linejoin="round"/>
<path d="M271.304 217.481L269.572 220.484" stroke="#263238" stroke-width="0.75" stroke-linecap="round" stroke-linejoin="round"/>
<path d="M286.459 191.234L272.692 215.079" stroke="#263238" stroke-width="0.75" stroke-linecap="round" stroke-linejoin="round"/>
<path d="M305.374 158.474L288.082 188.418" stroke="#263238" stroke-width="0.75" stroke-linecap="round" stroke-linejoin="round"/>
<path d="M316.739 138.787L306.708 156.165" stroke="#263238" stroke-width="0.75" stroke-linecap="round" stroke-linejoin="round"/>
<path d="M105.772 126.533H36.1025V284.577H105.772V126.533Z" stroke="#263238" stroke-width="0.75" stroke-linecap="round" stroke-linejoin="round"/>
<path d="M99.657 132.648H42.2178V278.461H99.657V132.648Z" stroke="#263238" stroke-width="0.75" stroke-linecap="round" stroke-linejoin="round"/>
<path d="M48.7465 197.029L47.1787 199.751" stroke="#263238" stroke-width="0.75" stroke-linecap="round" stroke-linejoin="round"/>
<path d="M65.2279 168.481L50.5483 193.909" stroke="#263238" stroke-width="0.75" stroke-linecap="round" stroke-linejoin="round"/>
<path d="M78.7063 145.144L67.5835 164.41" stroke="#263238" stroke-width="0.75" stroke-linecap="round" stroke-linejoin="round"/>
<path d="M81.0538 141.072L79.876 143.116" stroke="#263238" stroke-width="0.75" stroke-linecap="round" stroke-linejoin="round"/>
<path d="M53.4188 266.332L52.085 268.641" stroke="#263238" stroke-width="0.75" stroke-linecap="round" stroke-linejoin="round"/>
<path d="M56.5075 260.982L55.0879 263.439" stroke="#263238" stroke-width="0.75" stroke-linecap="round" stroke-linejoin="round"/>
<path d="M75.3443 228.354L59.5259 255.748" stroke="#263238" stroke-width="0.75" stroke-linecap="round" stroke-linejoin="round"/>
<path d="M89.3454 204.104L76.959 225.554" stroke="#263238" stroke-width="0.75" stroke-linecap="round" stroke-linejoin="round"/>
<path d="M92.4106 198.8L91.1782 200.922" stroke="#263238" stroke-width="0.75" stroke-linecap="round" stroke-linejoin="round"/>
<path d="M70.9373 248.884L59.5259 268.641" stroke="#263238" stroke-width="0.75" stroke-linecap="round" stroke-linejoin="round"/>
<path d="M85.5232 223.62L72.5986 246.006" stroke="#263238" stroke-width="0.75" stroke-linecap="round" stroke-linejoin="round"/>
<path d="M88.5498 218.37L87.0288 221.014" stroke="#263238" stroke-width="0.75" stroke-linecap="round" stroke-linejoin="round"/>
<path d="M47.1784 217.481L45.439 220.484" stroke="#263238" stroke-width="0.75" stroke-linecap="round" stroke-linejoin="round"/>
<path d="M62.3261 191.234L48.5591 215.079" stroke="#263238" stroke-width="0.75" stroke-linecap="round" stroke-linejoin="round"/>
<path d="M81.2413 158.474L63.9565 188.418" stroke="#263238" stroke-width="0.75" stroke-linecap="round" stroke-linejoin="round"/>
<path d="M92.6055 138.787L82.5747 156.165" stroke="#263238" stroke-width="0.75" stroke-linecap="round" stroke-linejoin="round"/>
<path d="M130.498 288.664H124.531V308.952H130.498V288.664Z" fill="white"/>
<path opacity="0.2" d="M130.498 288.664H124.531V308.952H130.498V288.664Z" fill="black"/>
<path d="M136.473 290.895H130.506V308.952H136.473V290.895Z" fill="white"/>
<path d="M143.922 290.895H139.71V308.952H143.922V290.895Z" fill="white"/>
<path opacity="0.9" d="M143.922 290.895H139.71V308.952H143.922V290.895Z" fill="white"/>
<path d="M139.718 288.991H135.896V308.959H139.718V288.991Z" fill="white"/>
<path opacity="0.1" d="M139.718 288.991H135.896V308.959H139.718V288.991Z" fill="black"/>
<path d="M149.897 288.664H143.93V308.952H149.897V288.664Z" fill="white"/>
<path d="M155.863 290.895H149.896V308.952H155.863V290.895Z" fill="white"/>
<path opacity="0.2" d="M155.863 290.895H149.896V308.952H155.863V290.895Z" fill="#263238"/>
<path d="M163.32 290.895H159.108V308.952H163.32V290.895Z" fill="white"/>
<path opacity="0.8" d="M163.32 290.895H159.108V308.952H163.32V290.895Z" fill="white"/>
<path d="M159.109 288.991H155.287V308.959H159.109V288.991Z" fill="white"/>
<path opacity="0.1" d="M159.109 288.991H155.287V308.959H159.109V288.991Z" fill="black"/>
<path d="M191.79 308.959H197.757V288.672H191.79V308.959Z" fill="white"/>
<path opacity="0.2" d="M191.79 308.959H197.757V288.672H191.79V308.959Z" fill="black"/>
<path d="M185.816 308.959H191.783V290.902H185.816V308.959Z" fill="white"/>
<path d="M178.367 308.959H182.579V290.902H178.367V308.959Z" fill="white"/>
<path opacity="0.9" d="M178.367 308.959H182.579V290.902H178.367V308.959Z" fill="white"/>
<path d="M182.571 308.952H186.393V288.984H182.571V308.952Z" fill="white"/>
<path opacity="0.1" d="M182.571 308.952H186.393V288.984H182.571V308.952Z" fill="black"/>
<path d="M172.392 308.959H178.359V288.672H172.392V308.959Z" fill="white"/>
<path d="M166.425 308.959H172.392V290.902H166.425V308.959Z" fill="white"/>
<path opacity="0.2" d="M166.425 308.959H172.392V290.902H166.425V308.959Z" fill="#263238"/>
<path d="M163.18 308.952H167.002V288.984H163.18V308.952Z" fill="white"/>
<path opacity="0.1" d="M163.18 308.952H167.002V288.984H163.18V308.952Z" fill="black"/>
<path d="M226.188 308.959H232.155V288.672H226.188V308.959Z" fill="white"/>
<path opacity="0.2" d="M226.188 308.959H232.155V288.672H226.188V308.959Z" fill="black"/>
<path d="M220.214 308.959H226.181V290.902H220.214V308.959Z" fill="white"/>
<path d="M212.765 308.959H216.977V290.902H212.765V308.959Z" fill="white"/>
<path opacity="0.9" d="M212.765 308.959H216.977V290.902H212.765V308.959Z" fill="white"/>
<path d="M216.969 308.952H220.791V288.984H216.969V308.952Z" fill="white"/>
<path opacity="0.1" d="M216.969 308.952H220.791V288.984H216.969V308.952Z" fill="black"/>
<path d="M206.79 308.959H212.757V288.672H206.79V308.959Z" fill="white"/>
<path d="M236.04 308.243L239.959 307.192L234.684 287.513L230.765 288.563L236.04 308.243Z" fill="white"/>
<path d="M200.823 308.959H206.79V290.902H200.823V308.959Z" fill="white"/>
<path opacity="0.2" d="M200.823 308.959H206.79V290.902H200.823V308.959Z" fill="#263238"/>
<path d="M197.578 308.952H201.4V288.984H197.578V308.952Z" fill="white"/>
<path opacity="0.1" d="M197.578 308.952H201.4V288.984H197.578V308.952Z" fill="black"/>
<path d="M238.038 335.313L242.046 334.239L236.795 314.642L232.787 315.716L238.038 335.313Z" fill="white"/>
<path opacity="0.2" d="M238.038 335.313L242.046 334.239L236.795 314.642L232.787 315.716L238.038 335.313Z" fill="black"/>
<path d="M227.741 335.113H233.708V317.056H227.741V335.113Z" fill="white"/>
<path d="M220.276 335.113H224.488V317.056H220.276V335.113Z" fill="white"/>
<path opacity="0.9" d="M220.276 335.113H224.488V317.056H220.276V335.113Z" fill="white"/>
<path d="M224.488 335.121H228.31V315.153H224.488V335.121Z" fill="white"/>
<path opacity="0.1" d="M224.488 335.121H228.31V315.153H224.488V335.121Z" fill="black"/>
<path d="M214.317 335.121H220.284V314.833H214.317V335.121Z" fill="white"/>
<path d="M208.342 335.113H214.309V317.056H208.342V335.113Z" fill="white"/>
<path opacity="0.2" d="M208.342 335.113H214.309V317.056H208.342V335.113Z" fill="#263238"/>
<path d="M200.893 335.113H205.105V317.056H200.893V335.113Z" fill="white"/>
<path opacity="0.8" d="M200.893 335.113H205.105V317.056H200.893V335.113Z" fill="white"/>
<path d="M205.097 335.121H208.919V315.153H205.097V335.121Z" fill="white"/>
<path opacity="0.1" d="M205.097 335.121H208.919V315.153H205.097V335.121Z" fill="black"/>
<path d="M172.423 314.833H166.456V335.121H172.423V314.833Z" fill="white"/>
<path opacity="0.2" d="M172.423 314.833H166.456V335.121H172.423V314.833Z" fill="black"/>
<path d="M178.39 317.063H172.423V335.12H178.39V317.063Z" fill="white"/>
<path d="M185.847 317.063H181.635V335.12H185.847V317.063Z" fill="white"/>
<path opacity="0.9" d="M185.847 317.063H181.635V335.12H185.847V317.063Z" fill="white"/>
<path d="M181.635 315.153H177.813V335.121H181.635V315.153Z" fill="white"/>
<path opacity="0.1" d="M181.635 315.153H177.813V335.121H181.635V315.153Z" fill="black"/>
<path d="M191.814 314.833H185.847V335.121H191.814V314.833Z" fill="white"/>
<path d="M197.781 317.063H191.814V335.12H197.781V317.063Z" fill="white"/>
<path opacity="0.2" d="M197.781 317.063H191.814V335.12H197.781V317.063Z" fill="#263238"/>
<path d="M201.026 315.153H197.204V335.121H201.026V315.153Z" fill="white"/>
<path opacity="0.1" d="M201.026 315.153H197.204V335.121H201.026V315.153Z" fill="black"/>
<path d="M138.025 314.833H132.058V335.121H138.025V314.833Z" fill="white"/>
<path opacity="0.2" d="M138.025 314.833H132.058V335.121H138.025V314.833Z" fill="black"/>
<path d="M143.992 317.063H138.025V335.12H143.992V317.063Z" fill="white"/>
<path d="M151.449 317.063H147.237V335.12H151.449V317.063Z" fill="white"/>
<path opacity="0.9" d="M151.449 317.063H147.237V335.12H151.449V317.063Z" fill="white"/>
<path d="M147.237 315.153H143.415V335.121H147.237V315.153Z" fill="white"/>
<path opacity="0.1" d="M147.237 315.153H143.415V335.121H147.237V315.153Z" fill="black"/>
<path d="M157.416 314.833H151.449V335.121H157.416V314.833Z" fill="white"/>
<path d="M132.046 315.7L128.143 314.654L122.892 334.251L126.795 335.296L132.046 315.7Z" fill="white"/>
<path d="M163.383 317.063H157.416V335.12H163.383V317.063Z" fill="white"/>
<path opacity="0.2" d="M163.383 317.063H157.416V335.12H163.383V317.063Z" fill="#263238"/>
<path d="M166.628 315.153H162.806V335.121H166.628V315.153Z" fill="white"/>
<path opacity="0.1" d="M166.628 315.153H162.806V335.121H166.628V315.153Z" fill="black"/>
<path d="M129.118 350.455H123.151L122.332 338.911H129.937L129.118 350.455Z" fill="#263238"/>
<path d="M242.849 350.455H236.882L236.063 338.911H243.668L242.849 350.455Z" fill="#263238"/>
<path d="M249.425 281.004H116.575C115.816 281.004 115.088 281.306 114.551 281.843C114.014 282.379 113.712 283.108 113.712 283.867V338.139C113.712 338.898 114.014 339.626 114.551 340.163C115.088 340.7 115.816 341.002 116.575 341.002H249.425C250.184 341.002 250.912 340.7 251.449 340.163C251.986 339.626 252.287 338.898 252.287 338.139V283.867C252.287 283.108 251.986 282.379 251.449 281.843C250.912 281.306 250.184 281.004 249.425 281.004ZM246.554 286.737V308.959H119.414V286.737H246.554ZM119.445 335.3V313.054H246.585V335.3H119.445Z" fill="white" stroke="#263238" stroke-width="0.75" stroke-linecap="round" stroke-linejoin="round"/>
<path d="M229.784 167.007H137.861C134.906 167.007 132.51 169.403 132.51 172.358V192.092C132.51 195.047 134.906 197.443 137.861 197.443H229.784C232.739 197.443 235.135 195.047 235.135 192.092V172.358C235.135 169.403 232.739 167.007 229.784 167.007Z" fill="#263238" stroke="#263238" stroke-linecap="round" stroke-linejoin="round"/>
<path d="M228.146 165.369H136.223C133.268 165.369 130.873 167.765 130.873 170.72V190.454C130.873 193.409 133.268 195.805 136.223 195.805H228.146C231.102 195.805 233.497 193.409 233.497 190.454V170.72C233.497 167.765 231.102 165.369 228.146 165.369Z" fill="white" stroke="#263238" stroke-linecap="round" stroke-linejoin="round"/>
<path d="M228.146 165.369H136.223C133.268 165.369 130.873 167.765 130.873 170.72V190.454C130.873 193.409 133.268 195.805 136.223 195.805H228.146C231.102 195.805 233.497 193.409 233.497 190.454V170.72C233.497 167.765 231.102 165.369 228.146 165.369Z" stroke="#263238" stroke-linecap="round" stroke-linejoin="round"/>
<path d="M153.594 189.573H140.077V172.475H149.086L153.594 176.984V189.573Z" fill="white"/>
<path opacity="0.5" d="M153.594 189.573H140.077V172.475H149.086L153.594 176.984V189.573Z" fill="white"/>
<path d="M153.594 189.573H140.077V172.475H149.086L153.594 176.983V189.573Z" stroke="#263238" stroke-linecap="round" stroke-linejoin="round"/>
<path d="M149.085 176.984H153.594L149.085 172.475V176.984Z" fill="white" stroke="#263238" stroke-linecap="round" stroke-linejoin="round"/>
<path d="M143.08 181.546C142.867 181.526 142.67 181.427 142.526 181.269C142.383 181.112 142.303 180.906 142.303 180.692C142.303 180.479 142.383 180.273 142.526 180.115C142.67 179.957 142.867 179.859 143.08 179.838H150.591C150.803 179.859 151.001 179.957 151.144 180.115C151.288 180.273 151.367 180.479 151.367 180.692C151.367 180.906 151.288 181.112 151.144 181.269C151.001 181.427 150.803 181.526 150.591 181.546H143.08Z" fill="#858585" stroke="#263238" stroke-width="0.75" stroke-linecap="round" stroke-linejoin="round"/>
<path d="M143.08 185.142C142.867 185.122 142.67 185.023 142.526 184.865C142.383 184.707 142.303 184.502 142.303 184.288C142.303 184.075 142.383 183.869 142.526 183.711C142.67 183.553 142.867 183.454 143.08 183.434H148.953C149.165 183.454 149.363 183.553 149.506 183.711C149.65 183.869 149.729 184.075 149.729 184.288C149.729 184.502 149.65 184.707 149.506 184.865C149.363 185.023 149.165 185.122 148.953 185.142H143.08Z" fill="#858585" stroke="#263238" stroke-width="0.75" stroke-linecap="round" stroke-linejoin="round"/>
<path d="M187.766 182.529H162.611C162.162 182.559 161.742 182.758 161.435 183.086C161.128 183.414 160.958 183.847 160.958 184.296C160.958 184.745 161.128 185.178 161.435 185.506C161.742 185.834 162.162 186.033 162.611 186.063H187.766V182.529Z" fill="white"/>
<path d="M162.611 186.063C162.162 186.033 161.742 185.834 161.435 185.506C161.128 185.178 160.958 184.745 160.958 184.296C160.958 183.847 161.128 183.414 161.435 183.086C161.742 182.758 162.162 182.559 162.611 182.529H222.515C222.757 182.513 222.999 182.547 223.227 182.628C223.456 182.71 223.665 182.837 223.842 183.003C224.019 183.169 224.16 183.369 224.256 183.591C224.353 183.814 224.403 184.054 224.403 184.296C224.403 184.538 224.353 184.778 224.256 185.001C224.16 185.223 224.019 185.423 223.842 185.589C223.665 185.754 223.456 185.882 223.227 185.964C222.999 186.045 222.757 186.079 222.515 186.063H162.611Z" stroke="#263238" stroke-linecap="round" stroke-linejoin="round"/>
<path d="M188.335 177.74H186.439V176.843L188.241 172.576H189.325V176.843H189.793V177.74H189.325V178.887H188.335V177.74ZM188.335 176.843V174.386L187.36 176.851L188.335 176.843Z" fill="#263238"/>
<path d="M190.254 177.397V176.905H191.19V177.467C191.19 177.919 191.385 178.083 191.705 178.083C192.025 178.083 192.22 177.919 192.22 177.467V176.055C192.22 175.603 192.017 175.431 191.705 175.431C191.393 175.431 191.19 175.603 191.19 176.055V176.11H190.254L190.433 172.584H193.046V173.489H191.315L191.237 174.994C191.324 174.846 191.45 174.725 191.601 174.644C191.753 174.563 191.923 174.525 192.095 174.534C192.82 174.534 193.195 175.049 193.195 175.977V177.397C193.195 178.411 192.688 178.957 191.713 178.957C190.738 178.957 190.254 178.411 190.254 177.397Z" fill="#263238"/>
<path d="M193.826 175.08V173.52C193.814 173.388 193.83 173.254 193.873 173.127C193.915 173.001 193.983 172.885 194.073 172.787C194.163 172.688 194.273 172.61 194.395 172.556C194.517 172.502 194.648 172.474 194.782 172.474C194.915 172.474 195.047 172.502 195.169 172.556C195.291 172.61 195.4 172.688 195.49 172.787C195.58 172.885 195.648 173.001 195.691 173.127C195.733 173.254 195.749 173.388 195.737 173.52V175.08C195.749 175.213 195.733 175.347 195.691 175.473C195.648 175.599 195.58 175.715 195.49 175.814C195.4 175.912 195.291 175.991 195.169 176.045C195.047 176.098 194.915 176.126 194.782 176.126C194.648 176.126 194.517 176.098 194.395 176.045C194.273 175.991 194.163 175.912 194.073 175.814C193.983 175.715 193.915 175.599 193.873 175.473C193.83 175.347 193.814 175.213 193.826 175.08ZM195.105 175.127V173.458C195.105 173.185 194.981 173.068 194.786 173.068C194.591 173.068 194.458 173.185 194.458 173.458V175.127C194.458 175.408 194.575 175.525 194.786 175.525C194.996 175.525 195.105 175.4 195.105 175.127ZM197.071 172.584H197.703L195.261 178.895H194.63L197.071 172.584ZM196.595 177.974V176.414C196.583 176.281 196.599 176.148 196.641 176.021C196.684 175.895 196.752 175.779 196.842 175.681C196.932 175.582 197.042 175.504 197.164 175.45C197.286 175.396 197.417 175.368 197.551 175.368C197.684 175.368 197.816 175.396 197.938 175.45C198.06 175.504 198.169 175.582 198.259 175.681C198.349 175.779 198.417 175.895 198.46 176.021C198.502 176.148 198.518 176.281 198.506 176.414V177.974C198.518 178.107 198.502 178.241 198.46 178.367C198.417 178.493 198.349 178.609 198.259 178.708C198.169 178.806 198.06 178.885 197.938 178.938C197.816 178.992 197.684 179.02 197.551 179.02C197.417 179.02 197.286 178.992 197.164 178.938C197.042 178.885 196.932 178.806 196.842 178.708C196.752 178.609 196.684 178.493 196.641 178.367C196.599 178.241 196.583 178.107 196.595 177.974ZM197.874 178.021V176.352C197.874 176.071 197.75 175.954 197.547 175.954C197.344 175.954 197.227 176.071 197.227 176.352V178.021C197.227 178.302 197.344 178.419 197.547 178.419C197.75 178.419 197.874 178.302 197.874 178.021Z" fill="#263238"/>
<path d="M229.784 202.326H137.861C134.906 202.326 132.51 204.721 132.51 207.676V227.41C132.51 230.366 134.906 232.761 137.861 232.761H229.784C232.739 232.761 235.135 230.366 235.135 227.41V207.676C235.135 204.721 232.739 202.326 229.784 202.326Z" fill="#263238" stroke="#263238" stroke-linecap="round" stroke-linejoin="round"/>
<path d="M228.146 200.688H136.223C133.268 200.688 130.873 203.083 130.873 206.038V225.772C130.873 228.728 133.268 231.123 136.223 231.123H228.146C231.102 231.123 233.497 228.728 233.497 225.772V206.038C233.497 203.083 231.102 200.688 228.146 200.688Z" fill="white" stroke="#263238" stroke-linecap="round" stroke-linejoin="round"/>
<path d="M207.609 217.629H162.611C162.162 217.659 161.742 217.858 161.435 218.186C161.128 218.514 160.958 218.947 160.958 219.396C160.958 219.845 161.128 220.278 161.435 220.606C161.742 220.934 162.162 221.133 162.611 221.163H207.609V217.629Z" fill="white"/>
<path d="M162.611 221.163C162.162 221.133 161.742 220.934 161.435 220.606C161.128 220.278 160.958 219.845 160.958 219.396C160.958 218.947 161.128 218.514 161.435 218.186C161.742 217.858 162.162 217.659 162.611 217.629H222.515C222.757 217.613 222.999 217.647 223.227 217.728C223.456 217.81 223.665 217.937 223.842 218.103C224.019 218.269 224.16 218.469 224.256 218.691C224.353 218.914 224.403 219.154 224.403 219.396C224.403 219.638 224.353 219.878 224.256 220.101C224.16 220.323 224.019 220.523 223.842 220.689C223.665 220.854 223.456 220.982 223.227 221.063C222.999 221.145 222.757 221.179 222.515 221.163H162.611Z" stroke="#263238" stroke-linecap="round" stroke-linejoin="round"/>
<path d="M186.557 212.528V211.967C186.526 211.712 186.571 211.454 186.686 211.225C186.801 210.996 186.981 210.807 187.204 210.68C186.992 210.556 186.821 210.372 186.713 210.151C186.604 209.931 186.564 209.683 186.596 209.439V209.182C186.596 208.781 186.755 208.396 187.039 208.112C187.323 207.828 187.707 207.669 188.109 207.669C188.51 207.669 188.895 207.828 189.179 208.112C189.463 208.396 189.622 208.781 189.622 209.182V209.439C189.65 209.683 189.607 209.931 189.498 210.151C189.388 210.371 189.217 210.554 189.006 210.68C189.23 210.805 189.412 210.995 189.528 211.224C189.645 211.453 189.691 211.711 189.661 211.967V212.528C189.661 212.942 189.497 213.339 189.204 213.631C188.912 213.924 188.515 214.088 188.101 214.088C187.687 214.088 187.29 213.924 186.998 213.631C186.705 213.339 186.541 212.942 186.541 212.528H186.557ZM188.67 212.473V211.865C188.67 211.389 188.475 211.155 188.109 211.155C187.742 211.155 187.547 211.389 187.547 211.865V212.473C187.547 212.949 187.742 213.183 188.109 213.183C188.475 213.183 188.67 212.949 188.67 212.473ZM188.67 209.627V209.127C188.67 208.714 188.491 208.495 188.148 208.495C187.805 208.495 187.625 208.714 187.625 209.127V209.627C187.625 210.04 187.805 210.258 188.148 210.258C188.491 210.258 188.631 210.04 188.631 209.627H188.67Z" fill="#263238"/>
<path d="M190.254 212.497V212.006H191.19V212.567C191.19 213.02 191.385 213.183 191.705 213.183C192.024 213.183 192.219 213.02 192.219 212.567V211.155C192.219 210.703 192.017 210.531 191.705 210.531C191.393 210.531 191.19 210.703 191.19 211.155V211.21H190.254L190.433 207.684H193.046V208.589H191.315L191.237 210.095C191.324 209.946 191.45 209.825 191.601 209.744C191.752 209.663 191.923 209.625 192.095 209.634C192.82 209.634 193.194 210.149 193.194 211.077V212.497C193.209 212.7 193.182 212.904 193.114 213.096C193.047 213.288 192.94 213.464 192.802 213.614C192.663 213.763 192.495 213.882 192.308 213.963C192.122 214.044 191.92 214.086 191.716 214.086C191.513 214.086 191.311 214.044 191.124 213.963C190.938 213.882 190.77 213.763 190.631 213.614C190.492 213.464 190.386 213.288 190.318 213.096C190.251 212.904 190.224 212.7 190.238 212.497H190.254Z" fill="#263238"/>
<path d="M193.826 210.18V208.62C193.814 208.488 193.83 208.354 193.873 208.227C193.915 208.101 193.983 207.985 194.073 207.887C194.163 207.788 194.273 207.71 194.395 207.656C194.517 207.602 194.648 207.574 194.782 207.574C194.915 207.574 195.047 207.602 195.169 207.656C195.291 207.71 195.4 207.788 195.49 207.887C195.58 207.985 195.648 208.101 195.691 208.227C195.733 208.354 195.749 208.488 195.737 208.62V210.18C195.749 210.313 195.733 210.447 195.691 210.573C195.648 210.699 195.58 210.815 195.49 210.914C195.4 211.012 195.291 211.091 195.169 211.145C195.047 211.198 194.915 211.226 194.782 211.226C194.648 211.226 194.517 211.198 194.395 211.145C194.273 211.091 194.163 211.012 194.073 210.914C193.983 210.815 193.915 210.699 193.873 210.573C193.83 210.447 193.814 210.313 193.826 210.18ZM195.105 210.227V208.558C195.105 208.285 194.981 208.16 194.786 208.16C194.591 208.16 194.458 208.285 194.458 208.558V210.227C194.458 210.508 194.575 210.625 194.786 210.625C194.996 210.625 195.105 210.5 195.105 210.227ZM197.071 207.684H197.703L195.261 213.994H194.63L197.071 207.684ZM196.595 213.074V211.514C196.583 211.381 196.599 211.248 196.641 211.121C196.684 210.995 196.752 210.879 196.842 210.781C196.932 210.682 197.042 210.604 197.164 210.55C197.286 210.496 197.417 210.468 197.551 210.468C197.684 210.468 197.816 210.496 197.938 210.55C198.06 210.604 198.169 210.682 198.259 210.781C198.349 210.879 198.417 210.995 198.46 211.121C198.502 211.248 198.518 211.381 198.506 211.514V213.074C198.518 213.207 198.502 213.341 198.46 213.467C198.417 213.593 198.349 213.709 198.259 213.808C198.169 213.906 198.06 213.985 197.938 214.038C197.816 214.092 197.684 214.12 197.551 214.12C197.417 214.12 197.286 214.092 197.164 214.038C197.042 213.985 196.932 213.906 196.842 213.808C196.752 213.709 196.684 213.593 196.641 213.467C196.599 213.341 196.583 213.207 196.595 213.074ZM197.874 213.121V211.452C197.874 211.171 197.75 211.054 197.547 211.054C197.344 211.054 197.227 211.171 197.227 211.452V213.121C197.227 213.402 197.344 213.519 197.547 213.519C197.75 213.519 197.874 213.402 197.874 213.121Z" fill="#263238"/>
<path d="M153.594 224.673H140.077V207.575H149.086L153.594 212.083V224.673Z" fill="white"/>
<path opacity="0.5" d="M153.594 224.673H140.077V207.575H149.086L153.594 212.083V224.673Z" fill="white" stroke="#263238" stroke-linecap="round" stroke-linejoin="round"/>
<path d="M153.594 224.673H140.077V207.575H149.086L153.594 212.083V224.673Z" stroke="#263238" stroke-linecap="round" stroke-linejoin="round"/>
<path d="M143.08 216.646C142.867 216.626 142.67 216.527 142.526 216.369C142.383 216.211 142.303 216.006 142.303 215.792C142.303 215.579 142.383 215.373 142.526 215.215C142.67 215.057 142.867 214.959 143.08 214.938H150.591C150.803 214.959 151.001 215.057 151.144 215.215C151.288 215.373 151.367 215.579 151.367 215.792C151.367 216.006 151.288 216.211 151.144 216.369C151.001 216.527 150.803 216.626 150.591 216.646H143.08Z" fill="#858585" stroke="#263238" stroke-width="0.75" stroke-linecap="round" stroke-linejoin="round"/>
<path d="M143.08 220.242C142.867 220.222 142.67 220.123 142.526 219.965C142.383 219.807 142.303 219.602 142.303 219.388C142.303 219.175 142.383 218.969 142.526 218.811C142.67 218.653 142.867 218.554 143.08 218.534H148.953C149.165 218.554 149.363 218.653 149.506 218.811C149.65 218.969 149.729 219.175 149.729 219.388C149.729 219.602 149.65 219.807 149.506 219.965C149.363 220.123 149.165 220.222 148.953 220.242H143.08Z" fill="#858585" stroke="#263238" stroke-width="0.75" stroke-linecap="round" stroke-linejoin="round"/>
<path d="M149.085 212.083H153.594L149.085 207.575V212.083Z" fill="white" stroke="#263238" stroke-linecap="round" stroke-linejoin="round"/>
<path d="M242.35 119.849H125.288C122.333 119.849 119.937 122.244 119.937 125.199V152.398C119.937 155.353 122.333 157.749 125.288 157.749H242.35C245.305 157.749 247.701 155.353 247.701 152.398V125.199C247.701 122.244 245.305 119.849 242.35 119.849Z" fill="#263238" stroke="#263238" stroke-linecap="round" stroke-linejoin="round"/>
<path d="M240.712 118.21H123.65C120.694 118.21 118.299 120.606 118.299 123.561V150.76C118.299 153.715 120.694 156.111 123.65 156.111H240.712C243.667 156.111 246.063 153.715 246.063 150.76V123.561C246.063 120.606 243.667 118.21 240.712 118.21Z" fill="white" stroke="#263238" stroke-linecap="round" stroke-linejoin="round"/>
<path d="M162.892 152.991H137.861V121.33H154.546L162.892 129.669V152.991Z" fill="white"/>
<path opacity="0.7" d="M162.892 152.991H137.861V121.33H154.546L162.892 129.669V152.991Z" fill="white"/>
<path d="M162.892 152.991H137.861V121.33H154.546L162.892 129.669V152.991Z" stroke="#263238" stroke-linecap="round" stroke-linejoin="round"/>
<path d="M154.545 129.669H162.891L154.545 121.33V129.669Z" fill="white" stroke="#263238" stroke-linecap="round" stroke-linejoin="round"/>
<path d="M145.248 133.569H140.334V138.483H145.248V133.569Z" stroke="white" stroke-width="0.75" stroke-linecap="round" stroke-linejoin="round"/>
<path d="M150.302 133.569H145.388V138.483H150.302V133.569Z" stroke="white" stroke-width="0.75" stroke-linecap="round" stroke-linejoin="round"/>
<path d="M155.364 133.569H150.45V138.483H155.364V133.569Z" stroke="white" stroke-width="0.75" stroke-linecap="round" stroke-linejoin="round"/>
<path d="M160.419 133.569H155.505V138.483H160.419V133.569Z" stroke="white" stroke-width="0.75" stroke-linecap="round" stroke-linejoin="round"/>
<path d="M145.248 138.483H140.334V143.397H145.248V138.483Z" stroke="white" stroke-width="0.75" stroke-linecap="round" stroke-linejoin="round"/>
<path d="M150.302 138.483H145.388V143.397H150.302V138.483Z" stroke="white" stroke-width="0.75" stroke-linecap="round" stroke-linejoin="round"/>
<path d="M155.364 138.483H150.45V143.397H155.364V138.483Z" stroke="white" stroke-width="0.75" stroke-linecap="round" stroke-linejoin="round"/>
<path d="M160.419 138.483H155.505V143.397H160.419V138.483Z" stroke="white" stroke-width="0.75" stroke-linecap="round" stroke-linejoin="round"/>
<path d="M145.248 143.397H140.334V148.311H145.248V143.397Z" stroke="white" stroke-width="0.75" stroke-linecap="round" stroke-linejoin="round"/>
<path d="M150.302 143.397H145.388V148.311H150.302V143.397Z" stroke="white" stroke-width="0.75" stroke-linecap="round" stroke-linejoin="round"/>
<path d="M155.364 143.397H150.45V148.311H155.364V143.397Z" stroke="white" stroke-width="0.75" stroke-linecap="round" stroke-linejoin="round"/>
<path d="M160.419 143.397H155.505V148.311H160.419V143.397Z" stroke="white" stroke-width="0.75" stroke-linecap="round" stroke-linejoin="round"/>
<path d="M140.427 147.835L145.388 143.28L147.845 143.397L150.528 138.553L152.907 140.94L155.575 138.139L157.962 133.569" stroke="white" stroke-width="2" stroke-linecap="round" stroke-linejoin="round"/>
<path d="M155.146 134.996L157.962 133.569L158.531 136.642" stroke="white" stroke-width="2" stroke-linecap="round" stroke-linejoin="round"/>
<path d="M172.735 136.15H171.3V135.199C172.439 135.199 172.86 134.949 173.156 134.115H174.061V142.695H172.712L172.735 136.15Z" fill="#263238"/>
<path d="M175.66 140.675V136.151C175.66 135.606 175.876 135.085 176.261 134.7C176.646 134.315 177.168 134.099 177.712 134.099C178.256 134.099 178.777 134.315 179.162 134.7C179.547 135.085 179.763 135.606 179.763 136.151V140.675C179.763 141.219 179.547 141.74 179.162 142.125C178.777 142.51 178.256 142.726 177.712 142.726C177.168 142.726 176.646 142.51 176.261 142.125C175.876 141.74 175.66 141.219 175.66 140.675ZM178.414 140.76V136.08C178.414 135.472 178.141 135.238 177.712 135.238C177.283 135.238 177.01 135.472 177.01 136.08V140.76C177.01 141.377 177.283 141.611 177.712 141.611C178.141 141.611 178.414 141.377 178.414 140.76Z" fill="#263238"/>
<path d="M180.574 140.675V136.151C180.574 135.606 180.79 135.085 181.175 134.7C181.56 134.315 182.082 134.099 182.626 134.099C183.17 134.099 183.691 134.315 184.076 134.7C184.461 135.085 184.677 135.606 184.677 136.151V140.675C184.677 141.219 184.461 141.74 184.076 142.125C183.691 142.51 183.17 142.726 182.626 142.726C182.082 142.726 181.56 142.51 181.175 142.125C180.79 141.74 180.574 141.219 180.574 140.675ZM183.328 140.76V136.08C183.328 135.472 183.055 135.238 182.626 135.238C182.197 135.238 181.924 135.472 181.924 136.08V140.76C181.924 141.377 182.197 141.611 182.626 141.611C183.055 141.611 183.328 141.377 183.328 140.76Z" fill="#263238"/>
<path d="M185.511 137.515V135.37C185.511 135.025 185.648 134.694 185.893 134.449C186.137 134.205 186.468 134.068 186.814 134.068C187.159 134.068 187.491 134.205 187.735 134.449C187.979 134.694 188.116 135.025 188.116 135.37V137.515C188.116 137.861 187.979 138.192 187.735 138.437C187.491 138.681 187.159 138.818 186.814 138.818C186.468 138.818 186.137 138.681 185.893 138.437C185.648 138.192 185.511 137.861 185.511 137.515ZM187.258 137.578V135.308C187.258 134.926 187.087 134.762 186.814 134.762C186.541 134.762 186.369 134.926 186.369 135.308V137.578C186.369 137.96 186.533 138.116 186.814 138.116C187.095 138.116 187.258 137.96 187.258 137.578ZM189.934 134.115H190.8L187.469 142.695H186.611L189.934 134.115ZM189.279 141.462V139.309C189.279 139.138 189.312 138.969 189.378 138.811C189.443 138.653 189.539 138.509 189.66 138.388C189.781 138.267 189.925 138.171 190.083 138.106C190.241 138.041 190.41 138.007 190.581 138.007C190.752 138.007 190.922 138.041 191.08 138.106C191.238 138.171 191.381 138.267 191.502 138.388C191.623 138.509 191.719 138.653 191.785 138.811C191.85 138.969 191.884 139.138 191.884 139.309V141.462C191.884 141.633 191.85 141.803 191.785 141.961C191.719 142.119 191.623 142.262 191.502 142.383C191.381 142.504 191.238 142.6 191.08 142.666C190.922 142.731 190.752 142.765 190.581 142.765C190.41 142.765 190.241 142.731 190.083 142.666C189.925 142.6 189.781 142.504 189.66 142.383C189.539 142.262 189.443 142.119 189.378 141.961C189.312 141.803 189.279 141.633 189.279 141.462ZM191.026 141.525V139.247C191.026 138.865 190.854 138.709 190.581 138.709C190.308 138.709 190.144 138.865 190.144 139.247V141.525C190.144 141.899 190.3 142.063 190.581 142.063C190.862 142.063 191.026 141.899 191.026 141.525Z" fill="#263238"/>
<path d="M194.068 140.027V136.634C194.068 136.247 194.222 135.876 194.495 135.603C194.769 135.329 195.14 135.175 195.526 135.175C195.913 135.175 196.284 135.329 196.558 135.603C196.831 135.876 196.985 136.247 196.985 136.634V137.305H196.049V136.572C196.049 136.158 195.846 135.987 195.55 135.987C195.253 135.987 195.058 136.158 195.058 136.572V140.097C195.058 140.511 195.253 140.674 195.55 140.674C195.846 140.674 196.049 140.511 196.049 140.097V139.13H196.985V140.027C196.985 140.414 196.831 140.785 196.558 141.058C196.284 141.332 195.913 141.486 195.526 141.486C195.14 141.486 194.769 141.332 194.495 141.058C194.222 140.785 194.068 140.414 194.068 140.027Z" fill="#263238"/>
<path d="M197.523 139.988V136.673C197.523 136.274 197.682 135.891 197.964 135.609C198.247 135.326 198.63 135.168 199.029 135.168C199.428 135.168 199.811 135.326 200.093 135.609C200.376 135.891 200.534 136.274 200.534 136.673V139.988C200.534 140.387 200.376 140.77 200.093 141.052C199.811 141.335 199.428 141.493 199.029 141.493C198.63 141.493 198.247 141.335 197.964 141.052C197.682 140.77 197.523 140.387 197.523 139.988ZM199.544 140.05V136.611C199.544 136.158 199.349 135.987 199.029 135.987C198.709 135.987 198.514 136.158 198.514 136.611V140.05C198.514 140.503 198.717 140.674 199.029 140.674C199.341 140.674 199.544 140.503 199.544 140.05Z" fill="#263238"/>
<path d="M201.197 135.175H202.617L203.249 139.692L203.88 135.175H205.292V141.486H204.356V136.712L203.631 141.486H202.804L202.086 136.712V141.486H201.221L201.197 135.175Z" fill="#263238"/>
<path d="M206.049 135.175H207.507C208.498 135.175 208.982 135.729 208.982 136.735V137.359C208.982 138.366 208.498 138.919 207.507 138.919H207.039V141.486H206.049V135.175ZM207.507 138.015C207.819 138.015 207.991 137.874 207.991 137.422V136.642C207.991 136.189 207.819 136.049 207.507 136.049H207.039V137.983L207.507 138.015Z" fill="#263238"/>
<path d="M209.52 135.175H210.511V140.581H212.141V141.486H209.52V135.175Z" fill="#263238"/>
<path d="M212.64 135.175H215.338V136.08H213.63V137.742H214.98V138.646H213.622V140.581H215.331V141.486H212.64V135.175Z" fill="#263238"/>
<path d="M216.665 136.08H215.635V135.175H218.693V136.08H217.655V141.486H216.665V136.08Z" fill="#263238"/>
<path d="M219.176 135.175H221.875V136.08H220.167V137.742H221.524V138.646H220.167V140.581H221.875V141.486H219.176V135.175Z" fill="#263238"/>
<path d="M222.444 135.175H223.958C224.948 135.175 225.432 135.729 225.432 136.735V139.926C225.432 140.932 224.948 141.486 223.958 141.486H222.444V135.175ZM223.934 140.581C224.254 140.581 224.441 140.417 224.441 139.972V136.689C224.441 136.244 224.254 136.08 223.934 136.08H223.435V140.581H223.934Z" fill="#263238"/>
<path d="M229.784 237.652H137.861C134.906 237.652 132.51 240.048 132.51 243.003V262.737C132.51 265.692 134.906 268.087 137.861 268.087H229.784C232.739 268.087 235.135 265.692 235.135 262.737V243.003C235.135 240.048 232.739 237.652 229.784 237.652Z" fill="#263238" stroke="#263238" stroke-linecap="round" stroke-linejoin="round"/>
<path d="M228.146 236.014H136.223C133.268 236.014 130.873 238.41 130.873 241.365V261.099C130.873 264.054 133.268 266.45 136.223 266.45H228.146C231.102 266.45 233.497 264.054 233.497 261.099V241.365C233.497 238.41 231.102 236.014 228.146 236.014Z" fill="white" stroke="#263238" stroke-linecap="round" stroke-linejoin="round"/>
<path d="M204.434 252.737H162.61C162.143 252.737 161.695 252.923 161.364 253.253C161.033 253.584 160.848 254.032 160.848 254.5C160.848 254.967 161.033 255.416 161.364 255.746C161.695 256.077 162.143 256.263 162.61 256.263H204.434V252.737Z" fill="white"/>
<path d="M162.61 256.263C162.143 256.263 161.695 256.077 161.364 255.746C161.033 255.416 160.848 254.967 160.848 254.5C160.848 254.032 161.033 253.584 161.364 253.253C161.695 252.923 162.143 252.737 162.61 252.737H222.514C222.746 252.737 222.975 252.783 223.189 252.871C223.403 252.96 223.597 253.09 223.761 253.253C223.925 253.417 224.054 253.611 224.143 253.825C224.232 254.039 224.277 254.268 224.277 254.5C224.277 254.731 224.232 254.961 224.143 255.174C224.054 255.388 223.925 255.583 223.761 255.746C223.597 255.91 223.403 256.04 223.189 256.128C222.975 256.217 222.746 256.263 222.514 256.263H162.61Z" stroke="#263238" stroke-linecap="round" stroke-linejoin="round"/>
<path d="M153.594 259.78H140.077V242.683H149.086L153.594 247.183V259.78Z" fill="white"/>
<path opacity="0.5" d="M153.594 259.78H140.077V242.683H149.086L153.594 247.183V259.78Z" fill="white"/>
<path d="M153.594 259.78H140.077V242.683H149.086L153.594 247.183V259.78Z" stroke="#263238" stroke-linecap="round" stroke-linejoin="round"/>
<path d="M143.08 251.754C142.867 251.734 142.67 251.635 142.526 251.477C142.383 251.319 142.303 251.114 142.303 250.9C142.303 250.687 142.383 250.481 142.526 250.323C142.67 250.165 142.867 250.066 143.08 250.046H150.591C150.803 250.066 151.001 250.165 151.144 250.323C151.288 250.481 151.367 250.687 151.367 250.9C151.367 251.114 151.288 251.319 151.144 251.477C151.001 251.635 150.803 251.734 150.591 251.754H143.08Z" fill="#858585" stroke="#263238" stroke-width="0.75" stroke-linecap="round" stroke-linejoin="round"/>
<path d="M143.079 255.342C142.854 255.342 142.637 255.253 142.478 255.093C142.319 254.934 142.229 254.718 142.229 254.492C142.229 254.267 142.319 254.05 142.478 253.891C142.637 253.731 142.854 253.642 143.079 253.642H148.953C149.178 253.642 149.394 253.731 149.554 253.891C149.713 254.05 149.803 254.267 149.803 254.492C149.803 254.718 149.713 254.934 149.554 255.093C149.394 255.253 149.178 255.342 148.953 255.342H143.079Z" fill="#858585" stroke="#263238" stroke-width="0.75" stroke-linecap="round" stroke-linejoin="round"/>
<path d="M149.085 247.183H153.594L149.085 242.683V247.183Z" fill="white" stroke="#263238" stroke-linecap="round" stroke-linejoin="round"/>
<path d="M188.616 243.689H186.611V242.792H189.583V243.658L188.023 249.118H187.009L188.616 243.689Z" fill="#263238"/>
<path d="M190.207 247.605V244.29C190.207 243.89 190.366 243.508 190.648 243.225C190.93 242.943 191.313 242.784 191.712 242.784C192.112 242.784 192.495 242.943 192.777 243.225C193.059 243.508 193.218 243.89 193.218 244.29V247.605C193.218 248.004 193.059 248.387 192.777 248.669C192.495 248.951 192.112 249.11 191.712 249.11C191.313 249.11 190.93 248.951 190.648 248.669C190.366 248.387 190.207 248.004 190.207 247.605ZM192.227 247.667V244.227C192.227 243.775 192.024 243.603 191.712 243.603C191.4 243.603 191.198 243.775 191.198 244.227V247.667C191.198 248.119 191.4 248.283 191.712 248.283C192.024 248.283 192.227 248.119 192.227 247.667Z" fill="#263238"/>
<path d="M193.826 245.288V243.728C193.814 243.595 193.83 243.462 193.873 243.335C193.915 243.209 193.983 243.093 194.073 242.995C194.163 242.896 194.273 242.818 194.395 242.764C194.517 242.71 194.648 242.682 194.782 242.682C194.915 242.682 195.047 242.71 195.169 242.764C195.291 242.818 195.4 242.896 195.49 242.995C195.58 243.093 195.648 243.209 195.691 243.335C195.733 243.462 195.749 243.595 195.737 243.728V245.288C195.749 245.421 195.733 245.555 195.691 245.681C195.648 245.807 195.58 245.923 195.49 246.022C195.4 246.12 195.291 246.199 195.169 246.252C195.047 246.306 194.915 246.334 194.782 246.334C194.648 246.334 194.517 246.306 194.395 246.252C194.273 246.199 194.163 246.12 194.073 246.022C193.983 245.923 193.915 245.807 193.873 245.681C193.83 245.555 193.814 245.421 193.826 245.288ZM195.105 245.335V243.666C195.105 243.385 194.981 243.268 194.786 243.268C194.591 243.268 194.458 243.385 194.458 243.666V245.335C194.458 245.608 194.575 245.725 194.786 245.725C194.996 245.725 195.105 245.6 195.105 245.335ZM197.04 242.792H197.672L195.23 249.094H194.598L197.04 242.792ZM196.564 248.182V246.622C196.552 246.489 196.568 246.355 196.61 246.229C196.653 246.103 196.721 245.987 196.811 245.888C196.901 245.79 197.01 245.711 197.132 245.658C197.254 245.604 197.386 245.576 197.519 245.576C197.653 245.576 197.785 245.604 197.906 245.658C198.028 245.711 198.138 245.79 198.228 245.888C198.318 245.987 198.386 246.103 198.429 246.229C198.471 246.355 198.487 246.489 198.475 246.622V248.182C198.487 248.315 198.471 248.448 198.429 248.575C198.386 248.701 198.318 248.817 198.228 248.915C198.138 249.014 198.028 249.092 197.906 249.146C197.785 249.2 197.653 249.228 197.519 249.228C197.386 249.228 197.254 249.2 197.132 249.146C197.01 249.092 196.901 249.014 196.811 248.915C196.721 248.817 196.653 248.701 196.61 248.575C196.568 248.448 196.552 248.315 196.564 248.182ZM197.843 248.221V246.559C197.843 246.279 197.718 246.162 197.516 246.162C197.313 246.162 197.196 246.279 197.196 246.559V248.221C197.196 248.502 197.313 248.619 197.516 248.619C197.718 248.619 197.874 248.502 197.874 248.221H197.843Z" fill="#263238"/>
<path d="M80.3833 81.9561L100.968 66.0441L121.552 81.9561H80.3833Z" fill="#263238" stroke="#263238" stroke-linecap="round" stroke-linejoin="round"/>
<path d="M106.349 64.796H95.5854V74H106.349V64.796Z" fill="#263238" stroke="#263238" stroke-linecap="round" stroke-linejoin="round"/>
<path d="M100.967 41.9265V74.0001" stroke="#263238" stroke-width="0.75" stroke-linecap="round" stroke-linejoin="round"/>
<path d="M244.44 81.9561L265.032 66.0441L285.617 81.9561H244.44Z" fill="#263238" stroke="#263238" stroke-linecap="round" stroke-linejoin="round"/>
<path d="M270.415 64.796H259.651V74H270.415V64.796Z" fill="#263238" stroke="#263238" stroke-linecap="round" stroke-linejoin="round"/>
<path d="M265.033 40.3665V74.0001" stroke="#263238" stroke-width="0.75" stroke-linecap="round" stroke-linejoin="round"/>
<path d="M273.067 330.3L272.63 343.17L279.291 343.49L281.717 330.3H273.067Z" fill="white" stroke="#263238" stroke-linecap="round" stroke-linejoin="round"/>
<path d="M260.033 347.117C262.279 346.337 266.163 345.011 267.622 344.098C268.792 343.365 270.422 340.978 271.631 340.308C271.885 340.198 272.158 340.141 272.435 340.141C272.711 340.141 272.984 340.198 273.238 340.308C273.434 340.526 273.562 340.797 273.605 341.088C273.638 341.213 273.708 341.327 273.805 341.413C273.903 341.5 274.023 341.556 274.152 341.574C274.281 341.592 274.413 341.572 274.53 341.516C274.648 341.46 274.746 341.371 274.814 341.259C275 340.893 275.267 340.573 275.594 340.323C276.623 339.746 279.408 339.582 280.32 340.323C281.834 341.563 282.38 345.838 282.66 347.764C282.731 348.186 282.66 350.526 282.66 350.526H258.356V349.457C258.352 348.94 258.513 348.435 258.814 348.015C259.115 347.594 259.542 347.28 260.033 347.117Z" fill="white" stroke="#263238" stroke-linecap="round" stroke-linejoin="round"/>
<path d="M282.676 350.51H258.355V349.441C258.355 349.176 258.4 348.912 258.488 348.661H282.707C282.707 349.48 282.676 350.51 282.676 350.51Z" fill="#858585" stroke="#263238" stroke-linecap="round" stroke-linejoin="round"/>
<path d="M277.271 230.523L272.162 335.199L281.522 336.759C281.522 336.759 287.418 306.463 288.136 296.542C288.308 294.202 288.136 287.143 288.136 287.143L294.758 254.547C294.758 254.547 299.118 250.522 299.625 231.357L277.271 230.523Z" fill="#263238" stroke="#263238" stroke-linecap="round" stroke-linejoin="round"/>
<path opacity="0.7" d="M291.124 271.036C291.482 269.523 291.904 268.033 292.411 266.551C292.489 266.34 292.582 266.145 292.676 265.95C292.908 263.735 293.265 261.534 293.744 259.359C293.91 258.547 294.347 257.815 294.985 257.284C295.167 256.873 295.438 256.508 295.78 256.215C296.121 255.922 296.524 255.709 296.958 255.592C296.671 253.578 296.233 251.588 295.648 249.64C295.055 247.597 294.088 245.639 293.799 243.525C293.721 242.979 293.409 242.41 293.51 242.347C292.84 242.086 292.184 241.789 291.545 241.458L291.428 241.365C290.83 251.244 290.728 261.147 291.124 271.036Z" fill="black"/>
<path d="M276.826 290.395C278.483 290.012 280.004 289.184 281.225 288.001" stroke="#7F7F7F" stroke-width="0.75" stroke-linecap="round" stroke-linejoin="round"/>
<path d="M270.929 337.188L282.247 338.116L283.089 334.45L270.929 333.498V337.188Z" fill="white" stroke="#263238" stroke-linecap="round" stroke-linejoin="round"/>
<path d="M303.611 328.717L306.022 343.763L312.184 343.279L311.981 327.874L303.611 328.717Z" fill="white" stroke="#263238" stroke-linecap="round" stroke-linejoin="round"/>
<path d="M293.292 347.117C295.546 346.337 299.43 345.011 300.881 344.098C302.051 343.365 303.689 340.978 304.89 340.308C305.145 340.198 305.42 340.141 305.698 340.141C305.975 340.141 306.25 340.198 306.505 340.308C306.646 340.453 306.746 340.633 306.794 340.83C306.835 340.979 306.921 341.113 307.039 341.213C307.157 341.314 307.302 341.377 307.456 341.394C307.61 341.412 307.766 341.383 307.903 341.312C308.041 341.241 308.154 341.13 308.229 340.994C308.388 340.725 308.6 340.491 308.853 340.308C309.882 339.73 312.667 339.567 313.58 340.308C315.093 341.548 315.639 345.822 315.92 347.749C315.982 348.17 315.92 350.51 315.92 350.51H291.623V349.441C291.622 348.928 291.783 348.427 292.082 348.01C292.382 347.593 292.805 347.281 293.292 347.117Z" fill="white" stroke="#263238" stroke-linecap="round" stroke-linejoin="round"/>
<path d="M315.943 350.51H291.623V349.441C291.62 349.176 291.662 348.912 291.748 348.661H315.967C315.967 349.48 315.943 350.51 315.943 350.51Z" fill="#858585" stroke="#263238" stroke-linecap="round" stroke-linejoin="round"/>
<path d="M290.297 233.682C290.297 233.682 292.637 247.23 294.79 258.595C296.256 266.301 296.35 289.069 296.35 289.069L303.822 336.08L313.034 334.84C313.034 334.84 313.143 305.902 312.106 296.62C311.872 294.553 311.489 288.414 311.489 288.414C311.489 288.414 311.84 263.86 313.736 255.654C315.093 249.804 317.792 243.658 314.516 231.669L290.297 233.682Z" fill="#263238" stroke="#263238" stroke-linecap="round" stroke-linejoin="round"/>
<path d="M298.37 290.395C299.307 291.692 300.7 292.587 302.27 292.899" stroke="#7F7F7F" stroke-width="0.75" stroke-linecap="round" stroke-linejoin="round"/>
<path d="M302.277 333.966L302.808 337.414L314.227 336.189L314.149 332.476L302.277 333.966Z" fill="white" stroke="#263238" stroke-linecap="round" stroke-linejoin="round"/>
<path d="M246.827 171.009L244.308 166.773C244.308 166.773 243.7 159.855 242.296 158.505C240.892 157.156 237.772 153.186 237.327 153.966C236.625 155.214 239.222 157.437 239.222 157.437L239.698 160.011C239.698 160.011 235.494 156.984 234.308 156.984C234.308 156.984 230.954 153.014 229.769 153.006C228.583 152.998 230.252 155.752 230.252 155.752C230.252 155.752 229.121 154.886 228.903 155.424C228.685 155.962 230.362 157.803 230.362 157.803C230.362 157.803 229.714 158.505 230.689 160.011C230.554 160.497 230.556 161.011 230.693 161.497C230.831 161.982 231.099 162.421 231.469 162.764C232.764 163.794 239.722 167.733 239.722 167.733L242.062 173.239L246.827 171.009Z" fill="#858585" stroke="#263238" stroke-linecap="round" stroke-linejoin="round"/>
<path d="M231.282 157.912C231.282 157.912 232.202 158.287 231.82 159.636C232.187 160.158 232.393 160.777 232.413 161.415C232.506 162.6 238.512 162.015 240.135 164.535" stroke="#263238" stroke-width="0.75" stroke-linecap="round" stroke-linejoin="round"/>
<path d="M231.282 156.454L233.731 159.043" stroke="#263238" stroke-width="0.75" stroke-linecap="round" stroke-linejoin="round"/>
<path d="M272.832 169.94L256.757 182.467L245.743 167.46L240.135 170.268C240.135 170.268 248.949 194.619 255.618 194.619C262.708 194.619 276.186 183.231 276.186 183.231C276.186 183.231 277.037 181.055 272.832 169.94Z" fill="white" stroke="#263238" stroke-linecap="round" stroke-linejoin="round"/>
<path d="M257.365 183.66C257.741 184.459 258.021 185.299 258.2 186.164" stroke="#263238" stroke-width="0.75" stroke-linecap="round" stroke-linejoin="round"/>
<path d="M272.833 169.94L276.257 215.266V234.095C276.257 234.095 295.983 236.435 315.444 233.596L314.773 214.213L316.746 171.009C316.746 171.009 307.714 164.48 293.846 164.48C279.977 164.48 272.833 169.94 272.833 169.94Z" fill="white" stroke="#263238" stroke-linecap="round" stroke-linejoin="round"/>
<path opacity="0.2" d="M315.444 233.596L314.82 216.225C314.485 224.595 305.249 221.451 303.159 221.061C300.92 220.64 298.346 228.019 298.346 228.019C298.346 228.019 289.766 229.493 283.051 228.97C276.335 228.448 276.233 222.317 276.233 222.317V234.095C276.233 234.095 295.983 236.466 315.444 233.596Z" fill="black"/>
<path d="M285.5 214.829C293.772 213.939 301.71 211.08 308.65 206.491L285.5 214.829Z" fill="white"/>
<path d="M285.5 214.829C293.772 213.939 301.71 211.08 308.65 206.491" stroke="#263238" stroke-width="0.75" stroke-linecap="round" stroke-linejoin="round"/>
<path d="M282.06 215.063C282.06 215.063 282.723 215.063 283.893 214.977L282.06 215.063Z" fill="white"/>
<path d="M282.06 215.063C282.06 215.063 282.723 215.063 283.893 214.977" stroke="#263238" stroke-width="0.75" stroke-linecap="round" stroke-linejoin="round"/>
<path d="M288.737 172.124L285.32 170.884L282.06 174.035L284.447 164.285L287.325 162.023L288.791 162.951L295.343 162.702L300.437 163.115L302.863 162.366L305.452 164.956L299.688 175.977L297.27 171.804L291.935 172.467L288.737 172.124Z" fill="white"/>
<path opacity="0.5" d="M288.737 172.124L285.32 170.884L282.06 174.035L284.447 164.285L287.325 162.023L288.791 162.951L295.343 162.702L300.437 163.115L302.863 162.366L305.452 164.956L299.688 175.977L297.27 171.804L291.935 172.467L288.737 172.124Z" fill="white"/>
<path d="M288.737 172.124L285.32 170.884L282.06 174.035L284.447 164.285L287.325 162.023L288.791 162.951L295.343 162.702L300.437 163.115L302.863 162.366L305.452 164.956L299.688 175.977L297.27 171.804L291.935 172.467L288.737 172.124Z" stroke="#263238" stroke-linecap="round" stroke-linejoin="round"/>
<path d="M300.086 164.925L299.306 153.006L291.771 154.34L290.211 159.94L288.651 164.792L287.91 164.87L289.962 176.008L300.835 165.088L300.086 164.925Z" fill="#858585"/>
<path d="M281.561 153.833C281.561 156.859 282.029 163.63 286.186 164.418C290.492 165.237 295.429 160.338 297.2 158.38C297.643 157.894 297.99 157.327 298.221 156.711L299.165 154.207C299.782 154.255 300.399 154.125 300.944 153.833H281.561Z" fill="#263238" stroke="#263238" stroke-width="0.5" stroke-linecap="round" stroke-linejoin="round"/>
<path d="M300.086 164.925L299.306 153.006L291.771 154.34L290.211 159.94L288.651 164.792L287.91 164.87L289.962 176.008L300.835 165.088L300.086 164.925Z" stroke="#263238" stroke-linecap="round" stroke-linejoin="round"/>
<path d="M286.584 138.529C286.584 138.529 283.019 135.815 284.767 133.678C285.679 132.57 286.865 134.029 286.865 134.029C286.865 134.029 286.233 130.628 288.768 130.129C291.108 129.692 291.014 132.375 291.014 132.375C291.014 132.375 292.223 130.074 294.337 130.589C296.022 130.995 295.375 133.381 295.375 133.381C295.375 133.381 297.621 130.589 299.945 131.821C301.95 132.874 300.296 135.402 300.296 135.402C300.296 135.402 302.683 134.559 304.017 135.901C305.351 137.242 304.017 139.021 304.017 139.021C304.017 139.021 306.646 139.021 306.763 140.986C306.88 142.952 304.727 143.326 304.727 143.326C304.727 143.326 307.769 144.309 307.792 146.696C307.816 149.083 305.78 148.318 305.78 148.318C305.78 148.318 307.043 150.565 305.99 151.758C305.872 151.918 305.718 152.048 305.541 152.137C305.363 152.226 305.167 152.273 304.969 152.273C304.77 152.273 304.574 152.226 304.397 152.137C304.219 152.048 304.065 151.918 303.947 151.758C303.947 151.758 305.265 154.59 303.596 155.416C302.402 156.001 301.7 154.566 301.7 154.566C301.7 154.566 300.694 157.015 299.477 155.518C298.261 154.02 292.223 142.484 292.223 142.484L286.584 138.529Z" fill="#263238" stroke="#263238" stroke-width="0.75" stroke-linecap="round" stroke-linejoin="round"/>
<path d="M285.554 138.639L283.308 143.319C283.078 143.806 282.958 144.339 282.957 144.879V146.345L281.717 149.465C281.653 149.628 281.601 149.794 281.561 149.964C281.163 151.626 279.268 160.549 283.901 162.366C287.988 163.973 293.744 160.096 295.858 158.505C296.385 158.108 296.83 157.613 297.169 157.047L298.573 154.769C299.169 154.947 299.806 154.932 300.393 154.726C300.98 154.52 301.487 154.134 301.841 153.622C303.097 151.821 304.547 150.846 302.824 149.223C301.1 147.601 299.509 150.198 299.509 150.198L299.743 145.62L297.746 142.11L297.644 139.902C297.644 139.902 291.108 139.177 286.724 136.782L285.554 138.639Z" fill="white" stroke="#263238" stroke-width="0.75" stroke-linecap="round" stroke-linejoin="round"/>
<path d="M285.554 138.639L283.308 143.319C283.078 143.806 282.958 144.339 282.957 144.879V146.345L281.717 149.465C281.653 149.628 281.601 149.794 281.561 149.964C281.163 151.626 279.268 160.549 283.901 162.366C287.988 163.973 293.744 160.096 295.858 158.505C296.385 158.108 296.83 157.613 297.169 157.047L298.573 154.769C299.169 154.947 299.806 154.932 300.393 154.726C300.98 154.52 301.487 154.134 301.841 153.622C303.097 151.821 304.547 150.846 302.824 149.223C301.1 147.601 299.509 150.198 299.509 150.198L299.743 145.62L297.746 142.11L297.644 139.902C297.644 139.902 291.108 139.177 286.724 136.782L285.554 138.639Z" fill="#858585" stroke="#263238" stroke-linecap="round" stroke-linejoin="round"/>
<path d="M289.532 154.621C288.268 157.062 286.552 156.657 285.476 156.048" stroke="#263238" stroke-width="0.75" stroke-linecap="round" stroke-linejoin="round"/>
<path d="M289.555 149.075C289.384 149.629 289.033 150.011 288.776 149.933C288.518 149.855 288.432 149.332 288.604 148.779C288.776 148.225 289.127 147.835 289.384 147.921C289.641 148.006 289.727 148.521 289.555 149.075Z" fill="#263238"/>
<path d="M284.345 147.46C284.173 148.022 283.822 148.404 283.565 148.318C283.308 148.233 283.222 147.718 283.393 147.164C283.565 146.61 283.924 146.228 284.173 146.314C284.423 146.4 284.517 146.907 284.345 147.46Z" fill="#263238"/>
<path d="M283.971 143.857C284.177 143.799 284.394 143.784 284.606 143.814C284.819 143.843 285.023 143.916 285.206 144.028C285.389 144.14 285.547 144.289 285.67 144.465C285.793 144.641 285.878 144.84 285.921 145.05" stroke="#263238" stroke-width="0.75" stroke-linecap="round" stroke-linejoin="round"/>
<path d="M288.456 145.986C288.456 145.986 290.273 144.075 291.498 146.103" stroke="#263238" stroke-width="0.75" stroke-linecap="round" stroke-linejoin="round"/>
<path d="M285.96 147.952C285.796 148.697 285.446 149.388 284.941 149.96C284.436 150.532 283.793 150.966 283.074 151.22L284.493 153.474" stroke="#263238" stroke-width="0.75" stroke-linecap="round" stroke-linejoin="round"/>
<path d="M295.016 237.379L294.618 239.789C294.561 240.187 294.659 240.592 294.893 240.919C295.127 241.246 295.479 241.47 295.874 241.544L320.888 245.647C321.286 245.704 321.691 245.605 322.018 245.371C322.345 245.137 322.569 244.786 322.643 244.391L323.033 241.981L295.016 237.379Z" fill="white" stroke="#263238" stroke-width="0.75" stroke-linecap="round" stroke-linejoin="round"/>
<path d="M324.154 226.793L298.854 222.641C298.101 222.518 297.391 223.027 297.268 223.78L294.76 239.058C294.637 239.811 295.147 240.521 295.899 240.644L321.199 244.797C321.952 244.92 322.662 244.41 322.785 243.658L325.293 228.379C325.416 227.627 324.906 226.917 324.154 226.793Z" fill="white"/>
<path opacity="0.5" d="M324.154 226.793L298.854 222.641C298.101 222.518 297.391 223.027 297.268 223.78L294.76 239.058C294.637 239.811 295.147 240.521 295.899 240.644L321.199 244.797C321.952 244.92 322.662 244.41 322.785 243.658L325.293 228.379C325.416 227.627 324.906 226.917 324.154 226.793Z" fill="white"/>
<path d="M324.154 226.793L298.854 222.641C298.101 222.518 297.391 223.027 297.268 223.78L294.76 239.058C294.637 239.811 295.147 240.521 295.899 240.644L321.199 244.797C321.952 244.92 322.662 244.41 322.785 243.658L325.293 228.379C325.416 227.627 324.906 226.917 324.154 226.793Z" stroke="#263238" stroke-linecap="round" stroke-linejoin="round"/>
<path d="M314.391 229.641L313.01 234.321L308.33 237.667C307.668 239.716 306.887 241.724 305.99 243.681C305.931 243.79 305.9 243.913 305.9 244.037C305.901 244.161 305.933 244.283 305.994 244.392C306.055 244.5 306.142 244.591 306.248 244.657C306.354 244.722 306.475 244.759 306.599 244.765C307.246 244.765 308.003 244.461 308.416 243.205C308.416 243.205 308.596 245.67 310.117 244.165C310.117 244.165 311.045 246.552 312.495 244.672C312.495 244.672 315.857 245.171 316.395 242.745C316.934 240.319 317.729 236.045 317.729 236.045L319.866 231.03L314.391 229.641Z" fill="#858585" stroke="#263238" stroke-linecap="round" stroke-linejoin="round"/>
<path d="M308.385 242.246L308.915 238.635" stroke="#263238" stroke-width="0.75" stroke-linecap="round" stroke-linejoin="round"/>
<path d="M309.22 242.48C309.22 242.48 309.586 243.673 310.413 243.478C311.24 243.283 312.418 244.204 314.992 243.12" stroke="#263238" stroke-width="0.75" stroke-linecap="round" stroke-linejoin="round"/>
<path d="M316.746 171.009C316.746 171.009 328.446 203.519 328.228 208.269C328.01 213.019 319.687 233.682 319.687 233.682L313.26 231.638L317.55 207.403L313.704 190.563C313.704 190.563 312.831 178.216 316.746 171.009Z" fill="white" stroke="#263238" stroke-linecap="round" stroke-linejoin="round"/>
<path d="M318.993 206.865C319.424 206.535 319.924 206.305 320.456 206.193C320.988 206.081 321.538 206.09 322.066 206.218" stroke="#263238" stroke-width="0.75" stroke-linecap="round" stroke-linejoin="round"/>
<path d="M311.388 232.153C311.155 231.844 310.981 231.495 310.873 231.123C310.423 231.114 309.987 231.277 309.652 231.577C309.317 231.877 309.108 232.293 309.068 232.741C309.027 233.189 309.158 233.636 309.434 233.991C309.709 234.347 310.109 234.584 310.553 234.656C311.02 234.733 311.498 234.622 311.882 234.347C312.267 234.072 312.527 233.656 312.605 233.19C312.103 232.977 311.678 232.615 311.388 232.153Z" fill="white"/>
<path d="M83.1132 163.536L84.5328 170.533L68.7612 171.196L71.499 151.805L82.1226 153.037L83.1132 163.536Z" fill="white"/>
<path d="M90.18 152.92L76.9902 156.82C77.1548 158.332 77.4684 159.824 77.9262 161.274C78.7062 163.521 83.4564 167.514 86.5062 167.467C89.556 167.421 89.8992 157.702 89.8992 157.702L91.74 156.68C91.8454 156.62 91.9369 156.538 92.0084 156.44C92.0799 156.342 92.1299 156.23 92.1549 156.112C92.18 155.993 92.1796 155.87 92.1538 155.752C92.128 155.633 92.0774 155.522 92.0052 155.424L90.18 152.92Z" fill="#263238" stroke="#263238" stroke-width="0.75" stroke-linecap="round" stroke-linejoin="round"/>
<path d="M83.1132 163.536L84.5328 170.533L68.7612 171.196L71.499 151.805L82.1226 153.037L83.1132 163.536Z" stroke="#263238" stroke-linecap="round" stroke-linejoin="round"/>
<path d="M83.8387 138.888C83.8387 138.888 87.6685 139.668 87.2785 135.511C86.8885 131.353 79.7515 133.896 76.0309 134.364C72.3103 134.832 60.2983 139.317 64.5493 146.4C64.5493 146.4 62.0455 150.393 71.0623 157.093C71.0623 157.093 75.3445 155.081 77.6923 158.022L79.5253 154.449L84.2053 146.228L83.8387 138.888Z" fill="#263238" stroke="#263238" stroke-linecap="round" stroke-linejoin="round"/>
<path d="M83.5576 138.264C83.5576 138.264 87.2236 140.308 89.3296 137.749C89.3296 137.749 89.5636 143.209 83.5576 138.264Z" fill="#263238" stroke="#263238" stroke-linecap="round" stroke-linejoin="round"/>
<path d="M83.9397 137.695C83.9397 137.695 89.3997 143.443 89.2125 147.382V150.978L92.0985 154.223C92.1792 154.306 92.2403 154.406 92.2776 154.516C92.3148 154.625 92.3271 154.742 92.3137 154.857C92.3002 154.972 92.2613 155.083 92.1998 155.181C92.1383 155.279 92.0558 155.362 91.9581 155.424L90.2811 156.586C90.2811 156.586 90.7725 165.79 87.8865 166.118C85.0005 166.446 80.1957 162.998 79.2363 160.97C78.5137 159.109 77.9908 157.177 77.6763 155.206C76.8363 154.978 76.0836 154.505 75.5151 153.846C74.9465 153.187 74.5882 152.373 74.4861 151.509C74.1507 148.482 77.2005 148.568 77.9883 150.549L78.6279 152.164L80.6091 152.094C80.6091 152.094 79.4781 149.239 80.1489 148.396C80.8197 147.554 83.4561 145.503 82.2471 143.545C81.0381 141.587 81.4437 138.256 83.9397 137.695Z" fill="white" stroke="#263238" stroke-linecap="round" stroke-linejoin="round"/>
<path d="M87.0601 158.388C87.2872 158.791 87.6353 159.113 88.0553 159.308C88.4752 159.502 88.9456 159.56 89.4001 159.472" stroke="#263238" stroke-width="0.75" stroke-linecap="round" stroke-linejoin="round"/>
<path d="M85.6245 147.406C85.6245 147.406 86.8647 145.682 88.0425 147.258" stroke="#263238" stroke-linecap="round" stroke-linejoin="round"/>
<path d="M87.5826 151.002C87.5826 151.54 87.372 151.984 87.0834 151.992C86.7948 152 86.5452 151.571 86.5296 151.033C86.514 150.495 86.7402 150.05 87.0288 150.042C87.3174 150.034 87.567 150.44 87.5826 151.002Z" fill="#263238"/>
<path d="M62.5676 323.787L60.29 343.389L67.0682 344.434L70.8044 325.059L62.5676 323.787Z" fill="white" stroke="#263238" stroke-linecap="round" stroke-linejoin="round"/>
<path d="M59.3774 237.176C59.3774 237.176 59.6504 248.533 63.6596 256.52L64.5722 286.659L59.9468 335.222L70.235 336.205L79.595 285.411L82.715 239.391L59.3774 237.176Z" fill="white" stroke="#263238" stroke-linecap="round" stroke-linejoin="round"/>
<path opacity="0.2" d="M81.2643 261.52L80.4063 256.114L76.5063 239.103L75.7887 238.736L59.4087 237.176C59.4087 237.176 59.4087 239.04 59.7753 241.794L67.8639 246.38C68.0547 249.26 68.7051 252.091 69.7905 254.765C69.8877 254.999 69.9232 255.253 69.8936 255.504C69.8639 255.755 69.7702 255.995 69.6214 256.199C69.4725 256.404 69.2736 256.566 69.0436 256.672C68.8137 256.777 68.5606 256.822 68.3085 256.801C67.4739 256.738 66.7485 256.801 66.7485 257.347C66.7485 258.61 72.8481 262.69 72.8481 262.69C72.8481 262.69 79.0023 282.58 78.7839 289.927L79.6185 285.403L81.2643 261.52Z" fill="black"/>
<path d="M83.2534 325.074L83.9944 344.793H90.8506L91.5838 325.074H83.2534Z" fill="white" stroke="#263238" stroke-linecap="round" stroke-linejoin="round"/>
<path d="M101.771 347.569C99.5074 346.88 97.3054 346.003 95.1875 344.949C94.1735 344.317 92.7539 342.25 91.7087 341.665C91.4894 341.57 91.2532 341.522 91.0145 341.522C90.7758 341.522 90.5395 341.57 90.3203 341.665C89.8211 342.071 89.7977 344.184 89.7977 344.184C89.7977 344.184 88.9163 342.032 88.2767 341.665C87.3875 341.166 84.9695 341.018 84.1817 341.665C82.8713 342.734 82.3955 346.446 82.1381 348.115C82.0757 348.482 82.1381 350.51 82.1381 350.51H103.198V349.582C103.2 349.139 103.063 348.708 102.807 348.347C102.551 347.986 102.189 347.714 101.771 347.569Z" fill="#263238" stroke="#263238" stroke-linecap="round" stroke-linejoin="round"/>
<path d="M97.5978 238.112L95.913 283.672L93.0972 335.69H82.38C82.38 335.69 80.1336 295.762 80.6952 284.21L75.0714 257.495C75.0714 257.495 69.1668 249.617 70.5708 240.062L97.5978 238.112Z" fill="white" stroke="#263238" stroke-linecap="round" stroke-linejoin="round"/>
<path d="M81.4282 331.821L81.7792 338.077H93.5182L94.4308 331.821H81.4282Z" fill="white" stroke="#263238" stroke-linecap="round" stroke-linejoin="round"/>
<path d="M59.089 331.283L58.8472 337.539L70.5316 338.654L72.037 332.515L59.089 331.283Z" fill="white" stroke="#263238" stroke-linecap="round" stroke-linejoin="round"/>
<path d="M115.366 208.121L99.1499 197.809L116.24 180.72L132.464 191.031L115.366 208.121Z" fill="white" stroke="#263238" stroke-linecap="round" stroke-linejoin="round"/>
<path d="M116.294 204.595L103.252 196.304L116.996 182.56L130.038 190.852L116.294 204.595Z" fill="white" stroke="#263238" stroke-width="0.75" stroke-linecap="round" stroke-linejoin="round"/>
<path d="M117.246 190.36L119.523 188.083L116.598 186.226L114.321 188.496L117.246 190.36Z" stroke="#263238" stroke-width="0.75" stroke-linecap="round" stroke-linejoin="round"/>
<path d="M113.713 193.902L115.99 191.624L113.057 189.76L110.788 192.037L113.713 193.902Z" stroke="#263238" stroke-width="0.75" stroke-linecap="round" stroke-linejoin="round"/>
<path d="M110.054 197.56L112.324 195.282L109.399 193.418L107.122 195.696L110.054 197.56Z" stroke="#263238" stroke-width="0.75" stroke-linecap="round" stroke-linejoin="round"/>
<path d="M122.823 183.379L120.67 185.54C120.568 185.642 120.491 185.765 120.443 185.901C120.395 186.036 120.378 186.181 120.394 186.324C120.41 186.467 120.457 186.605 120.534 186.727C120.61 186.849 120.712 186.953 120.834 187.03L123.954 189.034C124.298 189.254 124.706 189.349 125.112 189.305C125.517 189.261 125.896 189.081 126.185 188.793L128.174 186.796L122.823 183.379Z" fill="#858585" stroke="#263238" stroke-linecap="round" stroke-linejoin="round"/>
<path d="M65.1187 170.065L67.9345 163.879C67.9345 163.879 84.2442 162.054 88.5966 175.689L65.1187 170.065Z" fill="#858585" stroke="#263238" stroke-linecap="round" stroke-linejoin="round"/>
<path d="M55.8599 175.338C55.8599 175.338 51.8351 206.171 52.9037 217.099C53.7461 225.741 59.4401 233.058 59.4401 233.058L67.8797 229.75L63.5897 217.099C63.5897 217.099 64.9235 194.323 66.1871 189.019L55.8599 175.338Z" fill="#858585" stroke="#263238" stroke-linecap="round" stroke-linejoin="round"/>
<path d="M56.9985 231.544L59.3775 234.391L69.1275 230.593L67.8639 226.794L56.9985 231.544Z" fill="#858585" stroke="#263238" stroke-linecap="round" stroke-linejoin="round"/>
<path d="M55.8596 175.338C55.8596 175.338 54.5882 193.051 58.1996 205.5C61.811 217.949 58.1996 238.393 58.1996 238.393C58.1996 238.393 74.8214 249.149 100.32 240.92C100.32 240.92 97.1606 180.392 92.9408 177.022C88.721 173.653 64.9076 160.791 55.8596 175.338Z" fill="#858585" stroke="#263238" stroke-linecap="round" stroke-linejoin="round"/>
<path opacity="0.2" d="M100.32 240.92C100.32 240.92 99.2359 220.172 97.4965 202.294C93.8071 193.34 87.7777 181.414 87.4579 198.16C86.9899 222.379 101.896 220.952 90.0865 225.172C87.4459 226.172 84.6173 226.577 81.8021 226.359C78.987 226.14 76.2547 225.304 73.8001 223.908C73.6038 223.808 73.379 223.777 73.163 223.822C72.9471 223.867 72.7529 223.984 72.6127 224.154C72.4725 224.325 72.3947 224.538 72.3922 224.758C72.3897 224.979 72.4626 225.193 72.5989 225.367C75.5629 229.134 80.0635 231.482 83.5189 232.831C83.8309 232.951 84.0947 233.17 84.2691 233.455C84.4436 233.74 84.5189 234.074 84.4833 234.406C84.4476 234.738 84.3031 235.049 84.0722 235.291C83.8414 235.532 83.5371 235.69 83.2069 235.741C72.0841 237.387 63.3637 231.474 59.3623 228.034C58.8943 233.994 58.1221 238.393 58.1221 238.393C58.1221 238.393 74.8219 249.149 100.32 240.92Z" fill="black"/>
<path d="M92.9566 177.03C94.4772 177.728 95.7966 178.799 96.7921 180.144C97.7876 181.488 98.427 183.063 98.6506 184.721C99.493 190.524 104.891 208.347 104.891 208.347L106.685 207.185C108.182 207.858 109.416 209.006 110.195 210.452C110.973 211.897 111.253 213.559 110.99 215.18C110.99 215.18 106.607 223.76 101.817 222.145C96.8956 220.476 94.1422 216.451 91.6774 209.868C90.3748 206.358 86.6152 195.781 86.6152 195.781" fill="#858585"/>
<path d="M92.9566 177.03C94.4772 177.728 95.7966 178.799 96.7921 180.144C97.7876 181.488 98.427 183.063 98.6506 184.721C99.493 190.524 104.891 208.347 104.891 208.347L106.685 207.185C108.182 207.858 109.416 209.006 110.195 210.452C110.973 211.897 111.253 213.559 110.99 215.18C110.99 215.18 106.607 223.76 101.817 222.145C96.8956 220.476 94.1422 216.451 91.6774 209.868C90.3748 206.358 86.6152 195.781 86.6152 195.781" stroke="#263238" stroke-linecap="round" stroke-linejoin="round"/>
<path d="M107.043 213.511C107.072 213.969 107.051 214.43 106.981 214.884" stroke="#263238" stroke-width="0.75" stroke-linecap="round" stroke-linejoin="round"/>
<path d="M103.822 217.099C103.822 217.099 105.296 214.759 105.086 209.712C105.795 210.249 106.336 210.977 106.646 211.81" stroke="#263238" stroke-width="0.75" stroke-linecap="round" stroke-linejoin="round"/>
<path d="M107.862 206.694L113.486 202.684C113.767 201.438 114.379 200.29 115.258 199.362C116.136 198.434 117.249 197.76 118.478 197.412C118.478 197.412 121.076 193.122 122.55 193.621C124.024 194.12 120.795 195.867 120.514 198.114L121.707 199.713C121.707 199.713 125.607 199.026 126.559 197.763C126.559 197.763 126.348 200.438 124.804 200.883C124.804 200.883 124.804 202.918 123.751 202.848L116.013 205.032L111.513 213.433L107.862 206.694Z" fill="white" stroke="#263238" stroke-linecap="round" stroke-linejoin="round"/>
<path d="M84.8369 226.194C85.7261 226.112 86.6076 225.96 87.4733 225.741" stroke="#263238" stroke-width="0.75" stroke-linecap="round" stroke-linejoin="round"/>
<path d="M62.7314 213.409C62.7314 213.409 71.0228 226.092 83.0114 226.264" stroke="#263238" stroke-width="0.75" stroke-linecap="round" stroke-linejoin="round"/>
<path d="M105.437 206.834C105.437 206.834 111.302 211.264 110.741 216.607L112.854 212.559C112.854 212.559 112.784 209.151 107.933 205.539L105.437 206.834Z" fill="#858585" stroke="#263238" stroke-linecap="round" stroke-linejoin="round"/>
<path d="M82.1381 350.51H103.198V349.582C103.198 349.354 103.161 349.127 103.089 348.911H82.1069C82.1069 349.621 82.1381 350.51 82.1381 350.51Z" fill="white" stroke="#263238" stroke-width="0.75" stroke-linecap="round" stroke-linejoin="round"/>
<path d="M77.6999 347.569C75.4366 346.88 73.2346 346.003 71.1167 344.949C70.1027 344.317 68.6831 342.25 67.6457 341.665C67.4251 341.57 67.1876 341.521 66.9476 341.521C66.7076 341.521 66.4701 341.57 66.2495 341.665C65.7503 342.071 65.7269 344.184 65.7269 344.184C65.7269 344.184 64.8533 342.032 64.2059 341.665C63.3167 341.166 60.8987 341.018 60.1109 341.665C58.8005 342.734 58.3247 346.446 58.0673 348.115C58.0049 348.482 58.0673 350.51 58.0673 350.51H79.1273V349.582C79.1289 349.139 78.9921 348.708 78.7362 348.347C78.4802 347.986 78.1179 347.714 77.6999 347.569Z" fill="#263238" stroke="#263238" stroke-linecap="round" stroke-linejoin="round"/>
<path d="M58.0517 350.51H79.1117V349.582C79.1116 349.354 79.0747 349.127 79.0025 348.911H58.0205C58.0205 349.621 58.0517 350.51 58.0517 350.51Z" fill="white" stroke="#263238" stroke-width="0.75" stroke-linecap="round" stroke-linejoin="round"/>
<path d="M89.119 284.514C89.119 284.514 86.8804 288.375 83.2534 286.901" stroke="#263238" stroke-width="0.75" stroke-linecap="round" stroke-linejoin="round"/>
<path d="M73.5112 285.871C73.5112 285.871 69.4942 289.303 66.1714 286.901" stroke="#263238" stroke-width="0.75" stroke-linecap="round" stroke-linejoin="round"/>
<path d="M115.428 185.953L115.99 188.746H120.966L116.918 187.802L117.113 185.899L115.428 185.953Z" fill="white"/>
</svg>
